{"asset":{"version":"2.0","generator":"Blockbench 3.8.4 glTF exporter"},"scenes":[{"nodes":[4,13,14,15,16],"name":"blockbench_export"}],"scene":0,"nodes":[{"name":"2d2c10d1-3ec7-3c23-da84-5e31f0ffc34e","mesh":0},{"name":"7e5c3a90-4e6c-f6bf-80e0-c46ada56d4cb","mesh":1},{"name":"729c0c3c-ad16-cd51-13f0-01c7216f7a57","mesh":2},{"name":"19f19190-babd-52ac-9de6-1feedc8082d8","mesh":3},{"translation":[0,0.5,0],"name":"bone3","children":[0,1,2,3]},{"name":"573b688c-c07f-5463-7ef4-3f972296b7c5","mesh":4},{"name":"2d77b05b-ebcc-b7ea-1a74-4b74300676b0","mesh":5},{"name":"8eeccff4-59fb-a6e4-3859-f1ff0f1e3f6c","mesh":6},{"name":"c00796fb-9f75-c1ff-2a7b-9dd67cd1e68f","mesh":7},{"name":"c4f1844a-a1f6-bfb7-b417-8db6b8dd1755","mesh":8},{"name":"e3eab919-dd2e-6639-9284-2917ec16e435","mesh":9},{"name":"48936ca8-aa4b-dddb-7627-8b58f2ba1c37","mesh":10},{"name":"bb5369ea-e4f7-83eb-e895-ccf93b430f40","mesh":11},{"translation":[0,0.5,0],"name":"bone","children":[5,6,7,8,9,10,11,12]},{"name":"bone"},{"name":"828fb47e-54ab-fead-ee35-953114e9f127","mesh":12},{"name":"bone"}],"bufferViews":[{"buffer":0,"byteOffset":0,"byteLength":432,"target":34962,"byteStride":12},{"buffer":0,"byteOffset":432,"byteLength":432,"target":34962,"byteStride":12},{"buffer":0,"byteOffset":864,"byteLength":288,"target":34962,"byteStride":8},{"buffer":0,"byteOffset":1152,"byteLength":432,"target":34962,"byteStride":12},{"buffer":0,"byteOffset":1584,"byteLength":432,"target":34962,"byteStride":12},{"buffer":0,"byteOffset":2016,"byteLength":288,"target":34962,"byteStride":8},{"buffer":0,"byteOffset":2304,"byteLength":432,"target":34962,"byteStride":12},{"buffer":0,"byteOffset":2736,"byteLength":432,"target":34962,"byteStride":12},{"buffer":0,"byteOffset":3168,"byteLength":288,"target":34962,"byteStride":8},{"buffer":0,"byteOffset":3456,"byteLength":432,"target":34962,"byteStride":12},{"buffer":0,"byteOffset":3888,"byteLength":432,"target":34962,"byteStride":12},{"buffer":0,"byteOffset":4320,"byteLength":288,"target":34962,"byteStride":8},{"buffer":0,"byteOffset":4608,"byteLength":432,"target":34962,"byteStride":12},{"buffer":0,"byteOffset":5040,"byteLength":432,"target":34962,"byteStride":12},{"buffer":0,"byteOffset":5472,"byteLength":288,"target":34962,"byteStride":8},{"buffer":0,"byteOffset":5760,"byteLength":432,"target":34962,"byteStride":12},{"buffer":0,"byteOffset":6192,"byteLength":432,"target":34962,"byteStride":12},{"buffer":0,"byteOffset":6624,"byteLength":288,"target":34962,"byteStride":8},{"buffer":0,"byteOffset":6912,"byteLength":432,"target":34962,"byteStride":12},{"buffer":0,"byteOffset":7344,"byteLength":432,"target":34962,"byteStride":12},{"buffer":0,"byteOffset":7776,"byteLength":288,"target":34962,"byteStride":8},{"buffer":0,"byteOffset":8064,"byteLength":432,"target":34962,"byteStride":12},{"buffer":0,"byteOffset":8496,"byteLength":432,"target":34962,"byteStride":12},{"buffer":0,"byteOffset":8928,"byteLength":288,"target":34962,"byteStride":8},{"buffer":0,"byteOffset":9216,"byteLength":432,"target":34962,"byteStride":12},{"buffer":0,"byteOffset":9648,"byteLength":432,"target":34962,"byteStride":12},{"buffer":0,"byteOffset":10080,"byteLength":288,"target":34962,"byteStride":8},{"buffer":0,"byteOffset":10368,"byteLength":432,"target":34962,"byteStride":12},{"buffer":0,"byteOffset":10800,"byteLength":432,"target":34962,"byteStride":12},{"buffer":0,"byteOffset":11232,"byteLength":288,"target":34962,"byteStride":8},{"buffer":0,"byteOffset":11520,"byteLength":432,"target":34962,"byteStride":12},{"buffer":0,"byteOffset":11952,"byteLength":432,"target":34962,"byteStride":12},{"buffer":0,"byteOffset":12384,"byteLength":288,"target":34962,"byteStride":8},{"buffer":0,"byteOffset":12672,"byteLength":432,"target":34962,"byteStride":12},{"buffer":0,"byteOffset":13104,"byteLength":432,"target":34962,"byteStride":12},{"buffer":0,"byteOffset":13536,"byteLength":288,"target":34962,"byteStride":8},{"buffer":0,"byteOffset":13824,"byteLength":432,"target":34962,"byteStride":12},{"buffer":0,"byteOffset":14256,"byteLength":432,"target":34962,"byteStride":12},{"buffer":0,"byteOffset":14688,"byteLength":288,"target":34962,"byteStride":8}],"buffers":[{"byteLength":14976,"uri":"data:application/octet-stream;base64,"}],"accessors":[{"bufferView":0,"componentType":5126,"count":36,"max":[-0.25,0.125,-0.25],"min":[-0.3125,-0.4375,-0.3125],"type":"VEC3"},{"bufferView":1,"componentType":5126,"count":36,"max":[1,1,1],"min":[-1,-1,-1],"type":"VEC3"},{"bufferView":2,"componentType":5126,"count":36,"max":[0.625,0.4375],"min":[0,0.375],"type":"VEC2"},{"bufferView":3,"componentType":5126,"count":36,"max":[-0.25,0.125,0.375],"min":[-0.3125,-0.4375,0.3125],"type":"VEC3"},{"bufferView":4,"componentType":5126,"count":36,"max":[1,1,1],"min":[-1,-1,-1],"type":"VEC3"},{"bufferView":5,"componentType":5126,"count":36,"max":[0.625,0.4375],"min":[0,0.375],"type":"VEC2"},{"bufferView":6,"componentType":5126,"count":36,"max":[0.375,0.125,0.375],"min":[0.3125,-0.4375,0.3125],"type":"VEC3"},{"bufferView":7,"componentType":5126,"count":36,"max":[1,1,1],"min":[-1,-1,-1],"type":"VEC3"},{"bufferView":8,"componentType":5126,"count":36,"max":[0.625,0.4375],"min":[0,0.375],"type":"VEC2"},{"bufferView":9,"componentType":5126,"count":36,"max":[0.375,0.125,-0.25],"min":[0.3125,-0.4375,-0.3125],"type":"VEC3"},{"bufferView":10,"componentType":5126,"count":36,"max":[1,1,1],"min":[-1,-1,-1],"type":"VEC3"},{"bufferView":11,"componentType":5126,"count":36,"max":[0.625,0.4375],"min":[0,0.375],"type":"VEC2"},{"bufferView":12,"componentType":5126,"count":36,"max":[0.3125,0.1875,-0.25],"min":[-0.3125,0.125,-0.3125],"type":"VEC3"},{"bufferView":13,"componentType":5126,"count":36,"max":[1,1,1],"min":[-1,-1,-1],"type":"VEC3"},{"bufferView":14,"componentType":5126,"count":36,"max":[0.625,0.4375],"min":[0,0.375],"type":"VEC2"},{"bufferView":15,"componentType":5126,"count":36,"max":[0.375,0.1875,0.375],"min":[-0.25,0.125,0.3125],"type":"VEC3"},{"bufferView":16,"componentType":5126,"count":36,"max":[1,1,1],"min":[-1,-1,-1],"type":"VEC3"},{"bufferView":17,"componentType":5126,"count":36,"max":[0.625,0.4375],"min":[0,0.375],"type":"VEC2"},{"bufferView":18,"componentType":5126,"count":36,"max":[-0.25,0.1875,0.375],"min":[-0.3125,0.125,-0.25],"type":"VEC3"},{"bufferView":19,"componentType":5126,"count":36,"max":[1,1,1],"min":[-1,-1,-1],"type":"VEC3"},{"bufferView":20,"componentType":5126,"count":36,"max":[0.625,0.4375],"min":[0,0.375],"type":"VEC2"},{"bufferView":21,"componentType":5126,"count":36,"max":[0.375,0.1875,0.3125],"min":[0.3125,0.125,-0.3125],"type":"VEC3"},{"bufferView":22,"componentType":5126,"count":36,"max":[1,1,1],"min":[-1,-1,-1],"type":"VEC3"},{"bufferView":23,"componentType":5126,"count":36,"max":[0.625,0.4375],"min":[0,0.375],"type":"VEC2"},{"bufferView":24,"componentType":5126,"count":36,"max":[0.375,-0.4375,0.3125],"min":[0.3125,-0.5,-0.3125],"type":"VEC3"},{"bufferView":25,"componentType":5126,"count":36,"max":[1,1,1],"min":[-1,-1,-1],"type":"VEC3"},{"bufferView":26,"componentType":5126,"count":36,"max":[0.625,0.4375],"min":[0,0.375],"type":"VEC2"},{"bufferView":27,"componentType":5126,"count":36,"max":[0.375,-0.4375,0.375],"min":[-0.25,-0.5,0.3125],"type":"VEC3"},{"bufferView":28,"componentType":5126,"count":36,"max":[1,1,1],"min":[-1,-1,-1],"type":"VEC3"},{"bufferView":29,"componentType":5126,"count":36,"max":[0.625,0.4375],"min":[0,0.375],"type":"VEC2"},{"bufferView":30,"componentType":5126,"count":36,"max":[-0.25,-0.4375,0.375],"min":[-0.3125,-0.5,-0.25],"type":"VEC3"},{"bufferView":31,"componentType":5126,"count":36,"max":[1,1,1],"min":[-1,-1,-1],"type":"VEC3"},{"bufferView":32,"componentType":5126,"count":36,"max":[0.625,0.4375],"min":[0,0.375],"type":"VEC2"},{"bufferView":33,"componentType":5126,"count":36,"max":[0.3125,-0.4375,-0.25],"min":[-0.3125,-0.5,-0.3125],"type":"VEC3"},{"bufferView":34,"componentType":5126,"count":36,"max":[1,1,1],"min":[-1,-1,-1],"type":"VEC3"},{"bufferView":35,"componentType":5126,"count":36,"max":[0.625,0.4375],"min":[0,0.375],"type":"VEC2"},{"bufferView":36,"componentType":5126,"count":36,"max":[0.3125,0.625,0.3125],"min":[-0.25,0.0625,-0.25],"type":"VEC3"},{"bufferView":37,"componentType":5126,"count":36,"max":[1,1,1],"min":[-1,-1,-1],"type":"VEC3"},{"bufferView":38,"componentType":5126,"count":36,"max":[0.5625,1],"min":[0,0.4375],"type":"VEC2"}],"materials":[{"pbrMetallicRoughness":{"metallicFactor":0,"roughnessFactor":1,"baseColorTexture":{"index":0}},"alphaMode":"MASK","alphaCutoff":0.05,"doubleSided":true,"name":"texture.png"}],"textures":[{"sampler":0,"source":0,"name":"texture.png"}],"samplers":[{"magFilter":9728,"minFilter":9728,"wrapS":33071,"wrapT":33071}],"images":[{"mimeType":"image/png","uri":"data:image/png;base64,"}],"meshes":[{"primitives":[{"mode":4,"attributes":{"POSITION":0,"NORMAL":1,"TEXCOORD_0":2},"material":0}]},{"primitives":[{"mode":4,"attributes":{"POSITION":3,"NORMAL":4,"TEXCOORD_0":5},"material":0}]},{"primitives":[{"mode":4,"attributes":{"POSITION":6,"NORMAL":7,"TEXCOORD_0":8},"material":0}]},{"primitives":[{"mode":4,"attributes":{"POSITION":9,"NORMAL":10,"TEXCOORD_0":11},"material":0}]},{"primitives":[{"mode":4,"attributes":{"POSITION":12,"NORMAL":13,"TEXCOORD_0":14},"material":0}]},{"primitives":[{"mode":4,"attributes":{"POSITION":15,"NORMAL":16,"TEXCOORD_0":17},"material":0}]},{"primitives":[{"mode":4,"attributes":{"POSITION":18,"NORMAL":19,"TEXCOORD_0":20},"material":0}]},{"primitives":[{"mode":4,"attributes":{"POSITION":21,"NORMAL":22,"TEXCOORD_0":23},"material":0}]},{"primitives":[{"mode":4,"attributes":{"POSITION":24,"NORMAL":25,"TEXCOORD_0":26},"material":0}]},{"primitives":[{"mode":4,"attributes":{"POSITION":27,"NORMAL":28,"TEXCOORD_0":29},"material":0}]},{"primitives":[{"mode":4,"attributes":{"POSITION":30,"NORMAL":31,"TEXCOORD_0":32},"material":0}]},{"primitives":[{"mode":4,"attributes":{"POSITION":33,"NORMAL":34,"TEXCOORD_0":35},"material":0}]},{"primitives":[{"mode":4,"attributes":{"POSITION":36,"NORMAL":37,"TEXCOORD_0":38},"material":0}]}]}