{"asset":{"version":"2.0","generator":"Blockbench 3.8.4 glTF exporter"},"scenes":[{"nodes":[3],"name":"blockbench_export"}],"scene":0,"nodes":[{"translation":[0.03125,-0.1875,-0.09375],"name":"e5d59fbb-adc5-4307-05d8-bc053a79389e","mesh":0},{"translation":[0.03125,-0.1875,-0.09375],"name":"05d9ee29-d5d2-2f3e-2ee7-01baf422a506","mesh":1},{"name":"bone","children":[0,1]},{"translation":[-0.03125,0.1875,0.09375],"name":"bone","children":[2]}],"bufferViews":[{"buffer":0,"byteOffset":0,"byteLength":432,"target":34962,"byteStride":12},{"buffer":0,"byteOffset":432,"byteLength":432,"target":34962,"byteStride":12},{"buffer":0,"byteOffset":864,"byteLength":288,"target":34962,"byteStride":8},{"buffer":0,"byteOffset":1152,"byteLength":432,"target":34962,"byteStride":12},{"buffer":0,"byteOffset":1584,"byteLength":432,"target":34962,"byteStride":12},{"buffer":0,"byteOffset":2016,"byteLength":288,"target":34962,"byteStride":8},{"buffer":0,"byteOffset":2304,"byteLength":20},{"buffer":0,"byteOffset":2324,"byteLength":80},{"buffer":0,"byteOffset":2404,"byteLength":12},{"buffer":0,"byteOffset":2416,"byteLength":36},{"buffer":0,"byteOffset":2452,"byteLength":4},{"buffer":0,"byteOffset":2456,"byteLength":12},{"buffer":0,"byteOffset":2468,"byteLength":4},{"buffer":0,"byteOffset":2472,"byteLength":16},{"buffer":0,"byteOffset":2488,"byteLength":4},{"buffer":0,"byteOffset":2492,"byteLength":16},{"buffer":0,"byteOffset":2508,"byteLength":4},{"buffer":0,"byteOffset":2512,"byteLength":12},{"buffer":0,"byteOffset":2524,"byteLength":8},{"buffer":0,"byteOffset":2532,"byteLength":24},{"buffer":0,"byteOffset":2556,"byteLength":8},{"buffer":0,"byteOffset":2564,"byteLength":24}],"buffers":[{"byteLength":2588,"uri":"data:application/octet-stream;base64,"}],"accessors":[{"bufferView":0,"componentType":5126,"count":36,"max":[0.0625,0.3125,0.1875],"min":[-0.125,0,0],"type":"VEC3"},{"bufferView":1,"componentType":5126,"count":36,"max":[1,1,1],"min":[-1,-1,-1],"type":"VEC3"},{"bufferView":2,"componentType":5126,"count":36,"max":[1,1],"min":[0,0],"type":"VEC2"},{"bufferView":3,"componentType":5126,"count":36,"max":[0.046875,0.46875,0.171875],"min":[-0.109375,0.3125,0.015625],"type":"VEC3"},{"bufferView":4,"componentType":5126,"count":36,"max":[1,1,1],"min":[-1,-1,-1],"type":"VEC3"},{"bufferView":5,"componentType":5126,"count":36,"max":[0.625,1],"min":[0,0.6875],"type":"VEC2"},{"bufferView":6,"componentType":5126,"count":5,"max":[4],"min":[0],"type":"SCALAR"},{"bufferView":7,"componentType":5126,"count":5,"max":[0,1,0,1],"min":[0,0,0,-1],"type":"VEC4"},{"bufferView":8,"componentType":5126,"count":3,"max":[4],"min":[0],"type":"SCALAR"},{"bufferView":9,"componentType":5126,"count":3,"max":[-0.03125,0.1875,0.09375],"min":[-0.03125,0.140625,0.09375],"type":"VEC3"},{"bufferView":10,"componentType":5126,"count":1,"max":[0],"min":[0],"type":"SCALAR"},{"bufferView":11,"componentType":5126,"count":1,"max":[1,1,1],"min":[1,1,1],"type":"VEC3"},{"bufferView":12,"componentType":5126,"count":1,"max":[0],"min":[0],"type":"SCALAR"},{"bufferView":13,"componentType":5126,"count":1,"max":[0,0,0.24192190170288086,0.9702957272529602],"min":[0,0,0.24192190170288086,0.9702957272529602],"type":"VEC4"},{"bufferView":14,"componentType":5126,"count":1,"max":[0],"min":[0],"type":"SCALAR"},{"bufferView":15,"componentType":5126,"count":1,"max":[0,0,0,1],"min":[0,0,0,1],"type":"VEC4"},{"bufferView":16,"componentType":5126,"count":1,"max":[0],"min":[0],"type":"SCALAR"},{"bufferView":17,"componentType":5126,"count":1,"max":[-0.03125,0.1875,0.09375],"min":[-0.03125,0.1875,0.09375],"type":"VEC3"},{"bufferView":18,"componentType":5126,"count":2,"max":[0.1666666716337204],"min":[0],"type":"SCALAR"},{"bufferView":19,"componentType":5126,"count":2,"max":[1,1,1],"min":[0,0,0],"type":"VEC3"},{"bufferView":20,"componentType":5126,"count":2,"max":[0.5],"min":[0],"type":"SCALAR"},{"bufferView":21,"componentType":5126,"count":2,"max":[1,1,1],"min":[0,0,0],"type":"VEC3"}],"materials":[{"pbrMetallicRoughness":{"metallicFactor":0,"roughnessFactor":1,"baseColorTexture":{"index":0}},"alphaMode":"MASK","alphaCutoff":0.05,"doubleSided":true,"name":"texture.png"}],"textures":[{"sampler":0,"source":0,"name":"texture.png"}],"samplers":[{"magFilter":9728,"minFilter":9728,"wrapS":33071,"wrapT":33071}],"images":[{"mimeType":"image/png","uri":"data:image/png;base64,"}],"meshes":[{"primitives":[{"mode":4,"attributes":{"POSITION":0,"NORMAL":1,"TEXCOORD_0":2},"material":0}]},{"primitives":[{"mode":4,"attributes":{"POSITION":3,"NORMAL":4,"TEXCOORD_0":5},"material":0}]}],"animations":[{"name":"idle","samplers":[{"input":6,"output":7,"interpolation":"LINEAR"},{"input":8,"output":9,"interpolation":"LINEAR"},{"input":10,"output":11,"interpolation":"LINEAR"},{"input":12,"output":13,"interpolation":"LINEAR"}],"channels":[{"sampler":0,"target":{"node":3,"path":"rotation"}},{"sampler":1,"target":{"node":3,"path":"translation"}},{"sampler":2,"target":{"node":3,"path":"scale"}},{"sampler":3,"target":{"node":2,"path":"rotation"}}]},{"name":"pickup","samplers":[{"input":14,"output":15,"interpolation":"LINEAR"},{"input":16,"output":17,"interpolation":"LINEAR"},{"input":18,"output":19,"interpolation":"LINEAR"}],"channels":[{"sampler":0,"target":{"node":3,"path":"rotation"}},{"sampler":1,"target":{"node":3,"path":"translation"}},{"sampler":2,"target":{"node":3,"path":"scale"}}]},{"name":"showup","samplers":[{"input":20,"output":21,"interpolation":"LINEAR"}],"channels":[{"sampler":0,"target":{"node":3,"path":"scale"}}]}]}