{"asset":{"version":"2.0","generator":"Blockbench 3.8.4 glTF exporter"},"scenes":[{"nodes":[0,1,2,3,4,5],"name":"blockbench_export"}],"scene":0,"nodes":[{"name":"aeddced2-e0d7-30d6-78f9-020b4a0afd64","mesh":0},{"rotation":[0,0.26723837607825685,0,0.963630453208623],"translation":[0.037500000000000006,0.634375,0.11249999999999999],"name":"d048dddb-bbbb-bf39-1a21-daf8e28751d3","mesh":1},{"name":"a741005a-ad6c-8bfd-953e-062d207e20a2","mesh":2},{"name":"6241056b-3699-8895-322f-ece14ac374bc","mesh":3},{"name":"73b68e1b-58bf-d377-6e22-e240a98aaaef","mesh":4},{"name":"ac1e5015-1119-ef95-6400-d362f01bef74","mesh":5}],"bufferViews":[{"buffer":0,"byteOffset":0,"byteLength":360,"target":34962,"byteStride":12},{"buffer":0,"byteOffset":360,"byteLength":360,"target":34962,"byteStride":12},{"buffer":0,"byteOffset":720,"byteLength":240,"target":34962,"byteStride":8},{"buffer":0,"byteOffset":960,"byteLength":12,"target":34963},{"buffer":0,"byteOffset":972,"byteLength":12,"target":34963},{"buffer":0,"byteOffset":984,"byteLength":12,"target":34963},{"buffer":0,"byteOffset":996,"byteLength":12,"target":34963},{"buffer":0,"byteOffset":1008,"byteLength":12,"target":34963},{"buffer":0,"byteOffset":1020,"byteLength":432,"target":34962,"byteStride":12},{"buffer":0,"byteOffset":1452,"byteLength":432,"target":34962,"byteStride":12},{"buffer":0,"byteOffset":1884,"byteLength":288,"target":34962,"byteStride":8},{"buffer":0,"byteOffset":2172,"byteLength":12,"target":34963},{"buffer":0,"byteOffset":2184,"byteLength":12,"target":34963},{"buffer":0,"byteOffset":2196,"byteLength":12,"target":34963},{"buffer":0,"byteOffset":2208,"byteLength":12,"target":34963},{"buffer":0,"byteOffset":2220,"byteLength":12,"target":34963},{"buffer":0,"byteOffset":2232,"byteLength":12,"target":34963},{"buffer":0,"byteOffset":2244,"byteLength":360,"target":34962,"byteStride":12},{"buffer":0,"byteOffset":2604,"byteLength":360,"target":34962,"byteStride":12},{"buffer":0,"byteOffset":2964,"byteLength":240,"target":34962,"byteStride":8},{"buffer":0,"byteOffset":3204,"byteLength":12,"target":34963},{"buffer":0,"byteOffset":3216,"byteLength":12,"target":34963},{"buffer":0,"byteOffset":3228,"byteLength":12,"target":34963},{"buffer":0,"byteOffset":3240,"byteLength":12,"target":34963},{"buffer":0,"byteOffset":3252,"byteLength":12,"target":34963},{"buffer":0,"byteOffset":3264,"byteLength":360,"target":34962,"byteStride":12},{"buffer":0,"byteOffset":3624,"byteLength":360,"target":34962,"byteStride":12},{"buffer":0,"byteOffset":3984,"byteLength":240,"target":34962,"byteStride":8},{"buffer":0,"byteOffset":4224,"byteLength":12,"target":34963},{"buffer":0,"byteOffset":4236,"byteLength":12,"target":34963},{"buffer":0,"byteOffset":4248,"byteLength":12,"target":34963},{"buffer":0,"byteOffset":4260,"byteLength":12,"target":34963},{"buffer":0,"byteOffset":4272,"byteLength":12,"target":34963},{"buffer":0,"byteOffset":4284,"byteLength":360,"target":34962,"byteStride":12},{"buffer":0,"byteOffset":4644,"byteLength":360,"target":34962,"byteStride":12},{"buffer":0,"byteOffset":5004,"byteLength":240,"target":34962,"byteStride":8},{"buffer":0,"byteOffset":5244,"byteLength":12,"target":34963},{"buffer":0,"byteOffset":5256,"byteLength":12,"target":34963},{"buffer":0,"byteOffset":5268,"byteLength":12,"target":34963},{"buffer":0,"byteOffset":5280,"byteLength":12,"target":34963},{"buffer":0,"byteOffset":5292,"byteLength":12,"target":34963},{"buffer":0,"byteOffset":5304,"byteLength":432,"target":34962,"byteStride":12},{"buffer":0,"byteOffset":5736,"byteLength":432,"target":34962,"byteStride":12},{"buffer":0,"byteOffset":6168,"byteLength":288,"target":34962,"byteStride":8}],"buffers":[{"byteLength":6456,"uri":"data:application/octet-stream;base64,"}],"accessors":[{"bufferView":0,"componentType":5126,"count":30,"max":[0.125,0.625,0.25],"min":[-0.0625,0,0.1875],"type":"VEC3"},{"bufferView":1,"componentType":5126,"count":30,"max":[1,1,1],"min":[-1,-1,0],"type":"VEC3"},{"bufferView":2,"componentType":5126,"count":30,"max":[1,1],"min":[0,0.375],"type":"VEC2"},{"bufferView":3,"componentType":5123,"count":6,"max":[5],"min":[0],"type":"SCALAR"},{"bufferView":4,"componentType":5123,"count":6,"max":[11],"min":[6],"type":"SCALAR"},{"bufferView":5,"componentType":5123,"count":6,"max":[17],"min":[12],"type":"SCALAR"},{"bufferView":6,"componentType":5123,"count":6,"max":[23],"min":[18],"type":"SCALAR"},{"bufferView":7,"componentType":5123,"count":6,"max":[29],"min":[24],"type":"SCALAR"},{"bufferView":8,"componentType":5126,"count":36,"max":[0.05000000074505806,-0.0031250000465661287,0.05000000074505806],"min":[-0.05000000074505806,-0.02187499962747097,-0.05000000074505806],"type":"VEC3"},{"bufferView":9,"componentType":5126,"count":36,"max":[1,1,1],"min":[-1,-1,-1],"type":"VEC3"},{"bufferView":10,"componentType":5126,"count":36,"max":[1,1],"min":[0,0],"type":"VEC2"},{"bufferView":11,"componentType":5123,"count":6,"max":[5],"min":[0],"type":"SCALAR"},{"bufferView":12,"componentType":5123,"count":6,"max":[11],"min":[6],"type":"SCALAR"},{"bufferView":13,"componentType":5123,"count":6,"max":[17],"min":[12],"type":"SCALAR"},{"bufferView":14,"componentType":5123,"count":6,"max":[23],"min":[18],"type":"SCALAR"},{"bufferView":15,"componentType":5123,"count":6,"max":[29],"min":[24],"type":"SCALAR"},{"bufferView":16,"componentType":5123,"count":6,"max":[35],"min":[30],"type":"SCALAR"},{"bufferView":17,"componentType":5126,"count":30,"max":[-0.125,0.625,0.125],"min":[-0.1875,0,-0.0625],"type":"VEC3"},{"bufferView":18,"componentType":5126,"count":30,"max":[0,1,1],"min":[-1,-1,-1],"type":"VEC3"},{"bufferView":19,"componentType":5126,"count":30,"max":[1,1],"min":[0,0.375],"type":"VEC2"},{"bufferView":20,"componentType":5123,"count":6,"max":[5],"min":[0],"type":"SCALAR"},{"bufferView":21,"componentType":5123,"count":6,"max":[11],"min":[6],"type":"SCALAR"},{"bufferView":22,"componentType":5123,"count":6,"max":[17],"min":[12],"type":"SCALAR"},{"bufferView":23,"componentType":5123,"count":6,"max":[23],"min":[18],"type":"SCALAR"},{"bufferView":24,"componentType":5123,"count":6,"max":[29],"min":[24],"type":"SCALAR"},{"bufferView":25,"componentType":5126,"count":30,"max":[0.25,0.625,0.125],"min":[0.1875,0,-0.0625],"type":"VEC3"},{"bufferView":26,"componentType":5126,"count":30,"max":[1,1,1],"min":[0,-1,-1],"type":"VEC3"},{"bufferView":27,"componentType":5126,"count":30,"max":[1,1],"min":[0,0.375],"type":"VEC2"},{"bufferView":28,"componentType":5123,"count":6,"max":[5],"min":[0],"type":"SCALAR"},{"bufferView":29,"componentType":5123,"count":6,"max":[11],"min":[6],"type":"SCALAR"},{"bufferView":30,"componentType":5123,"count":6,"max":[17],"min":[12],"type":"SCALAR"},{"bufferView":31,"componentType":5123,"count":6,"max":[23],"min":[18],"type":"SCALAR"},{"bufferView":32,"componentType":5123,"count":6,"max":[29],"min":[24],"type":"SCALAR"},{"bufferView":33,"componentType":5126,"count":30,"max":[0.125,0.625,-0.125],"min":[-0.0625,0,-0.1875],"type":"VEC3"},{"bufferView":34,"componentType":5126,"count":30,"max":[1,1,0],"min":[-1,-1,-1],"type":"VEC3"},{"bufferView":35,"componentType":5126,"count":30,"max":[1,1],"min":[0,0.375],"type":"VEC2"},{"bufferView":36,"componentType":5123,"count":6,"max":[5],"min":[0],"type":"SCALAR"},{"bufferView":37,"componentType":5123,"count":6,"max":[11],"min":[6],"type":"SCALAR"},{"bufferView":38,"componentType":5123,"count":6,"max":[17],"min":[12],"type":"SCALAR"},{"bufferView":39,"componentType":5123,"count":6,"max":[23],"min":[18],"type":"SCALAR"},{"bufferView":40,"componentType":5123,"count":6,"max":[29],"min":[24],"type":"SCALAR"},{"bufferView":41,"componentType":5126,"count":36,"max":[0.1875,0.625,0.1875],"min":[-0.125,0,-0.125],"type":"VEC3"},{"bufferView":42,"componentType":5126,"count":36,"max":[1,1,1],"min":[-1,-1,-1],"type":"VEC3"},{"bufferView":43,"componentType":5126,"count":36,"max":[1,1],"min":[0,0.375],"type":"VEC2"}],"materials":[{"pbrMetallicRoughness":{"metallicFactor":0,"roughnessFactor":1,"baseColorTexture":{"index":0}},"alphaMode":"MASK","alphaCutoff":0.05,"doubleSided":true,"name":"text_barrel.png"},{"pbrMetallicRoughness":{"baseColorFactor":[1,0.9725490196078431,0.6,1],"metallicFactor":0,"roughnessFactor":1,"baseColorTexture":{"index":1}},"doubleSided":true}],"textures":[{"sampler":0,"source":0,"name":"text_barrel.png"},{"sampler":1,"source":1}],"samplers":[{"magFilter":9728,"minFilter":9728,"wrapS":33071,"wrapT":33071},{"magFilter":9728,"minFilter":9728,"wrapS":10497,"wrapT":10497}],"images":[{"mimeType":"image/png","uri":"data:image/png;base64,"},{"mimeType":"image/png","uri":"data:image/png;base64,"}],"meshes":[{"primitives":[{"mode":4,"attributes":{"POSITION":0,"NORMAL":1,"TEXCOORD_0":2},"indices":3,"material":0},{"mode":4,"attributes":{"POSITION":0,"NORMAL":1,"TEXCOORD_0":2},"indices":4,"material":0},{"mode":4,"attributes":{"POSITION":0,"NORMAL":1,"TEXCOORD_0":2},"indices":5,"material":0},{"mode":4,"attributes":{"POSITION":0,"NORMAL":1,"TEXCOORD_0":2},"indices":6,"material":0},{"mode":4,"attributes":{"POSITION":0,"NORMAL":1,"TEXCOORD_0":2},"indices":7,"material":0}]},{"primitives":[{"mode":4,"attributes":{"POSITION":8,"NORMAL":9,"TEXCOORD_0":10},"indices":11,"material":0},{"mode":4,"attributes":{"POSITION":8,"NORMAL":9,"TEXCOORD_0":10},"indices":12,"material":0},{"mode":4,"attributes":{"POSITION":8,"NORMAL":9,"TEXCOORD_0":10},"indices":13,"material":0},{"mode":4,"attributes":{"POSITION":8,"NORMAL":9,"TEXCOORD_0":10},"indices":14,"material":1},{"mode":4,"attributes":{"POSITION":8,"NORMAL":9,"TEXCOORD_0":10},"indices":15,"material":0},{"mode":4,"attributes":{"POSITION":8,"NORMAL":9,"TEXCOORD_0":10},"indices":16,"material":0}]},{"primitives":[{"mode":4,"attributes":{"POSITION":17,"NORMAL":18,"TEXCOORD_0":19},"indices":20,"material":0},{"mode":4,"attributes":{"POSITION":17,"NORMAL":18,"TEXCOORD_0":19},"indices":21,"material":0},{"mode":4,"attributes":{"POSITION":17,"NORMAL":18,"TEXCOORD_0":19},"indices":22,"material":0},{"mode":4,"attributes":{"POSITION":17,"NORMAL":18,"TEXCOORD_0":19},"indices":23,"material":0},{"mode":4,"attributes":{"POSITION":17,"NORMAL":18,"TEXCOORD_0":19},"indices":24,"material":0}]},{"primitives":[{"mode":4,"attributes":{"POSITION":25,"NORMAL":26,"TEXCOORD_0":27},"indices":28,"material":0},{"mode":4,"attributes":{"POSITION":25,"NORMAL":26,"TEXCOORD_0":27},"indices":29,"material":0},{"mode":4,"attributes":{"POSITION":25,"NORMAL":26,"TEXCOORD_0":27},"indices":30,"material":0},{"mode":4,"attributes":{"POSITION":25,"NORMAL":26,"TEXCOORD_0":27},"indices":31,"material":0},{"mode":4,"attributes":{"POSITION":25,"NORMAL":26,"TEXCOORD_0":27},"indices":32,"material":0}]},{"primitives":[{"mode":4,"attributes":{"POSITION":33,"NORMAL":34,"TEXCOORD_0":35},"indices":36,"material":0},{"mode":4,"attributes":{"POSITION":33,"NORMAL":34,"TEXCOORD_0":35},"indices":37,"material":0},{"mode":4,"attributes":{"POSITION":33,"NORMAL":34,"TEXCOORD_0":35},"indices":38,"material":0},{"mode":4,"attributes":{"POSITION":33,"NORMAL":34,"TEXCOORD_0":35},"indices":39,"material":0},{"mode":4,"attributes":{"POSITION":33,"NORMAL":34,"TEXCOORD_0":35},"indices":40,"material":0}]},{"primitives":[{"mode":4,"attributes":{"POSITION":41,"NORMAL":42,"TEXCOORD_0":43},"material":0}]}]}