{"asset":{"version":"2.0","generator":"Blockbench 3.8.4 glTF exporter"},"scenes":[{"nodes":[0,1,2,3,4,5],"name":"blockbench_export"}],"scene":0,"nodes":[{"rotation":[0,0.26723837607825685,0,0.963630453208623],"translation":[0.037500000000000006,0.634375,0.11249999999999999],"name":"d048dddb-bbbb-bf39-1a21-daf8e28751d3","mesh":0},{"name":"ac1e5015-1119-ef95-6400-d362f01bef74","mesh":1},{"name":"aeddced2-e0d7-30d6-78f9-020b4a0afd64","mesh":2},{"name":"6241056b-3699-8895-322f-ece14ac374bc","mesh":3},{"name":"73b68e1b-58bf-d377-6e22-e240a98aaaef","mesh":4},{"name":"a741005a-ad6c-8bfd-953e-062d207e20a2","mesh":5}],"bufferViews":[{"buffer":0,"byteOffset":0,"byteLength":432,"target":34962,"byteStride":12},{"buffer":0,"byteOffset":432,"byteLength":432,"target":34962,"byteStride":12},{"buffer":0,"byteOffset":864,"byteLength":288,"target":34962,"byteStride":8},{"buffer":0,"byteOffset":1152,"byteLength":12,"target":34963},{"buffer":0,"byteOffset":1164,"byteLength":12,"target":34963},{"buffer":0,"byteOffset":1176,"byteLength":12,"target":34963},{"buffer":0,"byteOffset":1188,"byteLength":12,"target":34963},{"buffer":0,"byteOffset":1200,"byteLength":12,"target":34963},{"buffer":0,"byteOffset":1212,"byteLength":12,"target":34963},{"buffer":0,"byteOffset":1224,"byteLength":432,"target":34962,"byteStride":12},{"buffer":0,"byteOffset":1656,"byteLength":432,"target":34962,"byteStride":12},{"buffer":0,"byteOffset":2088,"byteLength":288,"target":34962,"byteStride":8},{"buffer":0,"byteOffset":2376,"byteLength":432,"target":34962,"byteStride":12},{"buffer":0,"byteOffset":2808,"byteLength":432,"target":34962,"byteStride":12},{"buffer":0,"byteOffset":3240,"byteLength":288,"target":34962,"byteStride":8},{"buffer":0,"byteOffset":3528,"byteLength":12,"target":34963},{"buffer":0,"byteOffset":3540,"byteLength":12,"target":34963},{"buffer":0,"byteOffset":3552,"byteLength":12,"target":34963},{"buffer":0,"byteOffset":3564,"byteLength":12,"target":34963},{"buffer":0,"byteOffset":3576,"byteLength":12,"target":34963},{"buffer":0,"byteOffset":3588,"byteLength":12,"target":34963},{"buffer":0,"byteOffset":3600,"byteLength":432,"target":34962,"byteStride":12},{"buffer":0,"byteOffset":4032,"byteLength":432,"target":34962,"byteStride":12},{"buffer":0,"byteOffset":4464,"byteLength":288,"target":34962,"byteStride":8},{"buffer":0,"byteOffset":4752,"byteLength":12,"target":34963},{"buffer":0,"byteOffset":4764,"byteLength":12,"target":34963},{"buffer":0,"byteOffset":4776,"byteLength":12,"target":34963},{"buffer":0,"byteOffset":4788,"byteLength":12,"target":34963},{"buffer":0,"byteOffset":4800,"byteLength":12,"target":34963},{"buffer":0,"byteOffset":4812,"byteLength":12,"target":34963},{"buffer":0,"byteOffset":4824,"byteLength":432,"target":34962,"byteStride":12},{"buffer":0,"byteOffset":5256,"byteLength":432,"target":34962,"byteStride":12},{"buffer":0,"byteOffset":5688,"byteLength":288,"target":34962,"byteStride":8},{"buffer":0,"byteOffset":5976,"byteLength":12,"target":34963},{"buffer":0,"byteOffset":5988,"byteLength":12,"target":34963},{"buffer":0,"byteOffset":6000,"byteLength":12,"target":34963},{"buffer":0,"byteOffset":6012,"byteLength":12,"target":34963},{"buffer":0,"byteOffset":6024,"byteLength":12,"target":34963},{"buffer":0,"byteOffset":6036,"byteLength":12,"target":34963},{"buffer":0,"byteOffset":6048,"byteLength":432,"target":34962,"byteStride":12},{"buffer":0,"byteOffset":6480,"byteLength":432,"target":34962,"byteStride":12},{"buffer":0,"byteOffset":6912,"byteLength":288,"target":34962,"byteStride":8},{"buffer":0,"byteOffset":7200,"byteLength":12,"target":34963},{"buffer":0,"byteOffset":7212,"byteLength":12,"target":34963},{"buffer":0,"byteOffset":7224,"byteLength":12,"target":34963},{"buffer":0,"byteOffset":7236,"byteLength":12,"target":34963},{"buffer":0,"byteOffset":7248,"byteLength":12,"target":34963},{"buffer":0,"byteOffset":7260,"byteLength":12,"target":34963}],"buffers":[{"byteLength":7272,"uri":"data:application/octet-stream;base64,"}],"accessors":[{"bufferView":0,"componentType":5126,"count":36,"max":[0.05000000074505806,-0.0031250000465661287,0.05000000074505806],"min":[-0.05000000074505806,-0.02187499962747097,-0.05000000074505806],"type":"VEC3"},{"bufferView":1,"componentType":5126,"count":36,"max":[1,1,1],"min":[-1,-1,-1],"type":"VEC3"},{"bufferView":2,"componentType":5126,"count":36,"max":[1,1],"min":[0,0],"type":"VEC2"},{"bufferView":3,"componentType":5123,"count":6,"max":[5],"min":[0],"type":"SCALAR"},{"bufferView":4,"componentType":5123,"count":6,"max":[11],"min":[6],"type":"SCALAR"},{"bufferView":5,"componentType":5123,"count":6,"max":[17],"min":[12],"type":"SCALAR"},{"bufferView":6,"componentType":5123,"count":6,"max":[23],"min":[18],"type":"SCALAR"},{"bufferView":7,"componentType":5123,"count":6,"max":[29],"min":[24],"type":"SCALAR"},{"bufferView":8,"componentType":5123,"count":6,"max":[35],"min":[30],"type":"SCALAR"},{"bufferView":9,"componentType":5126,"count":36,"max":[0.1875,0.625,0.1875],"min":[-0.125,0,-0.125],"type":"VEC3"},{"bufferView":10,"componentType":5126,"count":36,"max":[1,1,1],"min":[-1,-1,-1],"type":"VEC3"},{"bufferView":11,"componentType":5126,"count":36,"max":[1,1],"min":[0,0.375],"type":"VEC2"},{"bufferView":12,"componentType":5126,"count":36,"max":[0.125,0.625,0.25],"min":[-0.0625,0,0.1875],"type":"VEC3"},{"bufferView":13,"componentType":5126,"count":36,"max":[1,1,1],"min":[-1,-1,-1],"type":"VEC3"},{"bufferView":14,"componentType":5126,"count":36,"max":[1,1],"min":[0,0.375],"type":"VEC2"},{"bufferView":15,"componentType":5123,"count":6,"max":[5],"min":[0],"type":"SCALAR"},{"bufferView":16,"componentType":5123,"count":6,"max":[11],"min":[6],"type":"SCALAR"},{"bufferView":17,"componentType":5123,"count":6,"max":[17],"min":[12],"type":"SCALAR"},{"bufferView":18,"componentType":5123,"count":6,"max":[23],"min":[18],"type":"SCALAR"},{"bufferView":19,"componentType":5123,"count":6,"max":[29],"min":[24],"type":"SCALAR"},{"bufferView":20,"componentType":5123,"count":6,"max":[35],"min":[30],"type":"SCALAR"},{"bufferView":21,"componentType":5126,"count":36,"max":[0.25,0.625,0.125],"min":[0.1875,0,-0.0625],"type":"VEC3"},{"bufferView":22,"componentType":5126,"count":36,"max":[1,1,1],"min":[-1,-1,-1],"type":"VEC3"},{"bufferView":23,"componentType":5126,"count":36,"max":[1,1],"min":[0,0.375],"type":"VEC2"},{"bufferView":24,"componentType":5123,"count":6,"max":[5],"min":[0],"type":"SCALAR"},{"bufferView":25,"componentType":5123,"count":6,"max":[11],"min":[6],"type":"SCALAR"},{"bufferView":26,"componentType":5123,"count":6,"max":[17],"min":[12],"type":"SCALAR"},{"bufferView":27,"componentType":5123,"count":6,"max":[23],"min":[18],"type":"SCALAR"},{"bufferView":28,"componentType":5123,"count":6,"max":[29],"min":[24],"type":"SCALAR"},{"bufferView":29,"componentType":5123,"count":6,"max":[35],"min":[30],"type":"SCALAR"},{"bufferView":30,"componentType":5126,"count":36,"max":[0.125,0.625,-0.125],"min":[-0.0625,0,-0.1875],"type":"VEC3"},{"bufferView":31,"componentType":5126,"count":36,"max":[1,1,1],"min":[-1,-1,-1],"type":"VEC3"},{"bufferView":32,"componentType":5126,"count":36,"max":[1,1],"min":[0,0.375],"type":"VEC2"},{"bufferView":33,"componentType":5123,"count":6,"max":[5],"min":[0],"type":"SCALAR"},{"bufferView":34,"componentType":5123,"count":6,"max":[11],"min":[6],"type":"SCALAR"},{"bufferView":35,"componentType":5123,"count":6,"max":[17],"min":[12],"type":"SCALAR"},{"bufferView":36,"componentType":5123,"count":6,"max":[23],"min":[18],"type":"SCALAR"},{"bufferView":37,"componentType":5123,"count":6,"max":[29],"min":[24],"type":"SCALAR"},{"bufferView":38,"componentType":5123,"count":6,"max":[35],"min":[30],"type":"SCALAR"},{"bufferView":39,"componentType":5126,"count":36,"max":[-0.125,0.625,0.125],"min":[-0.1875,0,-0.0625],"type":"VEC3"},{"bufferView":40,"componentType":5126,"count":36,"max":[1,1,1],"min":[-1,-1,-1],"type":"VEC3"},{"bufferView":41,"componentType":5126,"count":36,"max":[1,1],"min":[0,0.375],"type":"VEC2"},{"bufferView":42,"componentType":5123,"count":6,"max":[5],"min":[0],"type":"SCALAR"},{"bufferView":43,"componentType":5123,"count":6,"max":[11],"min":[6],"type":"SCALAR"},{"bufferView":44,"componentType":5123,"count":6,"max":[17],"min":[12],"type":"SCALAR"},{"bufferView":45,"componentType":5123,"count":6,"max":[23],"min":[18],"type":"SCALAR"},{"bufferView":46,"componentType":5123,"count":6,"max":[29],"min":[24],"type":"SCALAR"},{"bufferView":47,"componentType":5123,"count":6,"max":[35],"min":[30],"type":"SCALAR"}],"materials":[{"pbrMetallicRoughness":{"metallicFactor":0,"roughnessFactor":1,"baseColorTexture":{"index":0}},"alphaMode":"MASK","alphaCutoff":0.05,"doubleSided":true,"name":"text_barrel.png"},{"pbrMetallicRoughness":{"baseColorFactor":[1,0.9725490196078431,0.6,1],"metallicFactor":0,"roughnessFactor":1,"baseColorTexture":{"index":1}},"doubleSided":true}],"textures":[{"sampler":0,"source":0,"name":"text_barrel.png"},{"sampler":1,"source":1}],"samplers":[{"magFilter":9728,"minFilter":9728,"wrapS":33071,"wrapT":33071},{"magFilter":9728,"minFilter":9728,"wrapS":10497,"wrapT":10497}],"images":[{"mimeType":"image/png","uri":"data:image/png;base64,"},{"mimeType":"image/png","uri":"data:image/png;base64,"}],"meshes":[{"primitives":[{"mode":4,"attributes":{"POSITION":0,"NORMAL":1,"TEXCOORD_0":2},"indices":3,"material":0},{"mode":4,"attributes":{"POSITION":0,"NORMAL":1,"TEXCOORD_0":2},"indices":4,"material":0},{"mode":4,"attributes":{"POSITION":0,"NORMAL":1,"TEXCOORD_0":2},"indices":5,"material":0},{"mode":4,"attributes":{"POSITION":0,"NORMAL":1,"TEXCOORD_0":2},"indices":6,"material":1},{"mode":4,"attributes":{"POSITION":0,"NORMAL":1,"TEXCOORD_0":2},"indices":7,"material":0},{"mode":4,"attributes":{"POSITION":0,"NORMAL":1,"TEXCOORD_0":2},"indices":8,"material":0}]},{"primitives":[{"mode":4,"attributes":{"POSITION":9,"NORMAL":10,"TEXCOORD_0":11},"material":0}]},{"primitives":[{"mode":4,"attributes":{"POSITION":12,"NORMAL":13,"TEXCOORD_0":14},"indices":15,"material":0},{"mode":4,"attributes":{"POSITION":12,"NORMAL":13,"TEXCOORD_0":14},"indices":16,"material":0},{"mode":4,"attributes":{"POSITION":12,"NORMAL":13,"TEXCOORD_0":14},"indices":17,"material":0},{"mode":4,"attributes":{"POSITION":12,"NORMAL":13,"TEXCOORD_0":14},"indices":18,"material":0},{"mode":4,"attributes":{"POSITION":12,"NORMAL":13,"TEXCOORD_0":14},"indices":19,"material":0},{"mode":4,"attributes":{"POSITION":12,"NORMAL":13,"TEXCOORD_0":14},"indices":20,"material":1}]},{"primitives":[{"mode":4,"attributes":{"POSITION":21,"NORMAL":22,"TEXCOORD_0":23},"indices":24,"material":0},{"mode":4,"attributes":{"POSITION":21,"NORMAL":22,"TEXCOORD_0":23},"indices":25,"material":1},{"mode":4,"attributes":{"POSITION":21,"NORMAL":22,"TEXCOORD_0":23},"indices":26,"material":0},{"mode":4,"attributes":{"POSITION":21,"NORMAL":22,"TEXCOORD_0":23},"indices":27,"material":0},{"mode":4,"attributes":{"POSITION":21,"NORMAL":22,"TEXCOORD_0":23},"indices":28,"material":0},{"mode":4,"attributes":{"POSITION":21,"NORMAL":22,"TEXCOORD_0":23},"indices":29,"material":0}]},{"primitives":[{"mode":4,"attributes":{"POSITION":30,"NORMAL":31,"TEXCOORD_0":32},"indices":33,"material":0},{"mode":4,"attributes":{"POSITION":30,"NORMAL":31,"TEXCOORD_0":32},"indices":34,"material":0},{"mode":4,"attributes":{"POSITION":30,"NORMAL":31,"TEXCOORD_0":32},"indices":35,"material":0},{"mode":4,"attributes":{"POSITION":30,"NORMAL":31,"TEXCOORD_0":32},"indices":36,"material":0},{"mode":4,"attributes":{"POSITION":30,"NORMAL":31,"TEXCOORD_0":32},"indices":37,"material":1},{"mode":4,"attributes":{"POSITION":30,"NORMAL":31,"TEXCOORD_0":32},"indices":38,"material":0}]},{"primitives":[{"mode":4,"attributes":{"POSITION":39,"NORMAL":40,"TEXCOORD_0":41},"indices":42,"material":1},{"mode":4,"attributes":{"POSITION":39,"NORMAL":40,"TEXCOORD_0":41},"indices":43,"material":0},{"mode":4,"attributes":{"POSITION":39,"NORMAL":40,"TEXCOORD_0":41},"indices":44,"material":0},{"mode":4,"attributes":{"POSITION":39,"NORMAL":40,"TEXCOORD_0":41},"indices":45,"material":0},{"mode":4,"attributes":{"POSITION":39,"NORMAL":40,"TEXCOORD_0":41},"indices":46,"material":0},{"mode":4,"attributes":{"POSITION":39,"NORMAL":40,"TEXCOORD_0":41},"indices":47,"material":0}]}]}