{"asset":{"version":"2.0","generator":"Blockbench 3.8.4 glTF exporter"},"scenes":[{"nodes":[0,1,2,3,4,5,6,7],"name":"blockbench_export"}],"scene":0,"nodes":[{"name":"427accb5-659a-6a4f-1bce-3e58a65d5d5d","mesh":0},{"rotation":[-0.01745240643728351,0,0,0.9998476951563913],"translation":[0.018750000000000006,0.19687499999999986,0.03125],"name":"6f337af9-dea0-ad38-3161-d7444f9c8cee","mesh":1},{"rotation":[-0.02617694830787315,0,0,0.9996573249755573],"translation":[0.018750000000000006,0.44999999999999984,0.03125],"name":"64452adb-02f4-3f8c-cace-61a0f253dbd9","mesh":2},{"rotation":[0.03489949670250097,0,0,0.9993908270190958],"translation":[0.018750000000000006,0.44999999999999984,0.03125],"name":"1127985e-7574-018c-ee3d-19b55b023257","mesh":3},{"name":"e6a5b784-4ba0-b15c-967a-8f761e88a81a","mesh":4},{"name":"568c2e3d-807a-fce3-52f7-bfb3888e849a","mesh":5},{"name":"a1bc8858-2cfd-0977-005e-dc3e105fe4e0","mesh":6},{"name":"09f148f4-85ae-3e4a-e1e9-16820bebc5a9","mesh":7}],"bufferViews":[{"buffer":0,"byteOffset":0,"byteLength":432,"target":34962,"byteStride":12},{"buffer":0,"byteOffset":432,"byteLength":432,"target":34962,"byteStride":12},{"buffer":0,"byteOffset":864,"byteLength":288,"target":34962,"byteStride":8},{"buffer":0,"byteOffset":1152,"byteLength":432,"target":34962,"byteStride":12},{"buffer":0,"byteOffset":1584,"byteLength":432,"target":34962,"byteStride":12},{"buffer":0,"byteOffset":2016,"byteLength":288,"target":34962,"byteStride":8},{"buffer":0,"byteOffset":2304,"byteLength":432,"target":34962,"byteStride":12},{"buffer":0,"byteOffset":2736,"byteLength":432,"target":34962,"byteStride":12},{"buffer":0,"byteOffset":3168,"byteLength":288,"target":34962,"byteStride":8},{"buffer":0,"byteOffset":3456,"byteLength":432,"target":34962,"byteStride":12},{"buffer":0,"byteOffset":3888,"byteLength":432,"target":34962,"byteStride":12},{"buffer":0,"byteOffset":4320,"byteLength":288,"target":34962,"byteStride":8},{"buffer":0,"byteOffset":4608,"byteLength":432,"target":34962,"byteStride":12},{"buffer":0,"byteOffset":5040,"byteLength":432,"target":34962,"byteStride":12},{"buffer":0,"byteOffset":5472,"byteLength":288,"target":34962,"byteStride":8},{"buffer":0,"byteOffset":5760,"byteLength":432,"target":34962,"byteStride":12},{"buffer":0,"byteOffset":6192,"byteLength":432,"target":34962,"byteStride":12},{"buffer":0,"byteOffset":6624,"byteLength":288,"target":34962,"byteStride":8},{"buffer":0,"byteOffset":6912,"byteLength":432,"target":34962,"byteStride":12},{"buffer":0,"byteOffset":7344,"byteLength":432,"target":34962,"byteStride":12},{"buffer":0,"byteOffset":7776,"byteLength":288,"target":34962,"byteStride":8},{"buffer":0,"byteOffset":8064,"byteLength":432,"target":34962,"byteStride":12},{"buffer":0,"byteOffset":8496,"byteLength":432,"target":34962,"byteStride":12},{"buffer":0,"byteOffset":8928,"byteLength":288,"target":34962,"byteStride":8}],"buffers":[{"byteLength":9216,"uri":"data:application/octet-stream;base64,"}],"accessors":[{"bufferView":0,"componentType":5126,"count":36,"max":[0.05000000074505806,0.6000000238418579,0.3125],"min":[0.012500000186264515,0.03750000149011612,-0.25],"type":"VEC3"},{"bufferView":1,"componentType":5126,"count":36,"max":[1,1,1],"min":[-1,-1,-1],"type":"VEC3"},{"bufferView":2,"componentType":5126,"count":36,"max":[0.5625,1],"min":[0,0.4375],"type":"VEC2"},{"bufferView":3,"componentType":5126,"count":36,"max":[0.01875000074505806,-0.00937500037252903,0.29374998807907104],"min":[-0.01875000074505806,-0.11562500149011612,-0.30000001192092896],"type":"VEC3"},{"bufferView":4,"componentType":5126,"count":36,"max":[1,1,1],"min":[-1,-1,-1],"type":"VEC3"},{"bufferView":5,"componentType":5126,"count":36,"max":[0.59375,1],"min":[0,0.01875000074505806],"type":"VEC2"},{"bufferView":6,"componentType":5126,"count":36,"max":[0.01875000074505806,0.10625000298023224,0.3062500059604645],"min":[-0.01875000074505806,-0.0062500000931322575,-0.2874999940395355],"type":"VEC3"},{"bufferView":7,"componentType":5126,"count":36,"max":[1,1,1],"min":[-1,-1,-1],"type":"VEC3"},{"bufferView":8,"componentType":5126,"count":36,"max":[0.71875,1],"min":[0,0.012500000186264515],"type":"VEC2"},{"bufferView":9,"componentType":5126,"count":36,"max":[0.01875000074505806,-0.08124999701976776,0.3062500059604645],"min":[-0.01875000074505806,-0.19374999403953552,-0.2874999940395355],"type":"VEC3"},{"bufferView":10,"componentType":5126,"count":36,"max":[1,1,1],"min":[-1,-1,-1],"type":"VEC3"},{"bufferView":11,"componentType":5126,"count":36,"max":[0.90625,1],"min":[0,0.012500000186264515],"type":"VEC2"},{"bufferView":12,"componentType":5126,"count":36,"max":[0.0625,0.637499988079071,0.3499999940395355],"min":[-0.012500000186264515,0,0.3125],"type":"VEC3"},{"bufferView":13,"componentType":5126,"count":36,"max":[1,1,1],"min":[-1,-1,-1],"type":"VEC3"},{"bufferView":14,"componentType":5126,"count":36,"max":[0.637499988079071,1],"min":[0,0.36250001192092896],"type":"VEC2"},{"bufferView":15,"componentType":5126,"count":36,"max":[0.0625,0.03750000149011612,0.3125],"min":[-0.012500000186264515,0,-0.25],"type":"VEC3"},{"bufferView":16,"componentType":5126,"count":36,"max":[1,1,1],"min":[-1,-1,-1],"type":"VEC3"},{"bufferView":17,"componentType":5126,"count":36,"max":[0.5625,1],"min":[0,0.4375],"type":"VEC2"},{"bufferView":18,"componentType":5126,"count":36,"max":[0.0625,0.637499988079071,-0.25],"min":[-0.012500000186264515,0,-0.2874999940395355],"type":"VEC3"},{"bufferView":19,"componentType":5126,"count":36,"max":[1,1,1],"min":[-1,-1,-1],"type":"VEC3"},{"bufferView":20,"componentType":5126,"count":36,"max":[0.637499988079071,1],"min":[0,0.36250001192092896],"type":"VEC2"},{"bufferView":21,"componentType":5126,"count":36,"max":[0.0625,0.637499988079071,0.3125],"min":[-0.012500000186264515,0.6000000238418579,-0.25],"type":"VEC3"},{"bufferView":22,"componentType":5126,"count":36,"max":[1,1,1],"min":[-1,-1,-1],"type":"VEC3"},{"bufferView":23,"componentType":5126,"count":36,"max":[0.5625,1],"min":[0,0.4375],"type":"VEC2"}],"materials":[{"pbrMetallicRoughness":{"metallicFactor":0,"roughnessFactor":1,"baseColorTexture":{"index":0}},"alphaMode":"MASK","alphaCutoff":0.05,"doubleSided":true,"name":"wood.png"}],"textures":[{"sampler":0,"source":0,"name":"wood.png"}],"samplers":[{"magFilter":9728,"minFilter":9728,"wrapS":33071,"wrapT":33071}],"images":[{"mimeType":"image/png","uri":"data:image/png;base64,"}],"meshes":[{"primitives":[{"mode":4,"attributes":{"POSITION":0,"NORMAL":1,"TEXCOORD_0":2},"material":0}]},{"primitives":[{"mode":4,"attributes":{"POSITION":3,"NORMAL":4,"TEXCOORD_0":5},"material":0}]},{"primitives":[{"mode":4,"attributes":{"POSITION":6,"NORMAL":7,"TEXCOORD_0":8},"material":0}]},{"primitives":[{"mode":4,"attributes":{"POSITION":9,"NORMAL":10,"TEXCOORD_0":11},"material":0}]},{"primitives":[{"mode":4,"attributes":{"POSITION":12,"NORMAL":13,"TEXCOORD_0":14},"material":0}]},{"primitives":[{"mode":4,"attributes":{"POSITION":15,"NORMAL":16,"TEXCOORD_0":17},"material":0}]},{"primitives":[{"mode":4,"attributes":{"POSITION":18,"NORMAL":19,"TEXCOORD_0":20},"material":0}]},{"primitives":[{"mode":4,"attributes":{"POSITION":21,"NORMAL":22,"TEXCOORD_0":23},"material":0}]}]}