{"asset":{"version":"2.0","generator":"Blockbench 3.8.4 glTF exporter"},"scenes":[{"nodes":[2,3,4,5],"name":"blockbench_export"}],"scene":0,"nodes":[{"name":"a77be5bc-804f-37f5-e4dd-12b86e929fac","mesh":0},{"name":"029d65d1-8f52-625c-ad61-dc2a2621246b","mesh":1},{"name":"bone","children":[0,1]},{"name":"6cb98e94-173a-be3f-fc0a-a2715260bf47","mesh":2},{"name":"12c4cab4-057a-3b99-4e3c-82f8f6bd7633","mesh":3},{"name":"02d57456-258d-dde7-62d1-aa8e7c276841","mesh":4}],"bufferViews":[{"buffer":0,"byteOffset":0,"byteLength":432,"target":34962,"byteStride":12},{"buffer":0,"byteOffset":432,"byteLength":432,"target":34962,"byteStride":12},{"buffer":0,"byteOffset":864,"byteLength":288,"target":34962,"byteStride":8},{"buffer":0,"byteOffset":1152,"byteLength":288,"target":34962,"byteStride":12},{"buffer":0,"byteOffset":1440,"byteLength":288,"target":34962,"byteStride":12},{"buffer":0,"byteOffset":1728,"byteLength":192,"target":34962,"byteStride":8},{"buffer":0,"byteOffset":1920,"byteLength":12,"target":34963},{"buffer":0,"byteOffset":1932,"byteLength":12,"target":34963},{"buffer":0,"byteOffset":1944,"byteLength":12,"target":34963},{"buffer":0,"byteOffset":1956,"byteLength":12,"target":34963},{"buffer":0,"byteOffset":1968,"byteLength":288,"target":34962,"byteStride":12},{"buffer":0,"byteOffset":2256,"byteLength":288,"target":34962,"byteStride":12},{"buffer":0,"byteOffset":2544,"byteLength":192,"target":34962,"byteStride":8},{"buffer":0,"byteOffset":2736,"byteLength":12,"target":34963},{"buffer":0,"byteOffset":2748,"byteLength":12,"target":34963},{"buffer":0,"byteOffset":2760,"byteLength":12,"target":34963},{"buffer":0,"byteOffset":2772,"byteLength":12,"target":34963},{"buffer":0,"byteOffset":2784,"byteLength":288,"target":34962,"byteStride":12},{"buffer":0,"byteOffset":3072,"byteLength":288,"target":34962,"byteStride":12},{"buffer":0,"byteOffset":3360,"byteLength":192,"target":34962,"byteStride":8},{"buffer":0,"byteOffset":3552,"byteLength":12,"target":34963},{"buffer":0,"byteOffset":3564,"byteLength":12,"target":34963},{"buffer":0,"byteOffset":3576,"byteLength":12,"target":34963},{"buffer":0,"byteOffset":3588,"byteLength":12,"target":34963},{"buffer":0,"byteOffset":3600,"byteLength":288,"target":34962,"byteStride":12},{"buffer":0,"byteOffset":3888,"byteLength":288,"target":34962,"byteStride":12},{"buffer":0,"byteOffset":4176,"byteLength":192,"target":34962,"byteStride":8},{"buffer":0,"byteOffset":4368,"byteLength":12,"target":34963},{"buffer":0,"byteOffset":4380,"byteLength":12,"target":34963},{"buffer":0,"byteOffset":4392,"byteLength":12,"target":34963},{"buffer":0,"byteOffset":4404,"byteLength":12,"target":34963}],"buffers":[{"byteLength":4416,"uri":"data:application/octet-stream;base64,"}],"accessors":[{"bufferView":0,"componentType":5126,"count":36,"max":[0.125,0.8125,0.125],"min":[-0.125,0,-0.125],"type":"VEC3"},{"bufferView":1,"componentType":5126,"count":36,"max":[1,1,1],"min":[-1,-1,-1],"type":"VEC3"},{"bufferView":2,"componentType":5126,"count":36,"max":[1,1],"min":[0,0],"type":"VEC2"},{"bufferView":3,"componentType":5126,"count":24,"max":[0.15625,0.762499988079071,0.15625],"min":[-0.125,0.699999988079071,0.125],"type":"VEC3"},{"bufferView":4,"componentType":5126,"count":24,"max":[1,1,1],"min":[0,-1,0],"type":"VEC3"},{"bufferView":5,"componentType":5126,"count":24,"max":[0.3125,1],"min":[0,0.875],"type":"VEC2"},{"bufferView":6,"componentType":5123,"count":6,"max":[5],"min":[0],"type":"SCALAR"},{"bufferView":7,"componentType":5123,"count":6,"max":[11],"min":[6],"type":"SCALAR"},{"bufferView":8,"componentType":5123,"count":6,"max":[17],"min":[12],"type":"SCALAR"},{"bufferView":9,"componentType":5123,"count":6,"max":[23],"min":[18],"type":"SCALAR"},{"bufferView":10,"componentType":5126,"count":24,"max":[0.15625,0.762499988079071,0.125],"min":[0.125,0.699999988079071,-0.15625],"type":"VEC3"},{"bufferView":11,"componentType":5126,"count":24,"max":[1,1,0],"min":[0,-1,-1],"type":"VEC3"},{"bufferView":12,"componentType":5126,"count":24,"max":[0.625,1],"min":[0,0.859375],"type":"VEC2"},{"bufferView":13,"componentType":5123,"count":6,"max":[5],"min":[0],"type":"SCALAR"},{"bufferView":14,"componentType":5123,"count":6,"max":[11],"min":[6],"type":"SCALAR"},{"bufferView":15,"componentType":5123,"count":6,"max":[17],"min":[12],"type":"SCALAR"},{"bufferView":16,"componentType":5123,"count":6,"max":[23],"min":[18],"type":"SCALAR"},{"bufferView":17,"componentType":5126,"count":24,"max":[0.125,0.762499988079071,-0.125],"min":[-0.15625,0.699999988079071,-0.15625],"type":"VEC3"},{"bufferView":18,"componentType":5126,"count":24,"max":[0,1,0],"min":[-1,-1,-1],"type":"VEC3"},{"bufferView":19,"componentType":5126,"count":24,"max":[0.90625,1],"min":[0,0.8125],"type":"VEC2"},{"bufferView":20,"componentType":5123,"count":6,"max":[5],"min":[0],"type":"SCALAR"},{"bufferView":21,"componentType":5123,"count":6,"max":[11],"min":[6],"type":"SCALAR"},{"bufferView":22,"componentType":5123,"count":6,"max":[17],"min":[12],"type":"SCALAR"},{"bufferView":23,"componentType":5123,"count":6,"max":[23],"min":[18],"type":"SCALAR"},{"bufferView":24,"componentType":5126,"count":24,"max":[-0.125,0.762499988079071,0.15625],"min":[-0.15625,0.699999988079071,-0.125],"type":"VEC3"},{"bufferView":25,"componentType":5126,"count":24,"max":[0,1,1],"min":[-1,-1,0],"type":"VEC3"},{"bufferView":26,"componentType":5126,"count":24,"max":[0.59375,1],"min":[0,0.8125],"type":"VEC2"},{"bufferView":27,"componentType":5123,"count":6,"max":[5],"min":[0],"type":"SCALAR"},{"bufferView":28,"componentType":5123,"count":6,"max":[11],"min":[6],"type":"SCALAR"},{"bufferView":29,"componentType":5123,"count":6,"max":[17],"min":[12],"type":"SCALAR"},{"bufferView":30,"componentType":5123,"count":6,"max":[23],"min":[18],"type":"SCALAR"}],"materials":[{"pbrMetallicRoughness":{"metallicFactor":0,"roughnessFactor":1,"baseColorTexture":{"index":0}},"alphaMode":"MASK","alphaCutoff":0.05,"doubleSided":true,"name":"texture.png"}],"textures":[{"sampler":0,"source":0,"name":"texture.png"}],"samplers":[{"magFilter":9728,"minFilter":9728,"wrapS":33071,"wrapT":33071}],"images":[{"mimeType":"image/png","uri":"data:image/png;base64,"}],"meshes":[{"primitives":[{"mode":4,"attributes":{"POSITION":0,"NORMAL":1,"TEXCOORD_0":2},"material":0}]},{"primitives":[{"mode":4,"attributes":{"POSITION":3,"NORMAL":4,"TEXCOORD_0":5},"indices":6,"material":0},{"mode":4,"attributes":{"POSITION":3,"NORMAL":4,"TEXCOORD_0":5},"indices":7,"material":0},{"mode":4,"attributes":{"POSITION":3,"NORMAL":4,"TEXCOORD_0":5},"indices":8,"material":0},{"mode":4,"attributes":{"POSITION":3,"NORMAL":4,"TEXCOORD_0":5},"indices":9,"material":0}]},{"primitives":[{"mode":4,"attributes":{"POSITION":10,"NORMAL":11,"TEXCOORD_0":12},"indices":13,"material":0},{"mode":4,"attributes":{"POSITION":10,"NORMAL":11,"TEXCOORD_0":12},"indices":14,"material":0},{"mode":4,"attributes":{"POSITION":10,"NORMAL":11,"TEXCOORD_0":12},"indices":15,"material":0},{"mode":4,"attributes":{"POSITION":10,"NORMAL":11,"TEXCOORD_0":12},"indices":16,"material":0}]},{"primitives":[{"mode":4,"attributes":{"POSITION":17,"NORMAL":18,"TEXCOORD_0":19},"indices":20,"material":0},{"mode":4,"attributes":{"POSITION":17,"NORMAL":18,"TEXCOORD_0":19},"indices":21,"material":0},{"mode":4,"attributes":{"POSITION":17,"NORMAL":18,"TEXCOORD_0":19},"indices":22,"material":0},{"mode":4,"attributes":{"POSITION":17,"NORMAL":18,"TEXCOORD_0":19},"indices":23,"material":0}]},{"primitives":[{"mode":4,"attributes":{"POSITION":24,"NORMAL":25,"TEXCOORD_0":26},"indices":27,"material":0},{"mode":4,"attributes":{"POSITION":24,"NORMAL":25,"TEXCOORD_0":26},"indices":28,"material":0},{"mode":4,"attributes":{"POSITION":24,"NORMAL":25,"TEXCOORD_0":26},"indices":29,"material":0},{"mode":4,"attributes":{"POSITION":24,"NORMAL":25,"TEXCOORD_0":26},"indices":30,"material":0}]}]}