{"asset":{"version":"2.0","generator":"Blockbench 3.8.4 glTF exporter"},"scenes":[{"nodes":[8,10],"name":"blockbench_export"}],"scene":0,"nodes":[{"rotation":[0,0,0.7071067811865475,0.7071067811865476],"translation":[0.00104375000000001,-0.0031250000000000167,-0.016666666666666607],"name":"8a8df1dc-b94f-5131-2075-82582adb8f5f","mesh":0},{"name":"blade","children":[0]},{"translation":[-0.008331250000000012,0.006249999999999978,0.0020833333333333814],"name":"54712149-de38-0699-e2e9-fa864d754645","mesh":1},{"name":"handle1","children":[2]},{"translation":[-0.008331249999999901,-0.012500000000000011,0.0020833333333333814],"name":"5f2e4425-3a8d-dcd1-7c75-c64e4e3ba67d","mesh":2},{"name":"handle2","children":[4]},{"rotation":[0.8927044970365426,0.3789966573380487,-0.06917070888333546,0.23378543096158919],"translation":[0.05520624999999999,0.05312500000000003,0.2354166666666666],"name":"knife","children":[1,3,5]},{"rotation":[0,0.06540312923014306,0,0.9978589232386035],"translation":[0.14375,-0.03125,0.03125],"name":"504a7aab-f9bb-80fa-cded-37af4f3ffa2e","mesh":3},{"translation":[0.043750000000000004,0.03125,-0.043750000000000004],"name":"right_hand","children":[6,7]},{"rotation":[0,-0.061048539534856866,0,0.9981347984218669],"translation":[-0.06874999999999998,-0.03125,0.05625],"name":"ee65b76e-b65d-0532-7f68-a50de4f2c8c4","mesh":4},{"translation":[0.25625,0.03125,-0.05625],"name":"left_hand","children":[9]}],"bufferViews":[{"buffer":0,"byteOffset":0,"byteLength":432,"target":34962,"byteStride":12},{"buffer":0,"byteOffset":432,"byteLength":432,"target":34962,"byteStride":12},{"buffer":0,"byteOffset":864,"byteLength":288,"target":34962,"byteStride":8},{"buffer":0,"byteOffset":1152,"byteLength":12,"target":34963},{"buffer":0,"byteOffset":1164,"byteLength":12,"target":34963},{"buffer":0,"byteOffset":1176,"byteLength":12,"target":34963},{"buffer":0,"byteOffset":1188,"byteLength":12,"target":34963},{"buffer":0,"byteOffset":1200,"byteLength":12,"target":34963},{"buffer":0,"byteOffset":1212,"byteLength":12,"target":34963},{"buffer":0,"byteOffset":1224,"byteLength":432,"target":34962,"byteStride":12},{"buffer":0,"byteOffset":1656,"byteLength":432,"target":34962,"byteStride":12},{"buffer":0,"byteOffset":2088,"byteLength":288,"target":34962,"byteStride":8},{"buffer":0,"byteOffset":2376,"byteLength":432,"target":34962,"byteStride":12},{"buffer":0,"byteOffset":2808,"byteLength":432,"target":34962,"byteStride":12},{"buffer":0,"byteOffset":3240,"byteLength":288,"target":34962,"byteStride":8},{"buffer":0,"byteOffset":3528,"byteLength":432,"target":34962,"byteStride":12},{"buffer":0,"byteOffset":3960,"byteLength":432,"target":34962,"byteStride":12},{"buffer":0,"byteOffset":4392,"byteLength":288,"target":34962,"byteStride":8},{"buffer":0,"byteOffset":4680,"byteLength":432,"target":34962,"byteStride":12},{"buffer":0,"byteOffset":5112,"byteLength":432,"target":34962,"byteStride":12},{"buffer":0,"byteOffset":5544,"byteLength":288,"target":34962,"byteStride":8},{"buffer":0,"byteOffset":5832,"byteLength":4},{"buffer":0,"byteOffset":5836,"byteLength":16},{"buffer":0,"byteOffset":5852,"byteLength":4},{"buffer":0,"byteOffset":5856,"byteLength":12},{"buffer":0,"byteOffset":5868,"byteLength":12},{"buffer":0,"byteOffset":5880,"byteLength":48},{"buffer":0,"byteOffset":5928,"byteLength":12},{"buffer":0,"byteOffset":5940,"byteLength":48},{"buffer":0,"byteOffset":5988,"byteLength":4},{"buffer":0,"byteOffset":5992,"byteLength":16},{"buffer":0,"byteOffset":6008,"byteLength":4},{"buffer":0,"byteOffset":6012,"byteLength":12},{"buffer":0,"byteOffset":6024,"byteLength":8},{"buffer":0,"byteOffset":6032,"byteLength":32},{"buffer":0,"byteOffset":6064,"byteLength":16},{"buffer":0,"byteOffset":6080,"byteLength":64},{"buffer":0,"byteOffset":6144,"byteLength":20},{"buffer":0,"byteOffset":6164,"byteLength":80},{"buffer":0,"byteOffset":6244,"byteLength":20},{"buffer":0,"byteOffset":6264,"byteLength":60},{"buffer":0,"byteOffset":6324,"byteLength":12},{"buffer":0,"byteOffset":6336,"byteLength":48},{"buffer":0,"byteOffset":6384,"byteLength":12},{"buffer":0,"byteOffset":6396,"byteLength":36},{"buffer":0,"byteOffset":6432,"byteLength":16},{"buffer":0,"byteOffset":6448,"byteLength":64},{"buffer":0,"byteOffset":6512,"byteLength":16},{"buffer":0,"byteOffset":6528,"byteLength":48},{"buffer":0,"byteOffset":6576,"byteLength":16},{"buffer":0,"byteOffset":6592,"byteLength":64},{"buffer":0,"byteOffset":6656,"byteLength":16},{"buffer":0,"byteOffset":6672,"byteLength":48},{"buffer":0,"byteOffset":6720,"byteLength":12},{"buffer":0,"byteOffset":6732,"byteLength":48},{"buffer":0,"byteOffset":6780,"byteLength":16},{"buffer":0,"byteOffset":6796,"byteLength":64}],"buffers":[{"byteLength":6860,"uri":"data:application/octet-stream;base64,"}],"accessors":[{"bufferView":0,"componentType":5126,"count":36,"max":[0.012500000186264515,0.0062500000931322575,0],"min":[-0.0062500000931322575,0,-0.08749999850988388],"type":"VEC3"},{"bufferView":1,"componentType":5126,"count":36,"max":[1,1,1],"min":[-1,-1,-1],"type":"VEC3"},{"bufferView":2,"componentType":5126,"count":36,"max":[0.08749999850988388,1],"min":[0,0.9125000238418579],"type":"VEC2"},{"bufferView":3,"componentType":5123,"count":6,"max":[5],"min":[0],"type":"SCALAR"},{"bufferView":4,"componentType":5123,"count":6,"max":[11],"min":[6],"type":"SCALAR"},{"bufferView":5,"componentType":5123,"count":6,"max":[17],"min":[12],"type":"SCALAR"},{"bufferView":6,"componentType":5123,"count":6,"max":[23],"min":[18],"type":"SCALAR"},{"bufferView":7,"componentType":5123,"count":6,"max":[29],"min":[24],"type":"SCALAR"},{"bufferView":8,"componentType":5123,"count":6,"max":[35],"min":[30],"type":"SCALAR"},{"bufferView":9,"componentType":5126,"count":36,"max":[0.012500000186264515,0.00937500037252903,0.07500000298023224],"min":[0,-0.0031250000465661287,-0.01875000074505806],"type":"VEC3"},{"bufferView":10,"componentType":5126,"count":36,"max":[1,1,1],"min":[-1,-1,-1],"type":"VEC3"},{"bufferView":11,"componentType":5126,"count":36,"max":[0.09375,1],"min":[0,0.90625],"type":"VEC2"},{"bufferView":12,"componentType":5126,"count":36,"max":[0.012500000186264515,0.00937500037252903,0.07500000298023224],"min":[-1.1102230246251565e-16,-0.0031250000465661287,-0.01875000074505806],"type":"VEC3"},{"bufferView":13,"componentType":5126,"count":36,"max":[1,1,1],"min":[-1,-1,-1],"type":"VEC3"},{"bufferView":14,"componentType":5126,"count":36,"max":[0.09375,1],"min":[0,0.90625],"type":"VEC2"},{"bufferView":15,"componentType":5126,"count":36,"max":[-0.10625000298023224,0.0625,0.16875000298023224],"min":[-0.16875000298023224,0,-0.08124999701976776],"type":"VEC3"},{"bufferView":16,"componentType":5126,"count":36,"max":[1,1,1],"min":[-1,-1,-1],"type":"VEC3"},{"bufferView":17,"componentType":5126,"count":36,"max":[0.875,0.5],"min":[0.625,0],"type":"VEC2"},{"bufferView":18,"componentType":5126,"count":36,"max":[0.09375,0.0625,0.16249999403953552],"min":[0.03125,0,-0.08749999850988388],"type":"VEC3"},{"bufferView":19,"componentType":5126,"count":36,"max":[1,1,1],"min":[-1,-1,-1],"type":"VEC3"},{"bufferView":20,"componentType":5126,"count":36,"max":[0.875,0.5],"min":[0.625,0],"type":"VEC2"},{"bufferView":21,"componentType":5126,"count":1,"max":[0],"min":[0],"type":"SCALAR"},{"bufferView":22,"componentType":5126,"count":1,"max":[0.8927044868469238,0.37899667024612427,-0.06917070597410202,0.23378543555736542],"min":[0.8927044868469238,0.37899667024612427,-0.06917070597410202,0.23378543555736542],"type":"VEC4"},{"bufferView":23,"componentType":5126,"count":1,"max":[0],"min":[0],"type":"SCALAR"},{"bufferView":24,"componentType":5126,"count":1,"max":[0.05520625039935112,0.05312500149011612,0.23541666567325592],"min":[0.05520625039935112,0.05312500149011612,0.23541666567325592],"type":"VEC3"},{"bufferView":25,"componentType":5126,"count":3,"max":[2],"min":[0],"type":"SCALAR"},{"bufferView":26,"componentType":5126,"count":3,"max":[0.02617296203970909,0,0.0004568507429212332,1],"min":[0,-0.017446426674723625,0,0.9995050430297852],"type":"VEC4"},{"bufferView":27,"componentType":5126,"count":3,"max":[2],"min":[0],"type":"SCALAR"},{"bufferView":28,"componentType":5126,"count":3,"max":[0.01745174266397953,0.00872520636767149,0,1],"min":[0,0,-0.00015229904965963215,0.9998096227645874],"type":"VEC4"},{"bufferView":29,"componentType":5126,"count":1,"max":[0],"min":[0],"type":"SCALAR"},{"bufferView":30,"componentType":5126,"count":1,"max":[0.8927044868469238,0.37899667024612427,-0.06917070597410202,0.23378543555736542],"min":[0.8927044868469238,0.37899667024612427,-0.06917070597410202,0.23378543555736542],"type":"VEC4"},{"bufferView":31,"componentType":5126,"count":1,"max":[0],"min":[0],"type":"SCALAR"},{"bufferView":32,"componentType":5126,"count":1,"max":[0.05520625039935112,0.05312500149011612,0.23541666567325592],"min":[0.05520625039935112,0.05312500149011612,0.23541666567325592],"type":"VEC3"},{"bufferView":33,"componentType":5126,"count":2,"max":[0.375],"min":[0],"type":"SCALAR"},{"bufferView":34,"componentType":5126,"count":2,"max":[0.7372773289680481,0,0,1],"min":[0,0,0,0.6755902171134949],"type":"VEC4"},{"bufferView":35,"componentType":5126,"count":4,"max":[0.125],"min":[0],"type":"SCALAR"},{"bufferView":36,"componentType":5126,"count":4,"max":[0.751839816570282,0,0,1],"min":[0,0,0,0.659345805644989],"type":"VEC4"},{"bufferView":37,"componentType":5126,"count":5,"max":[0.375],"min":[0],"type":"SCALAR"},{"bufferView":38,"componentType":5126,"count":5,"max":[0.8660253882408142,0,0,1],"min":[0,0,0,-1],"type":"VEC4"},{"bufferView":39,"componentType":5126,"count":5,"max":[0.375],"min":[0],"type":"SCALAR"},{"bufferView":40,"componentType":5126,"count":5,"max":[0,0.038750000298023224,0],"min":[0,-0.015625,-0.03125],"type":"VEC3"},{"bufferView":41,"componentType":5126,"count":3,"max":[0.375],"min":[0],"type":"SCALAR"},{"bufferView":42,"componentType":5126,"count":3,"max":[0,0,0,1],"min":[0,0,0,1],"type":"VEC4"},{"bufferView":43,"componentType":5126,"count":3,"max":[0.375],"min":[0],"type":"SCALAR"},{"bufferView":44,"componentType":5126,"count":3,"max":[0,0,0],"min":[0,0,0],"type":"VEC3"},{"bufferView":45,"componentType":5126,"count":4,"max":[0.375],"min":[0],"type":"SCALAR"},{"bufferView":46,"componentType":5126,"count":4,"max":[1,0,0,1],"min":[0,0,0,6.123234262925839e-17],"type":"VEC4"},{"bufferView":47,"componentType":5126,"count":4,"max":[0.375],"min":[0],"type":"SCALAR"},{"bufferView":48,"componentType":5126,"count":4,"max":[0,0.01875000074505806,0],"min":[0,-0.007499999832361937,-0.03750000149011612],"type":"VEC3"},{"bufferView":49,"componentType":5126,"count":4,"max":[0.5],"min":[0],"type":"SCALAR"},{"bufferView":50,"componentType":5126,"count":4,"max":[0.8927044868469238,0.37899667024612427,-0.06917070597410202,0.23378543555736542],"min":[0.8210237622261047,-0.09168341010808945,-0.12168937921524048,-0.5501871109008789],"type":"VEC4"},{"bufferView":51,"componentType":5126,"count":4,"max":[0.5],"min":[0],"type":"SCALAR"},{"bufferView":52,"componentType":5126,"count":4,"max":[0.05520625039935112,0.05312500149011612,0.23541666567325592],"min":[0.05520625039935112,-0.015625,0.23541666567325592],"type":"VEC3"},{"bufferView":53,"componentType":5126,"count":3,"max":[0.5],"min":[0],"type":"SCALAR"},{"bufferView":54,"componentType":5126,"count":3,"max":[0.10821980983018875,0,0.011851996183395386,1],"min":[0,-0.10821980983018875,0,0.9881479740142822],"type":"VEC4"},{"bufferView":55,"componentType":5126,"count":4,"max":[0.5],"min":[0],"type":"SCALAR"},{"bufferView":56,"componentType":5126,"count":4,"max":[0.237685889005661,0,0,1],"min":[-0.3420201539993286,0,0,0.9396926164627075],"type":"VEC4"}],"materials":[{"pbrMetallicRoughness":{"metallicFactor":0,"roughnessFactor":1,"baseColorTexture":{"index":0}},"alphaMode":"MASK","alphaCutoff":0.05,"doubleSided":true,"name":"knife_blade.png"},{"pbrMetallicRoughness":{"baseColorFactor":[0.6352941176470588,0.9215686274509803,1,1],"metallicFactor":0,"roughnessFactor":1,"baseColorTexture":{"index":1}},"doubleSided":true},{"pbrMetallicRoughness":{"metallicFactor":0,"roughnessFactor":1,"baseColorTexture":{"index":2}},"alphaMode":"MASK","alphaCutoff":0.05,"doubleSided":true,"name":"knife_handle.png"}],"textures":[{"sampler":0,"source":0,"name":"knife_blade.png"},{"sampler":1,"source":1},{"sampler":2,"source":2,"name":"knife_handle.png"}],"samplers":[{"magFilter":9728,"minFilter":9728,"wrapS":33071,"wrapT":33071},{"magFilter":9728,"minFilter":9728,"wrapS":10497,"wrapT":10497},{"magFilter":9728,"minFilter":9728,"wrapS":33071,"wrapT":33071}],"images":[{"mimeType":"image/png","uri":"data:image/png;base64,"},{"mimeType":"image/png","uri":"data:image/png;base64,"},{"mimeType":"image/png","uri":"data:image/png;base64,"}],"meshes":[{"primitives":[{"mode":4,"attributes":{"POSITION":0,"NORMAL":1,"TEXCOORD_0":2},"indices":3,"material":0},{"mode":4,"attributes":{"POSITION":0,"NORMAL":1,"TEXCOORD_0":2},"indices":4,"material":0},{"mode":4,"attributes":{"POSITION":0,"NORMAL":1,"TEXCOORD_0":2},"indices":5,"material":0},{"mode":4,"attributes":{"POSITION":0,"NORMAL":1,"TEXCOORD_0":2},"indices":6,"material":0},{"mode":4,"attributes":{"POSITION":0,"NORMAL":1,"TEXCOORD_0":2},"indices":7,"material":1},{"mode":4,"attributes":{"POSITION":0,"NORMAL":1,"TEXCOORD_0":2},"indices":8,"material":0}]},{"primitives":[{"mode":4,"attributes":{"POSITION":9,"NORMAL":10,"TEXCOORD_0":11},"material":2}]},{"primitives":[{"mode":4,"attributes":{"POSITION":12,"NORMAL":13,"TEXCOORD_0":14},"material":2}]},{"primitives":[{"mode":4,"attributes":{"POSITION":15,"NORMAL":16,"TEXCOORD_0":17},"material":1}]},{"primitives":[{"mode":4,"attributes":{"POSITION":18,"NORMAL":19,"TEXCOORD_0":20},"material":1}]}],"animations":[{"name":"idle","samplers":[{"input":21,"output":22,"interpolation":"LINEAR"},{"input":23,"output":24,"interpolation":"LINEAR"},{"input":25,"output":26,"interpolation":"LINEAR"},{"input":27,"output":28,"interpolation":"LINEAR"}],"channels":[{"sampler":0,"target":{"node":6,"path":"rotation"}},{"sampler":1,"target":{"node":6,"path":"translation"}},{"sampler":2,"target":{"node":10,"path":"rotation"}},{"sampler":3,"target":{"node":8,"path":"rotation"}}]},{"name":"show","samplers":[{"input":29,"output":30,"interpolation":"LINEAR"},{"input":31,"output":32,"interpolation":"LINEAR"},{"input":33,"output":34,"interpolation":"LINEAR"},{"input":35,"output":36,"interpolation":"LINEAR"},{"input":37,"output":38,"interpolation":"LINEAR"},{"input":39,"output":40,"interpolation":"LINEAR"},{"input":41,"output":42,"interpolation":"LINEAR"},{"input":43,"output":44,"interpolation":"LINEAR"},{"input":45,"output":46,"interpolation":"LINEAR"},{"input":47,"output":48,"interpolation":"LINEAR"}],"channels":[{"sampler":0,"target":{"node":6,"path":"rotation"}},{"sampler":1,"target":{"node":6,"path":"translation"}},{"sampler":2,"target":{"node":10,"path":"rotation"}},{"sampler":3,"target":{"node":8,"path":"rotation"}},{"sampler":4,"target":{"node":5,"path":"rotation"}},{"sampler":5,"target":{"node":5,"path":"translation"}},{"sampler":6,"target":{"node":3,"path":"rotation"}},{"sampler":7,"target":{"node":3,"path":"translation"}},{"sampler":8,"target":{"node":1,"path":"rotation"}},{"sampler":9,"target":{"node":1,"path":"translation"}}]},{"name":"attack1","samplers":[{"input":49,"output":50,"interpolation":"LINEAR"},{"input":51,"output":52,"interpolation":"LINEAR"},{"input":53,"output":54,"interpolation":"LINEAR"},{"input":55,"output":56,"interpolation":"LINEAR"}],"channels":[{"sampler":0,"target":{"node":6,"path":"rotation"}},{"sampler":1,"target":{"node":6,"path":"translation"}},{"sampler":2,"target":{"node":10,"path":"rotation"}},{"sampler":3,"target":{"node":8,"path":"rotation"}}]}]}