{"asset":{"version":"2.0","generator":"Blockbench 3.8.4 glTF exporter"},"scenes":[{"nodes":[4,6],"name":"blockbench_export"}],"scene":0,"nodes":[{"rotation":[0,0.06540312923014306,0,0.9978589232386035],"translation":[0.1875,0,-0.0125],"name":"504a7aab-f9bb-80fa-cded-37af4f3ffa2e","mesh":0},{"rotation":[0,0.06540312923014306,0,0.9978589232386035],"name":"54712149-de38-0699-e2e9-fa864d754645","mesh":1},{"rotation":[0,0.06540312923014306,0,0.9978589232386035],"name":"8a8df1dc-b94f-5131-2075-82582adb8f5f","mesh":2},{"rotation":[0.5399779823517902,0.3663298046848598,-0.7037130073764537,0.2810947456357543],"translation":[-0.04375000000000007,0.25,-0.1],"name":"knife","children":[1,2]},{"name":"right_hand","children":[0,3]},{"rotation":[0,-0.061048539534856866,0,0.9981347984218669],"translation":[0.1875,0,0],"name":"ee65b76e-b65d-0532-7f68-a50de4f2c8c4","mesh":3},{"name":"left_hand","children":[5]}],"bufferViews":[{"buffer":0,"byteOffset":0,"byteLength":432,"target":34962,"byteStride":12},{"buffer":0,"byteOffset":432,"byteLength":432,"target":34962,"byteStride":12},{"buffer":0,"byteOffset":864,"byteLength":288,"target":34962,"byteStride":8},{"buffer":0,"byteOffset":1152,"byteLength":432,"target":34962,"byteStride":12},{"buffer":0,"byteOffset":1584,"byteLength":432,"target":34962,"byteStride":12},{"buffer":0,"byteOffset":2016,"byteLength":288,"target":34962,"byteStride":8},{"buffer":0,"byteOffset":2304,"byteLength":432,"target":34962,"byteStride":12},{"buffer":0,"byteOffset":2736,"byteLength":432,"target":34962,"byteStride":12},{"buffer":0,"byteOffset":3168,"byteLength":288,"target":34962,"byteStride":8},{"buffer":0,"byteOffset":3456,"byteLength":12,"target":34963},{"buffer":0,"byteOffset":3468,"byteLength":12,"target":34963},{"buffer":0,"byteOffset":3480,"byteLength":12,"target":34963},{"buffer":0,"byteOffset":3492,"byteLength":12,"target":34963},{"buffer":0,"byteOffset":3504,"byteLength":12,"target":34963},{"buffer":0,"byteOffset":3516,"byteLength":12,"target":34963},{"buffer":0,"byteOffset":3528,"byteLength":432,"target":34962,"byteStride":12},{"buffer":0,"byteOffset":3960,"byteLength":432,"target":34962,"byteStride":12},{"buffer":0,"byteOffset":4392,"byteLength":288,"target":34962,"byteStride":8},{"buffer":0,"byteOffset":4680,"byteLength":4},{"buffer":0,"byteOffset":4684,"byteLength":16},{"buffer":0,"byteOffset":4700,"byteLength":4},{"buffer":0,"byteOffset":4704,"byteLength":12},{"buffer":0,"byteOffset":4716,"byteLength":12},{"buffer":0,"byteOffset":4728,"byteLength":48},{"buffer":0,"byteOffset":4776,"byteLength":8},{"buffer":0,"byteOffset":4784,"byteLength":24},{"buffer":0,"byteOffset":4808,"byteLength":12},{"buffer":0,"byteOffset":4820,"byteLength":48},{"buffer":0,"byteOffset":4868,"byteLength":8},{"buffer":0,"byteOffset":4876,"byteLength":24},{"buffer":0,"byteOffset":4900,"byteLength":8},{"buffer":0,"byteOffset":4908,"byteLength":32},{"buffer":0,"byteOffset":4940,"byteLength":8},{"buffer":0,"byteOffset":4948,"byteLength":24},{"buffer":0,"byteOffset":4972,"byteLength":8},{"buffer":0,"byteOffset":4980,"byteLength":32},{"buffer":0,"byteOffset":5012,"byteLength":24},{"buffer":0,"byteOffset":5036,"byteLength":96},{"buffer":0,"byteOffset":5132,"byteLength":12},{"buffer":0,"byteOffset":5144,"byteLength":48},{"buffer":0,"byteOffset":5192,"byteLength":12},{"buffer":0,"byteOffset":5204,"byteLength":36},{"buffer":0,"byteOffset":5240,"byteLength":12},{"buffer":0,"byteOffset":5252,"byteLength":48},{"buffer":0,"byteOffset":5300,"byteLength":12},{"buffer":0,"byteOffset":5312,"byteLength":36},{"buffer":0,"byteOffset":5348,"byteLength":12},{"buffer":0,"byteOffset":5360,"byteLength":48},{"buffer":0,"byteOffset":5408,"byteLength":12},{"buffer":0,"byteOffset":5420,"byteLength":36}],"buffers":[{"byteLength":5456,"uri":"data:application/octet-stream;base64,"}],"accessors":[{"bufferView":0,"componentType":5126,"count":36,"max":[-0.10625000298023224,0.0625,0.16875000298023224],"min":[-0.16875000298023224,0,-0.01875000074505806],"type":"VEC3"},{"bufferView":1,"componentType":5126,"count":36,"max":[1,1,1],"min":[-1,-1,-1],"type":"VEC3"},{"bufferView":2,"componentType":5126,"count":36,"max":[0.1875,1],"min":[0,0.8125],"type":"VEC2"},{"bufferView":3,"componentType":5126,"count":36,"max":[-0.27859121561050415,0.169757679104805,0.15290960669517517],"min":[-0.3160912096500397,0.15100766718387604,0.05915961414575577],"type":"VEC3"},{"bufferView":4,"componentType":5126,"count":36,"max":[1,1,1],"min":[-1,-1,-1],"type":"VEC3"},{"bufferView":5,"componentType":5126,"count":36,"max":[0.09375,1],"min":[0,0.90625],"type":"VEC2"},{"bufferView":6,"componentType":5126,"count":36,"max":[-0.2848412096500397,0.16350767016410828,0.05915961414575577],"min":[-0.30984121561050415,0.15725767612457275,-0.028340386226773262],"type":"VEC3"},{"bufferView":7,"componentType":5126,"count":36,"max":[1,1,1],"min":[-1,-1,-1],"type":"VEC3"},{"bufferView":8,"componentType":5126,"count":36,"max":[0.08749999850988388,1],"min":[0,0.9125000238418579],"type":"VEC2"},{"bufferView":9,"componentType":5123,"count":6,"max":[5],"min":[0],"type":"SCALAR"},{"bufferView":10,"componentType":5123,"count":6,"max":[11],"min":[6],"type":"SCALAR"},{"bufferView":11,"componentType":5123,"count":6,"max":[17],"min":[12],"type":"SCALAR"},{"bufferView":12,"componentType":5123,"count":6,"max":[23],"min":[18],"type":"SCALAR"},{"bufferView":13,"componentType":5123,"count":6,"max":[29],"min":[24],"type":"SCALAR"},{"bufferView":14,"componentType":5123,"count":6,"max":[35],"min":[30],"type":"SCALAR"},{"bufferView":15,"componentType":5126,"count":36,"max":[0.09375,0.0625,0.16249999403953552],"min":[0.03125,0,-0.02500000037252903],"type":"VEC3"},{"bufferView":16,"componentType":5126,"count":36,"max":[1,1,1],"min":[-1,-1,-1],"type":"VEC3"},{"bufferView":17,"componentType":5126,"count":36,"max":[0.1875,1],"min":[0,0.8125],"type":"VEC2"},{"bufferView":18,"componentType":5126,"count":1,"max":[0],"min":[0],"type":"SCALAR"},{"bufferView":19,"componentType":5126,"count":1,"max":[0.5399779677391052,0.3663298189640045,-0.7037129998207092,0.2810947597026825],"min":[0.5399779677391052,0.3663298189640045,-0.7037129998207092,0.2810947597026825],"type":"VEC4"},{"bufferView":20,"componentType":5126,"count":1,"max":[0],"min":[0],"type":"SCALAR"},{"bufferView":21,"componentType":5126,"count":1,"max":[-0.04374999925494194,0.25,-0.10000000149011612],"min":[-0.04374999925494194,0.25,-0.10000000149011612],"type":"VEC3"},{"bufferView":22,"componentType":5126,"count":3,"max":[2],"min":[0],"type":"SCALAR"},{"bufferView":23,"componentType":5126,"count":3,"max":[0.02617296203970909,0,0.0004568507429212332,1],"min":[0,-0.017446426674723625,0,0.9995050430297852],"type":"VEC4"},{"bufferView":24,"componentType":5126,"count":2,"max":[2],"min":[0],"type":"SCALAR"},{"bufferView":25,"componentType":5126,"count":2,"max":[0,0,0],"min":[0,0,0],"type":"VEC3"},{"bufferView":26,"componentType":5126,"count":3,"max":[2],"min":[0],"type":"SCALAR"},{"bufferView":27,"componentType":5126,"count":3,"max":[0.01745174266397953,0.00872520636767149,0,1],"min":[0,0,-0.00015229904965963215,0.9998096227645874],"type":"VEC4"},{"bufferView":28,"componentType":5126,"count":2,"max":[2],"min":[0],"type":"SCALAR"},{"bufferView":29,"componentType":5126,"count":2,"max":[0,0,0],"min":[0,0,0],"type":"VEC3"},{"bufferView":30,"componentType":5126,"count":2,"max":[0.25],"min":[0],"type":"SCALAR"},{"bufferView":31,"componentType":5126,"count":2,"max":[0.6290742754936218,0.3663298189640045,-0.7037129998207092,0.2810947597026825],"min":[0.5399779677391052,0.17331849038600922,-0.7567219734191895,0.03997595235705376],"type":"VEC4"},{"bufferView":32,"componentType":5126,"count":2,"max":[0.25],"min":[0],"type":"SCALAR"},{"bufferView":33,"componentType":5126,"count":2,"max":[0.10000000149011612,0.25,-0.10000000149011612],"min":[-0.04374999925494194,0.1875,-0.10000000149011612],"type":"VEC3"},{"bufferView":34,"componentType":5126,"count":2,"max":[0.25],"min":[0],"type":"SCALAR"},{"bufferView":35,"componentType":5126,"count":2,"max":[0.7372773289680481,0,0,1],"min":[0,0,0,0.6755902171134949],"type":"VEC4"},{"bufferView":36,"componentType":5126,"count":6,"max":[0.25],"min":[0],"type":"SCALAR"},{"bufferView":37,"componentType":5126,"count":6,"max":[0.751839816570282,0,0,1],"min":[0,0,0,0.659345805644989],"type":"VEC4"},{"bufferView":38,"componentType":5126,"count":3,"max":[0.5],"min":[0],"type":"SCALAR"},{"bufferView":39,"componentType":5126,"count":3,"max":[0.6372829675674438,0.3663298189640045,-0.7037129998207092,0.2810947597026825],"min":[0.5399779677391052,0.1401577591896057,-0.7577770948410034,0.00031739624682813883],"type":"VEC4"},{"bufferView":40,"componentType":5126,"count":3,"max":[0.5],"min":[0],"type":"SCALAR"},{"bufferView":41,"componentType":5126,"count":3,"max":[0.16249999403953552,0.2874999940395355,-0.10000000149011612],"min":[-0.04374999925494194,0.25,-0.10000000149011612],"type":"VEC3"},{"bufferView":42,"componentType":5126,"count":3,"max":[0.5],"min":[0],"type":"SCALAR"},{"bufferView":43,"componentType":5126,"count":3,"max":[0.10821980983018875,0,0.011851996183395386,1],"min":[0,-0.10821980983018875,0,0.9881479740142822],"type":"VEC4"},{"bufferView":44,"componentType":5126,"count":3,"max":[0.5],"min":[0],"type":"SCALAR"},{"bufferView":45,"componentType":5126,"count":3,"max":[0,0,0],"min":[0,0,-0.04374999925494194],"type":"VEC3"},{"bufferView":46,"componentType":5126,"count":3,"max":[0.5],"min":[0],"type":"SCALAR"},{"bufferView":47,"componentType":5126,"count":3,"max":[0,0,0,1],"min":[0,-0.6156615018844604,0,0.7880107760429382],"type":"VEC4"},{"bufferView":48,"componentType":5126,"count":3,"max":[0.5],"min":[0],"type":"SCALAR"},{"bufferView":49,"componentType":5126,"count":3,"max":[0,0,0.14374999701976776],"min":[-0.09375,0,0],"type":"VEC3"}],"materials":[{"pbrMetallicRoughness":{"baseColorFactor":[0.6352941176470588,0.9215686274509803,1,1],"metallicFactor":0,"roughnessFactor":1,"baseColorTexture":{"index":0}},"doubleSided":true},{"pbrMetallicRoughness":{"metallicFactor":0,"roughnessFactor":1,"baseColorTexture":{"index":1}},"alphaMode":"MASK","alphaCutoff":0.05,"doubleSided":true,"name":"knife_handle.png"},{"pbrMetallicRoughness":{"metallicFactor":0,"roughnessFactor":1,"baseColorTexture":{"index":2}},"alphaMode":"MASK","alphaCutoff":0.05,"doubleSided":true,"name":"knife_blade.png"}],"textures":[{"sampler":0,"source":0},{"sampler":1,"source":1,"name":"knife_handle.png"},{"sampler":2,"source":2,"name":"knife_blade.png"}],"samplers":[{"magFilter":9728,"minFilter":9728,"wrapS":10497,"wrapT":10497},{"magFilter":9728,"minFilter":9728,"wrapS":33071,"wrapT":33071},{"magFilter":9728,"minFilter":9728,"wrapS":33071,"wrapT":33071}],"images":[{"mimeType":"image/png","uri":"data:image/png;base64,"},{"mimeType":"image/png","uri":"data:image/png;base64,"},{"mimeType":"image/png","uri":"data:image/png;base64,"}],"meshes":[{"primitives":[{"mode":4,"attributes":{"POSITION":0,"NORMAL":1,"TEXCOORD_0":2},"material":0}]},{"primitives":[{"mode":4,"attributes":{"POSITION":3,"NORMAL":4,"TEXCOORD_0":5},"material":1}]},{"primitives":[{"mode":4,"attributes":{"POSITION":6,"NORMAL":7,"TEXCOORD_0":8},"indices":9,"material":2},{"mode":4,"attributes":{"POSITION":6,"NORMAL":7,"TEXCOORD_0":8},"indices":10,"material":2},{"mode":4,"attributes":{"POSITION":6,"NORMAL":7,"TEXCOORD_0":8},"indices":11,"material":2},{"mode":4,"attributes":{"POSITION":6,"NORMAL":7,"TEXCOORD_0":8},"indices":12,"material":2},{"mode":4,"attributes":{"POSITION":6,"NORMAL":7,"TEXCOORD_0":8},"indices":13,"material":0},{"mode":4,"attributes":{"POSITION":6,"NORMAL":7,"TEXCOORD_0":8},"indices":14,"material":2}]},{"primitives":[{"mode":4,"attributes":{"POSITION":15,"NORMAL":16,"TEXCOORD_0":17},"material":0}]}],"animations":[{"name":"idle","samplers":[{"input":18,"output":19,"interpolation":"LINEAR"},{"input":20,"output":21,"interpolation":"LINEAR"},{"input":22,"output":23,"interpolation":"LINEAR"},{"input":24,"output":25,"interpolation":"LINEAR"},{"input":26,"output":27,"interpolation":"LINEAR"},{"input":28,"output":29,"interpolation":"LINEAR"}],"channels":[{"sampler":0,"target":{"node":3,"path":"rotation"}},{"sampler":1,"target":{"node":3,"path":"translation"}},{"sampler":2,"target":{"node":6,"path":"rotation"}},{"sampler":3,"target":{"node":6,"path":"translation"}},{"sampler":4,"target":{"node":4,"path":"rotation"}},{"sampler":5,"target":{"node":4,"path":"translation"}}]},{"name":"show","samplers":[{"input":30,"output":31,"interpolation":"LINEAR"},{"input":32,"output":33,"interpolation":"LINEAR"},{"input":34,"output":35,"interpolation":"LINEAR"},{"input":36,"output":37,"interpolation":"LINEAR"}],"channels":[{"sampler":0,"target":{"node":3,"path":"rotation"}},{"sampler":1,"target":{"node":3,"path":"translation"}},{"sampler":2,"target":{"node":6,"path":"rotation"}},{"sampler":3,"target":{"node":4,"path":"rotation"}}]},{"name":"attack1","samplers":[{"input":38,"output":39,"interpolation":"LINEAR"},{"input":40,"output":41,"interpolation":"LINEAR"},{"input":42,"output":43,"interpolation":"LINEAR"},{"input":44,"output":45,"interpolation":"LINEAR"},{"input":46,"output":47,"interpolation":"LINEAR"},{"input":48,"output":49,"interpolation":"LINEAR"}],"channels":[{"sampler":0,"target":{"node":3,"path":"rotation"}},{"sampler":1,"target":{"node":3,"path":"translation"}},{"sampler":2,"target":{"node":6,"path":"rotation"}},{"sampler":3,"target":{"node":6,"path":"translation"}},{"sampler":4,"target":{"node":4,"path":"rotation"}},{"sampler":5,"target":{"node":4,"path":"translation"}}]}]}