{"asset":{"version":"2.0","generator":"Blockbench 3.8.4 glTF exporter"},"scenes":[{"nodes":[1,17],"name":"blockbench_export"}],"scene":0,"nodes":[{"rotation":[0,-0.12186934340514746,0,0.992546151641322],"translation":[0.20000000000000012,0.03125,0.09375],"name":"55b770a8-eb3d-3db1-6aa3-4023f1556b6b","mesh":0},{"name":"bone","children":[0]},{"rotation":[0,0.043619387365336,0,0.9990482215818578],"translation":[0.03125000000000001,0.03125,0.09375],"name":"ba72d9d6-791c-f5ff-99e0-944b955b2f0b","mesh":1},{"translation":[0.03125,0,0],"name":"ddc7ef29-5ecd-215e-06a6-287b81eaed53","mesh":2},{"translation":[0.03125,0,0],"name":"ad99b502-a886-4034-575f-f62e83c7a7ff","mesh":3},{"translation":[0.03125,0,0],"name":"ff5ec757-c282-ca38-3e92-1ce1fef3bd46","mesh":4},{"translation":[-0.1,0.018750000000000003,-0.20625000000000007],"name":"bone","children":[3,4,5]},{"translation":[0.03125,0,0],"name":"58bf8a31-2534-b7c0-ff52-c1320cc07236","mesh":5},{"rotation":[0.008725206404749608,-0.017451741903123544,0.00015229904430700433,0.9998096240198643],"translation":[0.10000000000000003,6.938893903907228e-18,0.3562500000000003],"name":"7424c6dd-8a96-76a8-7956-433a79715970","mesh":6},{"rotation":[0.008726203218641756,0.008726203218641756,-0.00007615242180438042,0.9999238475781956],"translation":[0.12500000000000006,6.938893903907228e-18,0.3562500000000003],"name":"9e6a3eab-c2ac-9073-f36b-5e415bb5e701","mesh":7},{"translation":[0.03125,0,0],"name":"cc65b3be-e235-b698-25f6-65dbb8bc1752","mesh":8},{"translation":[0.03125,0,0],"name":"8473ee76-3658-779d-d2ff-58cebb6e2ab2","mesh":9},{"rotation":[-0.09584575252022398,0,0,0.9953961983671789],"translation":[0.03125,0,0],"name":"ab4ba989-1a02-372d-bff2-c6c5f39d425a","mesh":10},{"translation":[-0.1,0.018750000000000003,-0.20625000000000007],"name":"bone","children":[7,8,9,10,11,12]},{"rotation":[-0.008726535498373935,0,0,0.9999619230641713],"translation":[0.10625000000000004,-0.00625000000000004,0.2062500000000003],"name":"123ee574-d3c7-5d64-a1be-31d3c5ad9164","mesh":11},{"translation":[-0.1,0.018750000000000003,-0.20625000000000007],"name":"bone","children":[14]},{"rotation":[0.013089470967828724,0.004362935469454789,-0.00005711395389002479,0.9999048091102812],"translation":[0.125,0,0.3125],"name":"bone","children":[6,13,15]},{"name":"bone","children":[2,16]}],"bufferViews":[{"buffer":0,"byteOffset":0,"byteLength":432,"target":34962,"byteStride":12},{"buffer":0,"byteOffset":432,"byteLength":432,"target":34962,"byteStride":12},{"buffer":0,"byteOffset":864,"byteLength":288,"target":34962,"byteStride":8},{"buffer":0,"byteOffset":1152,"byteLength":432,"target":34962,"byteStride":12},{"buffer":0,"byteOffset":1584,"byteLength":432,"target":34962,"byteStride":12},{"buffer":0,"byteOffset":2016,"byteLength":288,"target":34962,"byteStride":8},{"buffer":0,"byteOffset":2304,"byteLength":432,"target":34962,"byteStride":12},{"buffer":0,"byteOffset":2736,"byteLength":432,"target":34962,"byteStride":12},{"buffer":0,"byteOffset":3168,"byteLength":288,"target":34962,"byteStride":8},{"buffer":0,"byteOffset":3456,"byteLength":432,"target":34962,"byteStride":12},{"buffer":0,"byteOffset":3888,"byteLength":432,"target":34962,"byteStride":12},{"buffer":0,"byteOffset":4320,"byteLength":288,"target":34962,"byteStride":8},{"buffer":0,"byteOffset":4608,"byteLength":432,"target":34962,"byteStride":12},{"buffer":0,"byteOffset":5040,"byteLength":432,"target":34962,"byteStride":12},{"buffer":0,"byteOffset":5472,"byteLength":288,"target":34962,"byteStride":8},{"buffer":0,"byteOffset":5760,"byteLength":432,"target":34962,"byteStride":12},{"buffer":0,"byteOffset":6192,"byteLength":432,"target":34962,"byteStride":12},{"buffer":0,"byteOffset":6624,"byteLength":288,"target":34962,"byteStride":8},{"buffer":0,"byteOffset":6912,"byteLength":432,"target":34962,"byteStride":12},{"buffer":0,"byteOffset":7344,"byteLength":432,"target":34962,"byteStride":12},{"buffer":0,"byteOffset":7776,"byteLength":288,"target":34962,"byteStride":8},{"buffer":0,"byteOffset":8064,"byteLength":432,"target":34962,"byteStride":12},{"buffer":0,"byteOffset":8496,"byteLength":432,"target":34962,"byteStride":12},{"buffer":0,"byteOffset":8928,"byteLength":288,"target":34962,"byteStride":8},{"buffer":0,"byteOffset":9216,"byteLength":432,"target":34962,"byteStride":12},{"buffer":0,"byteOffset":9648,"byteLength":432,"target":34962,"byteStride":12},{"buffer":0,"byteOffset":10080,"byteLength":288,"target":34962,"byteStride":8},{"buffer":0,"byteOffset":10368,"byteLength":432,"target":34962,"byteStride":12},{"buffer":0,"byteOffset":10800,"byteLength":432,"target":34962,"byteStride":12},{"buffer":0,"byteOffset":11232,"byteLength":288,"target":34962,"byteStride":8},{"buffer":0,"byteOffset":11520,"byteLength":432,"target":34962,"byteStride":12},{"buffer":0,"byteOffset":11952,"byteLength":432,"target":34962,"byteStride":12},{"buffer":0,"byteOffset":12384,"byteLength":288,"target":34962,"byteStride":8},{"buffer":0,"byteOffset":12672,"byteLength":432,"target":34962,"byteStride":12},{"buffer":0,"byteOffset":13104,"byteLength":432,"target":34962,"byteStride":12},{"buffer":0,"byteOffset":13536,"byteLength":288,"target":34962,"byteStride":8},{"buffer":0,"byteOffset":13824,"byteLength":8},{"buffer":0,"byteOffset":13832,"byteLength":32},{"buffer":0,"byteOffset":13864,"byteLength":8},{"buffer":0,"byteOffset":13872,"byteLength":24},{"buffer":0,"byteOffset":13896,"byteLength":4},{"buffer":0,"byteOffset":13900,"byteLength":16},{"buffer":0,"byteOffset":13916,"byteLength":4},{"buffer":0,"byteOffset":13920,"byteLength":12},{"buffer":0,"byteOffset":13932,"byteLength":20},{"buffer":0,"byteOffset":13952,"byteLength":80},{"buffer":0,"byteOffset":14032,"byteLength":20},{"buffer":0,"byteOffset":14052,"byteLength":60},{"buffer":0,"byteOffset":14112,"byteLength":16},{"buffer":0,"byteOffset":14128,"byteLength":64},{"buffer":0,"byteOffset":14192,"byteLength":20},{"buffer":0,"byteOffset":14212,"byteLength":60},{"buffer":0,"byteOffset":14272,"byteLength":12},{"buffer":0,"byteOffset":14284,"byteLength":48},{"buffer":0,"byteOffset":14332,"byteLength":4},{"buffer":0,"byteOffset":14336,"byteLength":12},{"buffer":0,"byteOffset":14348,"byteLength":12},{"buffer":0,"byteOffset":14360,"byteLength":48},{"buffer":0,"byteOffset":14408,"byteLength":4},{"buffer":0,"byteOffset":14412,"byteLength":12},{"buffer":0,"byteOffset":14424,"byteLength":12},{"buffer":0,"byteOffset":14436,"byteLength":48},{"buffer":0,"byteOffset":14484,"byteLength":4},{"buffer":0,"byteOffset":14488,"byteLength":12},{"buffer":0,"byteOffset":14500,"byteLength":12},{"buffer":0,"byteOffset":14512,"byteLength":48},{"buffer":0,"byteOffset":14560,"byteLength":12},{"buffer":0,"byteOffset":14572,"byteLength":36},{"buffer":0,"byteOffset":14608,"byteLength":20},{"buffer":0,"byteOffset":14628,"byteLength":80},{"buffer":0,"byteOffset":14708,"byteLength":24},{"buffer":0,"byteOffset":14732,"byteLength":72},{"buffer":0,"byteOffset":14804,"byteLength":4},{"buffer":0,"byteOffset":14808,"byteLength":16},{"buffer":0,"byteOffset":14824,"byteLength":4},{"buffer":0,"byteOffset":14828,"byteLength":12},{"buffer":0,"byteOffset":14840,"byteLength":20},{"buffer":0,"byteOffset":14860,"byteLength":80},{"buffer":0,"byteOffset":14940,"byteLength":20},{"buffer":0,"byteOffset":14960,"byteLength":60},{"buffer":0,"byteOffset":15020,"byteLength":16},{"buffer":0,"byteOffset":15036,"byteLength":64},{"buffer":0,"byteOffset":15100,"byteLength":16},{"buffer":0,"byteOffset":15116,"byteLength":48},{"buffer":0,"byteOffset":15164,"byteLength":36},{"buffer":0,"byteOffset":15200,"byteLength":144},{"buffer":0,"byteOffset":15344,"byteLength":16},{"buffer":0,"byteOffset":15360,"byteLength":48}],"buffers":[{"byteLength":15408,"uri":"data:application/octet-stream;base64,"}],"accessors":[{"bufferView":0,"componentType":5126,"count":36,"max":[0.01875000074505806,0.03125,0.21875],"min":[-0.04374999925494194,-0.03125,-0.09375],"type":"VEC3"},{"bufferView":1,"componentType":5126,"count":36,"max":[1,1,1],"min":[-1,-1,-1],"type":"VEC3"},{"bufferView":2,"componentType":5126,"count":36,"max":[0.3125,1],"min":[0,0.6875],"type":"VEC2"},{"bufferView":3,"componentType":5126,"count":36,"max":[0.05000000074505806,0.03125,0.15625],"min":[-0.012500000186264515,-0.03125,-0.15625],"type":"VEC3"},{"bufferView":4,"componentType":5126,"count":36,"max":[1,1,1],"min":[-1,-1,-1],"type":"VEC3"},{"bufferView":5,"componentType":5126,"count":36,"max":[0.3125,1],"min":[0,0.6875],"type":"VEC2"},{"bufferView":6,"componentType":5126,"count":36,"max":[0.05000118911266327,0.08124285936355591,0.2059773951768875],"min":[0.03750118985772133,0.06249286234378815,0.19347739219665527],"type":"VEC3"},{"bufferView":7,"componentType":5126,"count":36,"max":[1,1,1],"min":[-1,-1,-1],"type":"VEC3"},{"bufferView":8,"componentType":5126,"count":36,"max":[0.012500000186264515,1],"min":[0,0.981249988079071],"type":"VEC2"},{"bufferView":9,"componentType":5126,"count":36,"max":[0.05000118911266327,0.08124285936355591,0.15597738325595856],"min":[0.03750118985772133,0.06249286234378815,0.1434773951768875],"type":"VEC3"},{"bufferView":10,"componentType":5126,"count":36,"max":[1,1,1],"min":[-1,-1,-1],"type":"VEC3"},{"bufferView":11,"componentType":5126,"count":36,"max":[0.012500000186264515,1],"min":[0,0.981249988079071],"type":"VEC2"},{"bufferView":12,"componentType":5126,"count":36,"max":[0.06250119209289551,0.11874286085367203,0.2309773862361908],"min":[0.02500119060277939,0.08124285936355591,0.11847738921642303],"type":"VEC3"},{"bufferView":13,"componentType":5126,"count":36,"max":[1,1,1],"min":[-1,-1,-1],"type":"VEC3"},{"bufferView":14,"componentType":5126,"count":36,"max":[1,1],"min":[0,0],"type":"VEC2"},{"bufferView":15,"componentType":5126,"count":36,"max":[0.05625119060277939,0.06249286234378815,0.5684773921966553],"min":[0.03125118836760521,0.04374286159873009,0.062227390706539154],"type":"VEC3"},{"bufferView":16,"componentType":5126,"count":36,"max":[1,1,1],"min":[-1,-1,-1],"type":"VEC3"},{"bufferView":17,"componentType":5126,"count":36,"max":[0.5062500238418579,1],"min":[0,0.981249988079071],"type":"VEC2"},{"bufferView":18,"componentType":5126,"count":36,"max":[-0.031239287927746773,0.006257140543311834,0.050818122923374176],"min":[-0.04373928904533386,-0.006242859177291393,-0.04918187856674194],"type":"VEC3"},{"bufferView":19,"componentType":5126,"count":36,"max":[1,1,1],"min":[-1,-1,-1],"type":"VEC3"},{"bufferView":20,"componentType":5126,"count":36,"max":[0.012500000186264515,1],"min":[0,0.8999999761581421],"type":"VEC2"},{"bufferView":21,"componentType":5126,"count":36,"max":[-0.03123929351568222,0.006228587590157986,0.04918231442570686],"min":[-0.04373929277062416,-0.006271412596106529,-0.050817687064409256],"type":"VEC3"},{"bufferView":22,"componentType":5126,"count":36,"max":[1,1,1],"min":[-1,-1,-1],"type":"VEC3"},{"bufferView":23,"componentType":5126,"count":36,"max":[0.10000000149011612,1],"min":[0,0.987500011920929],"type":"VEC2"},{"bufferView":24,"componentType":5126,"count":36,"max":[0.06250119209289551,0.04374286159873009,0.3309773802757263],"min":[0.02500119060277939,0.00624286150559783,0.062227390706539154],"type":"VEC3"},{"bufferView":25,"componentType":5126,"count":36,"max":[1,1,1],"min":[-1,-1,-1],"type":"VEC3"},{"bufferView":26,"componentType":5126,"count":36,"max":[0.26875001192092896,1],"min":[0,0.9624999761581421],"type":"VEC2"},{"bufferView":27,"componentType":5126,"count":36,"max":[0.06250119209289551,0.04374286159873009,0.062227390706539154],"min":[0.02500119060277939,-0.012507138773798943,-0.037772610783576965],"type":"VEC3"},{"bufferView":28,"componentType":5126,"count":36,"max":[1,1,1],"min":[-1,-1,-1],"type":"VEC3"},{"bufferView":29,"componentType":5126,"count":36,"max":[0.04374999925494194,1],"min":[0,0.9437500238418579],"type":"VEC2"},{"bufferView":30,"componentType":5126,"count":36,"max":[0.06250119209289551,0.006295009050518274,0.13098104298114777],"min":[0.02500119060277939,-0.031204991042613983,-0.03776896372437477],"type":"VEC3"},{"bufferView":31,"componentType":5126,"count":36,"max":[1,1,1],"min":[-1,-1,-1],"type":"VEC3"},{"bufferView":32,"componentType":5126,"count":36,"max":[0.16875000298023224,1],"min":[0,0.9624999761581421],"type":"VEC2"},{"bufferView":33,"componentType":5126,"count":36,"max":[-0.0187488105148077,0.012497620657086372,0.03722730651497841],"min":[-0.04374881088733673,-0.012502379715442657,-0.03777269273996353],"type":"VEC3"},{"bufferView":34,"componentType":5126,"count":36,"max":[1,1,1],"min":[-1,-1,-1],"type":"VEC3"},{"bufferView":35,"componentType":5126,"count":36,"max":[0.07500000298023224,1],"min":[0,0.9750000238418579],"type":"VEC2"},{"bufferView":36,"componentType":5126,"count":2,"max":[0.3333333432674408],"min":[0],"type":"SCALAR"},{"bufferView":37,"componentType":5126,"count":2,"max":[0.013089470565319061,0.004362935665994883,-0.00005711395351681858,0.9999048113822937],"min":[0.013089470565319061,0.004362935665994883,-0.00005711395351681858,0.9999048113822937],"type":"VEC4"},{"bufferView":38,"componentType":5126,"count":2,"max":[0.3333333432674408],"min":[0],"type":"SCALAR"},{"bufferView":39,"componentType":5126,"count":2,"max":[0.125,0,0.3125],"min":[0.125,0,0.3125],"type":"VEC3"},{"bufferView":40,"componentType":5126,"count":1,"max":[0],"min":[0],"type":"SCALAR"},{"bufferView":41,"componentType":5126,"count":1,"max":[0,0,0,1],"min":[0,0,0,1],"type":"VEC4"},{"bufferView":42,"componentType":5126,"count":1,"max":[0],"min":[0],"type":"SCALAR"},{"bufferView":43,"componentType":5126,"count":1,"max":[-0.10000000149011612,0.01875000074505806,-0.20624999701976776],"min":[-0.10000000149011612,0.01875000074505806,-0.20624999701976776],"type":"VEC3"},{"bufferView":44,"componentType":5126,"count":5,"max":[1.4583333730697632],"min":[0],"type":"SCALAR"},{"bufferView":45,"componentType":5126,"count":5,"max":[0.5,0,0.06540312618017197,1],"min":[0,0,0,0.8660253882408142],"type":"VEC4"},{"bufferView":46,"componentType":5126,"count":5,"max":[1.4583333730697632],"min":[0],"type":"SCALAR"},{"bufferView":47,"componentType":5126,"count":5,"max":[0,0,0],"min":[0,-0.012500000186264515,0],"type":"VEC3"},{"bufferView":48,"componentType":5126,"count":4,"max":[1.5],"min":[0],"type":"SCALAR"},{"bufferView":49,"componentType":5126,"count":4,"max":[0.537299633026123,0,0,1],"min":[-0.026141073554754257,-0.0523180216550827,-0.001369995647110045,0.8433914184570312],"type":"VEC4"},{"bufferView":50,"componentType":5126,"count":5,"max":[1.5],"min":[0],"type":"SCALAR"},{"bufferView":51,"componentType":5126,"count":5,"max":[0.03125,0,0],"min":[0,0,-0.10000000149011612],"type":"VEC3"},{"bufferView":52,"componentType":5126,"count":3,"max":[1],"min":[0],"type":"SCALAR"},{"bufferView":53,"componentType":5126,"count":3,"max":[0.008726535364985466,0,0,1],"min":[-0.008726535364985466,0,0,0.9999619126319885],"type":"VEC4"},{"bufferView":54,"componentType":5126,"count":1,"max":[0],"min":[0],"type":"SCALAR"},{"bufferView":55,"componentType":5126,"count":1,"max":[0,0,0],"min":[0,0,0],"type":"VEC3"},{"bufferView":56,"componentType":5126,"count":3,"max":[1],"min":[0],"type":"SCALAR"},{"bufferView":57,"componentType":5126,"count":3,"max":[0.008726535364985466,0,0,1],"min":[-0.008726535364985466,0,0,0.9999619126319885],"type":"VEC4"},{"bufferView":58,"componentType":5126,"count":1,"max":[0],"min":[0],"type":"SCALAR"},{"bufferView":59,"componentType":5126,"count":1,"max":[0,0,0],"min":[0,0,0],"type":"VEC3"},{"bufferView":60,"componentType":5126,"count":3,"max":[0.25],"min":[0],"type":"SCALAR"},{"bufferView":61,"componentType":5126,"count":3,"max":[0.013089470565319061,0.004362935665994883,0.0002473681524861604,0.9999048113822937],"min":[-0.05669224634766579,0.004356291610747576,-0.00005711395351681858,0.9983821511268616],"type":"VEC4"},{"bufferView":62,"componentType":5126,"count":1,"max":[0],"min":[0],"type":"SCALAR"},{"bufferView":63,"componentType":5126,"count":1,"max":[0.125,0,0.3125],"min":[0.125,0,0.3125],"type":"VEC3"},{"bufferView":64,"componentType":5126,"count":3,"max":[0.2083333283662796],"min":[0],"type":"SCALAR"},{"bufferView":65,"componentType":5126,"count":3,"max":[0,0,0,1],"min":[-0.03489949554204941,0,0,0.9993908405303955],"type":"VEC4"},{"bufferView":66,"componentType":5126,"count":3,"max":[0.2083333283662796],"min":[0],"type":"SCALAR"},{"bufferView":67,"componentType":5126,"count":3,"max":[0,0,0],"min":[0,0,-0.04374999925494194],"type":"VEC3"},{"bufferView":68,"componentType":5126,"count":5,"max":[0.7916666865348816],"min":[0],"type":"SCALAR"},{"bufferView":69,"componentType":5126,"count":5,"max":[0,0,0,1],"min":[-0.03489949554204941,-0.0523180216550827,-0.001369995647110045,0.9982873201370239],"type":"VEC4"},{"bufferView":70,"componentType":5126,"count":6,"max":[0.7916666865348816],"min":[0],"type":"SCALAR"},{"bufferView":71,"componentType":5126,"count":6,"max":[0.03125,0,0],"min":[0,0,-0.10000000149011612],"type":"VEC3"},{"bufferView":72,"componentType":5126,"count":1,"max":[0],"min":[0],"type":"SCALAR"},{"bufferView":73,"componentType":5126,"count":1,"max":[0.013089470565319061,0.004362935665994883,-0.00005711395351681858,0.9999048113822937],"min":[0.013089470565319061,0.004362935665994883,-0.00005711395351681858,0.9999048113822937],"type":"VEC4"},{"bufferView":74,"componentType":5126,"count":1,"max":[0],"min":[0],"type":"SCALAR"},{"bufferView":75,"componentType":5126,"count":1,"max":[0.125,0,0.3125],"min":[0.125,0,0.3125],"type":"VEC3"},{"bufferView":76,"componentType":5126,"count":5,"max":[2.0833332538604736],"min":[0],"type":"SCALAR"},{"bufferView":77,"componentType":5126,"count":5,"max":[0.11320321261882782,0,0,1],"min":[0,0,0,0.9935718774795532],"type":"VEC4"},{"bufferView":78,"componentType":5126,"count":5,"max":[2.0833332538604736],"min":[0],"type":"SCALAR"},{"bufferView":79,"componentType":5126,"count":5,"max":[-0.02500000037252903,0.01875000074505806,-0.20624999701976776],"min":[-0.10000000149011612,-0.06875000149011612,-0.26875001192092896],"type":"VEC3"},{"bufferView":80,"componentType":5126,"count":4,"max":[2.125],"min":[0],"type":"SCALAR"},{"bufferView":81,"componentType":5126,"count":4,"max":[0,0,0.24991299211978912,1],"min":[-0.05910399928689003,-0.01528533361852169,0,0.9663418531417847],"type":"VEC4"},{"bufferView":82,"componentType":5126,"count":4,"max":[2.125],"min":[0],"type":"SCALAR"},{"bufferView":83,"componentType":5126,"count":4,"max":[0,0,0],"min":[0,0,0],"type":"VEC3"},{"bufferView":84,"componentType":5126,"count":9,"max":[2.9583332538604736],"min":[0],"type":"SCALAR"},{"bufferView":85,"componentType":5126,"count":9,"max":[0.09466573596000671,0.1557142734527588,0,1],"min":[-0.06949102878570557,-0.08694343268871307,-0.014993579126894474,0.9831412434577942],"type":"VEC4"},{"bufferView":86,"componentType":5126,"count":4,"max":[2.9583332538604736],"min":[0],"type":"SCALAR"},{"bufferView":87,"componentType":5126,"count":4,"max":[0.03125,0,0],"min":[0,0,-0.10000000149011612],"type":"VEC3"}],"materials":[{"pbrMetallicRoughness":{"baseColorFactor":[0.9098039215686274,0.7411764705882353,0.4823529411764706,1],"metallicFactor":0,"roughnessFactor":1,"baseColorTexture":{"index":0}},"doubleSided":true},{"pbrMetallicRoughness":{"metallicFactor":0,"roughnessFactor":1,"baseColorTexture":{"index":1}},"alphaMode":"MASK","alphaCutoff":0.05,"doubleSided":true,"name":"steel"},{"pbrMetallicRoughness":{"metallicFactor":0,"roughnessFactor":1,"baseColorTexture":{"index":2}},"alphaMode":"MASK","alphaCutoff":0.05,"doubleSided":true,"name":"scope.png"},{"pbrMetallicRoughness":{"metallicFactor":0,"roughnessFactor":1,"baseColorTexture":{"index":3}},"alphaMode":"MASK","alphaCutoff":0.05,"doubleSided":true,"name":"texture"}],"textures":[{"sampler":0,"source":0},{"sampler":1,"source":1,"name":"steel"},{"sampler":2,"source":2,"name":"scope.png"},{"sampler":3,"source":3,"name":"texture"}],"samplers":[{"magFilter":9728,"minFilter":9728,"wrapS":10497,"wrapT":10497},{"magFilter":9728,"minFilter":9728,"wrapS":33071,"wrapT":33071},{"magFilter":9728,"minFilter":9728,"wrapS":33071,"wrapT":33071},{"magFilter":9728,"minFilter":9728,"wrapS":33071,"wrapT":33071}],"images":[{"mimeType":"image/png","uri":"data:image/png;base64,"},{"mimeType":"image/png","uri":"data:image/png;base64,"},{"mimeType":"image/png","uri":"data:image/png;base64,"},{"mimeType":"image/png","uri":"data:image/png;base64,"}],"meshes":[{"primitives":[{"mode":4,"attributes":{"POSITION":0,"NORMAL":1,"TEXCOORD_0":2},"material":0}]},{"primitives":[{"mode":4,"attributes":{"POSITION":3,"NORMAL":4,"TEXCOORD_0":5},"material":0}]},{"primitives":[{"mode":4,"attributes":{"POSITION":6,"NORMAL":7,"TEXCOORD_0":8},"material":1}]},{"primitives":[{"mode":4,"attributes":{"POSITION":9,"NORMAL":10,"TEXCOORD_0":11},"material":1}]},{"primitives":[{"mode":4,"attributes":{"POSITION":12,"NORMAL":13,"TEXCOORD_0":14},"material":2}]},{"primitives":[{"mode":4,"attributes":{"POSITION":15,"NORMAL":16,"TEXCOORD_0":17},"material":1}]},{"primitives":[{"mode":4,"attributes":{"POSITION":18,"NORMAL":19,"TEXCOORD_0":20},"material":1}]},{"primitives":[{"mode":4,"attributes":{"POSITION":21,"NORMAL":22,"TEXCOORD_0":23},"material":1}]},{"primitives":[{"mode":4,"attributes":{"POSITION":24,"NORMAL":25,"TEXCOORD_0":26},"material":3}]},{"primitives":[{"mode":4,"attributes":{"POSITION":27,"NORMAL":28,"TEXCOORD_0":29},"material":3}]},{"primitives":[{"mode":4,"attributes":{"POSITION":30,"NORMAL":31,"TEXCOORD_0":32},"material":3}]},{"primitives":[{"mode":4,"attributes":{"POSITION":33,"NORMAL":34,"TEXCOORD_0":35},"material":1}]}],"animations":[{"name":"show","samplers":[{"input":36,"output":37,"interpolation":"LINEAR"},{"input":38,"output":39,"interpolation":"LINEAR"},{"input":40,"output":41,"interpolation":"LINEAR"},{"input":42,"output":43,"interpolation":"LINEAR"},{"input":44,"output":45,"interpolation":"LINEAR"},{"input":46,"output":47,"interpolation":"LINEAR"},{"input":48,"output":49,"interpolation":"LINEAR"},{"input":50,"output":51,"interpolation":"LINEAR"}],"channels":[{"sampler":0,"target":{"node":16,"path":"rotation"}},{"sampler":1,"target":{"node":16,"path":"translation"}},{"sampler":2,"target":{"node":15,"path":"rotation"}},{"sampler":3,"target":{"node":15,"path":"translation"}},{"sampler":4,"target":{"node":17,"path":"rotation"}},{"sampler":5,"target":{"node":17,"path":"translation"}},{"sampler":6,"target":{"node":1,"path":"rotation"}},{"sampler":7,"target":{"node":1,"path":"translation"}}]},{"name":"idle","samplers":[{"input":52,"output":53,"interpolation":"LINEAR"},{"input":54,"output":55,"interpolation":"LINEAR"},{"input":56,"output":57,"interpolation":"LINEAR"},{"input":58,"output":59,"interpolation":"LINEAR"}],"channels":[{"sampler":0,"target":{"node":17,"path":"rotation"}},{"sampler":1,"target":{"node":17,"path":"translation"}},{"sampler":2,"target":{"node":1,"path":"rotation"}},{"sampler":3,"target":{"node":1,"path":"translation"}}]},{"name":"attack1","samplers":[{"input":60,"output":61,"interpolation":"LINEAR"},{"input":62,"output":63,"interpolation":"LINEAR"},{"input":64,"output":65,"interpolation":"LINEAR"},{"input":66,"output":67,"interpolation":"LINEAR"},{"input":68,"output":69,"interpolation":"LINEAR"},{"input":70,"output":71,"interpolation":"LINEAR"}],"channels":[{"sampler":0,"target":{"node":16,"path":"rotation"}},{"sampler":1,"target":{"node":16,"path":"translation"}},{"sampler":2,"target":{"node":17,"path":"rotation"}},{"sampler":3,"target":{"node":17,"path":"translation"}},{"sampler":4,"target":{"node":1,"path":"rotation"}},{"sampler":5,"target":{"node":1,"path":"translation"}}]},{"name":"reload","samplers":[{"input":72,"output":73,"interpolation":"LINEAR"},{"input":74,"output":75,"interpolation":"LINEAR"},{"input":76,"output":77,"interpolation":"LINEAR"},{"input":78,"output":79,"interpolation":"LINEAR"},{"input":80,"output":81,"interpolation":"LINEAR"},{"input":82,"output":83,"interpolation":"LINEAR"},{"input":84,"output":85,"interpolation":"LINEAR"},{"input":86,"output":87,"interpolation":"LINEAR"}],"channels":[{"sampler":0,"target":{"node":16,"path":"rotation"}},{"sampler":1,"target":{"node":16,"path":"translation"}},{"sampler":2,"target":{"node":15,"path":"rotation"}},{"sampler":3,"target":{"node":15,"path":"translation"}},{"sampler":4,"target":{"node":17,"path":"rotation"}},{"sampler":5,"target":{"node":17,"path":"translation"}},{"sampler":6,"target":{"node":1,"path":"rotation"}},{"sampler":7,"target":{"node":1,"path":"translation"}}]}]}