{"asset":{"version":"2.0","generator":"Blockbench 3.8.4 glTF exporter"},"scenes":[{"nodes":[0,1,2,3,4],"name":"blockbench_export"}],"scene":0,"nodes":[{"rotation":[0,-0.03489949670250097,0,0.9993908270190958],"translation":[-0.34375,0.3125,1.09375],"name":"8ffa5127-1c6c-c92d-fbd4-5799d78e85be","mesh":0},{"rotation":[0,0.043619387365336,0,0.9990482215818578],"translation":[0.21875,0.3125,1.09375],"name":"29d5abfa-4e82-0d99-1875-4324e367df99","mesh":1},{"rotation":[0,0.10886687485196457,0,0.9940563382223196],"translation":[-0.34375,0.3125,-0.34375],"name":"c2bc2447-cf34-7d4c-5881-d7d6691be792","mesh":2},{"rotation":[0,-0.06540312923014306,0,0.9978589232386035],"translation":[0.21875,0.3125,-0.34375],"name":"1e1b1a95-c10f-121b-a622-bbbbc777a9ab","mesh":3},{"name":"260a0ce3-836f-58b5-09f6-a5fdef9df205","mesh":4}],"bufferViews":[{"buffer":0,"byteOffset":0,"byteLength":432,"target":34962,"byteStride":12},{"buffer":0,"byteOffset":432,"byteLength":432,"target":34962,"byteStride":12},{"buffer":0,"byteOffset":864,"byteLength":288,"target":34962,"byteStride":8},{"buffer":0,"byteOffset":1152,"byteLength":432,"target":34962,"byteStride":12},{"buffer":0,"byteOffset":1584,"byteLength":432,"target":34962,"byteStride":12},{"buffer":0,"byteOffset":2016,"byteLength":288,"target":34962,"byteStride":8},{"buffer":0,"byteOffset":2304,"byteLength":432,"target":34962,"byteStride":12},{"buffer":0,"byteOffset":2736,"byteLength":432,"target":34962,"byteStride":12},{"buffer":0,"byteOffset":3168,"byteLength":288,"target":34962,"byteStride":8},{"buffer":0,"byteOffset":3456,"byteLength":432,"target":34962,"byteStride":12},{"buffer":0,"byteOffset":3888,"byteLength":432,"target":34962,"byteStride":12},{"buffer":0,"byteOffset":4320,"byteLength":288,"target":34962,"byteStride":8},{"buffer":0,"byteOffset":4608,"byteLength":432,"target":34962,"byteStride":12},{"buffer":0,"byteOffset":5040,"byteLength":432,"target":34962,"byteStride":12},{"buffer":0,"byteOffset":5472,"byteLength":288,"target":34962,"byteStride":8}],"buffers":[{"byteLength":5760,"uri":"data:application/octet-stream;base64,"}],"accessors":[{"bufferView":0,"componentType":5126,"count":36,"max":[0.28125,0.3125,-0.03125],"min":[-0.03125,-0.3125,-0.09375],"type":"VEC3"},{"bufferView":1,"componentType":5126,"count":36,"max":[1,1,1],"min":[-1,-1,-1],"type":"VEC3"},{"bufferView":2,"componentType":5126,"count":36,"max":[1,0.6875],"min":[0.625,0],"type":"VEC2"},{"bufferView":3,"componentType":5126,"count":36,"max":[0.03125,0.3125,-0.04374999925494194],"min":[-0.28125,-0.3125,-0.10625000298023224],"type":"VEC3"},{"bufferView":4,"componentType":5126,"count":36,"max":[1,1,1],"min":[-1,-1,-1],"type":"VEC3"},{"bufferView":5,"componentType":5126,"count":36,"max":[1,0.6875],"min":[0.625,0],"type":"VEC2"},{"bufferView":6,"componentType":5126,"count":36,"max":[0.28125,0.3125,0.03125],"min":[-0.03125,-0.3125,-0.03125],"type":"VEC3"},{"bufferView":7,"componentType":5126,"count":36,"max":[1,1,1],"min":[-1,-1,-1],"type":"VEC3"},{"bufferView":8,"componentType":5126,"count":36,"max":[1,0.6875],"min":[0.625,0],"type":"VEC2"},{"bufferView":9,"componentType":5126,"count":36,"max":[0.03125,0.3125,0.03125],"min":[-0.28125,-0.3125,-0.03125],"type":"VEC3"},{"bufferView":10,"componentType":5126,"count":36,"max":[1,1,1],"min":[-1,-1,-1],"type":"VEC3"},{"bufferView":11,"componentType":5126,"count":36,"max":[1,0.6875],"min":[0.625,0],"type":"VEC2"},{"bufferView":12,"componentType":5126,"count":36,"max":[0.25,0.625,1],"min":[-0.375,0,-0.3125],"type":"VEC3"},{"bufferView":13,"componentType":5126,"count":36,"max":[1,1,1],"min":[-1,-1,-1],"type":"VEC3"},{"bufferView":14,"componentType":5126,"count":36,"max":[1,1],"min":[0,0],"type":"VEC2"}],"materials":[{"pbrMetallicRoughness":{"metallicFactor":0,"roughnessFactor":1,"baseColorTexture":{"index":0}},"alphaMode":"MASK","alphaCutoff":0.05,"doubleSided":true,"name":"texture.png"}],"textures":[{"sampler":0,"source":0,"name":"texture.png"}],"samplers":[{"magFilter":9728,"minFilter":9728,"wrapS":33071,"wrapT":33071}],"images":[{"mimeType":"image/png","uri":"data:image/png;base64,"}],"meshes":[{"primitives":[{"mode":4,"attributes":{"POSITION":0,"NORMAL":1,"TEXCOORD_0":2},"material":0}]},{"primitives":[{"mode":4,"attributes":{"POSITION":3,"NORMAL":4,"TEXCOORD_0":5},"material":0}]},{"primitives":[{"mode":4,"attributes":{"POSITION":6,"NORMAL":7,"TEXCOORD_0":8},"material":0}]},{"primitives":[{"mode":4,"attributes":{"POSITION":9,"NORMAL":10,"TEXCOORD_0":11},"material":0}]},{"primitives":[{"mode":4,"attributes":{"POSITION":12,"NORMAL":13,"TEXCOORD_0":14},"material":0}]}]}