{"asset":{"version":"2.0","generator":"Blockbench 3.8.4 glTF exporter"},"scenes":[{"nodes":[1,3,5,10,15,17],"name":"blockbench_export"}],"scene":0,"nodes":[{"rotation":[-0.6821200069285499,-0.3228683662592803,-0.5165645533918424,0.4045112809254458],"translation":[-0.1875,0.6875,0],"name":"05842d41-a7c2-94d3-486e-31c9b341c0c7","mesh":0},{"name":"leftarm","children":[0]},{"rotation":[-0.8535533905932737,-0.3535533905932738,0.14644660940672627,0.35355339059327384],"translation":[0.1875,0.6875,0],"name":"ae2b36fb-c6ad-7631-e25c-1c7c98ed1861","mesh":1},{"name":"rightarm","children":[2]},{"translation":[0,0.5625,0],"name":"4ba0e3d5-194b-6750-02cb-9f07c4f1d7ec","mesh":2},{"name":"body","children":[4]},{"name":"803586d3-5c59-5c4a-ecc1-90fc9de4e1df","mesh":3},{"translation":[0,-0.1875,0],"name":"leftbottom","children":[6]},{"name":"d474966c-deb0-9397-e3d0-896daa58856d","mesh":4},{"name":"leftright","children":[8]},{"translation":[-0.0625,0.375,0],"name":"leftleg","children":[7,9]},{"name":"9de0b3a7-1aa1-ca2a-3758-006a846c1d6e","mesh":5},{"name":"upper","children":[11]},{"name":"4a55c667-1588-5e4e-3362-7ec2f6660ede","mesh":6},{"translation":[0,-0.1875,0],"name":"bottom","children":[13]},{"translation":[0.0625,0.375,0],"name":"rightreg","children":[12,14]},{"translation":[0,0.75,0],"name":"6047e46b-1df3-8fa2-ab97-a2a7bf2c010a","mesh":7},{"name":"head","children":[16]}],"bufferViews":[{"buffer":0,"byteOffset":0,"byteLength":432,"target":34962,"byteStride":12},{"buffer":0,"byteOffset":432,"byteLength":432,"target":34962,"byteStride":12},{"buffer":0,"byteOffset":864,"byteLength":288,"target":34962,"byteStride":8},{"buffer":0,"byteOffset":1152,"byteLength":432,"target":34962,"byteStride":12},{"buffer":0,"byteOffset":1584,"byteLength":432,"target":34962,"byteStride":12},{"buffer":0,"byteOffset":2016,"byteLength":288,"target":34962,"byteStride":8},{"buffer":0,"byteOffset":2304,"byteLength":432,"target":34962,"byteStride":12},{"buffer":0,"byteOffset":2736,"byteLength":432,"target":34962,"byteStride":12},{"buffer":0,"byteOffset":3168,"byteLength":288,"target":34962,"byteStride":8},{"buffer":0,"byteOffset":3456,"byteLength":432,"target":34962,"byteStride":12},{"buffer":0,"byteOffset":3888,"byteLength":432,"target":34962,"byteStride":12},{"buffer":0,"byteOffset":4320,"byteLength":288,"target":34962,"byteStride":8},{"buffer":0,"byteOffset":4608,"byteLength":432,"target":34962,"byteStride":12},{"buffer":0,"byteOffset":5040,"byteLength":432,"target":34962,"byteStride":12},{"buffer":0,"byteOffset":5472,"byteLength":288,"target":34962,"byteStride":8},{"buffer":0,"byteOffset":5760,"byteLength":432,"target":34962,"byteStride":12},{"buffer":0,"byteOffset":6192,"byteLength":432,"target":34962,"byteStride":12},{"buffer":0,"byteOffset":6624,"byteLength":288,"target":34962,"byteStride":8},{"buffer":0,"byteOffset":6912,"byteLength":432,"target":34962,"byteStride":12},{"buffer":0,"byteOffset":7344,"byteLength":432,"target":34962,"byteStride":12},{"buffer":0,"byteOffset":7776,"byteLength":288,"target":34962,"byteStride":8},{"buffer":0,"byteOffset":8064,"byteLength":432,"target":34962,"byteStride":12},{"buffer":0,"byteOffset":8496,"byteLength":432,"target":34962,"byteStride":12},{"buffer":0,"byteOffset":8928,"byteLength":288,"target":34962,"byteStride":8},{"buffer":0,"byteOffset":9216,"byteLength":4},{"buffer":0,"byteOffset":9220,"byteLength":16},{"buffer":0,"byteOffset":9236,"byteLength":4},{"buffer":0,"byteOffset":9240,"byteLength":12},{"buffer":0,"byteOffset":9252,"byteLength":4},{"buffer":0,"byteOffset":9256,"byteLength":16},{"buffer":0,"byteOffset":9272,"byteLength":4},{"buffer":0,"byteOffset":9276,"byteLength":12},{"buffer":0,"byteOffset":9288,"byteLength":4},{"buffer":0,"byteOffset":9292,"byteLength":16},{"buffer":0,"byteOffset":9308,"byteLength":4},{"buffer":0,"byteOffset":9312,"byteLength":12},{"buffer":0,"byteOffset":9324,"byteLength":4},{"buffer":0,"byteOffset":9328,"byteLength":16},{"buffer":0,"byteOffset":9344,"byteLength":4},{"buffer":0,"byteOffset":9348,"byteLength":12},{"buffer":0,"byteOffset":9360,"byteLength":20},{"buffer":0,"byteOffset":9380,"byteLength":80},{"buffer":0,"byteOffset":9460,"byteLength":20},{"buffer":0,"byteOffset":9480,"byteLength":80}],"buffers":[{"byteLength":9560,"uri":"data:application/octet-stream;base64,"}],"accessors":[{"bufferView":0,"componentType":5126,"count":36,"max":[0.0625,0.0625,0.0625],"min":[-0.0625,-0.3125,-0.0625],"type":"VEC3"},{"bufferView":1,"componentType":5126,"count":36,"max":[1,1,1],"min":[-1,-1,-1],"type":"VEC3"},{"bufferView":2,"componentType":5126,"count":36,"max":[1,1],"min":[0.75,0.5],"type":"VEC2"},{"bufferView":3,"componentType":5126,"count":36,"max":[0.0625,0.0625,0.0625],"min":[-0.0625,-0.3125,-0.0625],"type":"VEC3"},{"bufferView":4,"componentType":5126,"count":36,"max":[1,1,1],"min":[-1,-1,-1],"type":"VEC3"},{"bufferView":5,"componentType":5126,"count":36,"max":[0.875,1],"min":[0.625,0],"type":"VEC2"},{"bufferView":6,"componentType":5126,"count":36,"max":[0.125,0.1875,0.0625],"min":[-0.125,-0.1875,-0.0625],"type":"VEC3"},{"bufferView":7,"componentType":5126,"count":36,"max":[1,1,1],"min":[-1,-1,-1],"type":"VEC3"},{"bufferView":8,"componentType":5126,"count":36,"max":[0.625,0.5],"min":[0.25,0],"type":"VEC2"},{"bufferView":9,"componentType":5126,"count":36,"max":[0.0625,0,0.0625],"min":[-0.0625,-0.1875,-0.0625],"type":"VEC3"},{"bufferView":10,"componentType":5126,"count":36,"max":[1,1,1],"min":[-1,-1,-1],"type":"VEC3"},{"bufferView":11,"componentType":5126,"count":36,"max":[0.25,0.5],"min":[0,0],"type":"VEC2"},{"bufferView":12,"componentType":5126,"count":36,"max":[0.0625,0,0.0625],"min":[-0.0625,-0.1875,-0.0625],"type":"VEC3"},{"bufferView":13,"componentType":5126,"count":36,"max":[1,1,1],"min":[-1,-1,-1],"type":"VEC3"},{"bufferView":14,"componentType":5126,"count":36,"max":[0.25,0.5],"min":[0,0.1875],"type":"VEC2"},{"bufferView":15,"componentType":5126,"count":36,"max":[0.0625,0,0.0625],"min":[-0.0625,-0.1875,-0.0625],"type":"VEC3"},{"bufferView":16,"componentType":5126,"count":36,"max":[1,1,1],"min":[-1,-1,-1],"type":"VEC3"},{"bufferView":17,"componentType":5126,"count":36,"max":[0.75,1],"min":[0.5,0.6875],"type":"VEC2"},{"bufferView":18,"componentType":5126,"count":36,"max":[0.0625,0,0.0625],"min":[-0.0625,-0.1875,-0.0625],"type":"VEC3"},{"bufferView":19,"componentType":5126,"count":36,"max":[1,1,1],"min":[-1,-1,-1],"type":"VEC3"},{"bufferView":20,"componentType":5126,"count":36,"max":[0.75,1],"min":[0.5,0.5],"type":"VEC2"},{"bufferView":21,"componentType":5126,"count":36,"max":[0.125,0.25,0.125],"min":[-0.125,0,-0.125],"type":"VEC3"},{"bufferView":22,"componentType":5126,"count":36,"max":[1,1,1],"min":[-1,-1,-1],"type":"VEC3"},{"bufferView":23,"componentType":5126,"count":36,"max":[0.5,1],"min":[0,0.5],"type":"VEC2"},{"bufferView":24,"componentType":5126,"count":1,"max":[0],"min":[0],"type":"SCALAR"},{"bufferView":25,"componentType":5126,"count":1,"max":[0,0,0,1],"min":[0,0,0,1],"type":"VEC4"},{"bufferView":26,"componentType":5126,"count":1,"max":[0],"min":[0],"type":"SCALAR"},{"bufferView":27,"componentType":5126,"count":1,"max":[0,0,0],"min":[0,0,0],"type":"VEC3"},{"bufferView":28,"componentType":5126,"count":1,"max":[0],"min":[0],"type":"SCALAR"},{"bufferView":29,"componentType":5126,"count":1,"max":[0,0,0,1],"min":[0,0,0,1],"type":"VEC4"},{"bufferView":30,"componentType":5126,"count":1,"max":[0],"min":[0],"type":"SCALAR"},{"bufferView":31,"componentType":5126,"count":1,"max":[0.0625,0.375,0],"min":[0.0625,0.375,0],"type":"VEC3"},{"bufferView":32,"componentType":5126,"count":1,"max":[0],"min":[0],"type":"SCALAR"},{"bufferView":33,"componentType":5126,"count":1,"max":[0,0,0,1],"min":[0,0,0,1],"type":"VEC4"},{"bufferView":34,"componentType":5126,"count":1,"max":[0],"min":[0],"type":"SCALAR"},{"bufferView":35,"componentType":5126,"count":1,"max":[-0.0625,0.375,0],"min":[-0.0625,0.375,0],"type":"VEC3"},{"bufferView":36,"componentType":5126,"count":1,"max":[0],"min":[0],"type":"SCALAR"},{"bufferView":37,"componentType":5126,"count":1,"max":[0,0,0,1],"min":[0,0,0,1],"type":"VEC4"},{"bufferView":38,"componentType":5126,"count":1,"max":[0],"min":[0],"type":"SCALAR"},{"bufferView":39,"componentType":5126,"count":1,"max":[0,0,0],"min":[0,0,0],"type":"VEC3"},{"bufferView":40,"componentType":5126,"count":5,"max":[0.75],"min":[0],"type":"SCALAR"},{"bufferView":41,"componentType":5126,"count":5,"max":[0.4809887707233429,0,0,0.9997619986534119],"min":[-0.40274667739868164,0,0,0.8767267465591431],"type":"VEC4"},{"bufferView":42,"componentType":5126,"count":5,"max":[0.75],"min":[0],"type":"SCALAR"},{"bufferView":43,"componentType":5126,"count":5,"max":[0.3826834261417389,0,0,0.9940563440322876],"min":[-0.40274667739868164,0,0,0.9153114557266235],"type":"VEC4"}],"materials":[{"pbrMetallicRoughness":{"baseColorFactor":[0.7725490196078432,0.6509803921568628,0.9098039215686274,1],"metallicFactor":0,"roughnessFactor":1,"baseColorTexture":{"index":0}},"doubleSided":true},{"pbrMetallicRoughness":{"metallicFactor":0,"roughnessFactor":1,"baseColorTexture":{"index":1}},"alphaMode":"MASK","alphaCutoff":0.05,"doubleSided":true,"name":"skin.png"}],"textures":[{"sampler":0,"source":0},{"sampler":1,"source":1,"name":"skin.png"}],"samplers":[{"magFilter":9728,"minFilter":9728,"wrapS":10497,"wrapT":10497},{"magFilter":9728,"minFilter":9728,"wrapS":33071,"wrapT":33071}],"images":[{"mimeType":"image/png","uri":"data:image/png;base64,"},{"mimeType":"image/png","uri":"data:image/png;base64,"}],"meshes":[{"primitives":[{"mode":4,"attributes":{"POSITION":0,"NORMAL":1,"TEXCOORD_0":2},"material":0}]},{"primitives":[{"mode":4,"attributes":{"POSITION":3,"NORMAL":4,"TEXCOORD_0":5},"material":0}]},{"primitives":[{"mode":4,"attributes":{"POSITION":6,"NORMAL":7,"TEXCOORD_0":8},"material":1}]},{"primitives":[{"mode":4,"attributes":{"POSITION":9,"NORMAL":10,"TEXCOORD_0":11},"material":1}]},{"primitives":[{"mode":4,"attributes":{"POSITION":12,"NORMAL":13,"TEXCOORD_0":14},"material":1}]},{"primitives":[{"mode":4,"attributes":{"POSITION":15,"NORMAL":16,"TEXCOORD_0":17},"material":1}]},{"primitives":[{"mode":4,"attributes":{"POSITION":18,"NORMAL":19,"TEXCOORD_0":20},"material":1}]},{"primitives":[{"mode":4,"attributes":{"POSITION":21,"NORMAL":22,"TEXCOORD_0":23},"material":1}]}],"animations":[{"name":"idle","samplers":[{"input":24,"output":25,"interpolation":"LINEAR"},{"input":26,"output":27,"interpolation":"LINEAR"},{"input":28,"output":29,"interpolation":"LINEAR"},{"input":30,"output":31,"interpolation":"LINEAR"},{"input":32,"output":33,"interpolation":"LINEAR"},{"input":34,"output":35,"interpolation":"LINEAR"},{"input":36,"output":37,"interpolation":"LINEAR"},{"input":38,"output":39,"interpolation":"LINEAR"}],"channels":[{"sampler":0,"target":{"node":17,"path":"rotation"}},{"sampler":1,"target":{"node":17,"path":"translation"}},{"sampler":2,"target":{"node":15,"path":"rotation"}},{"sampler":3,"target":{"node":15,"path":"translation"}},{"sampler":4,"target":{"node":10,"path":"rotation"}},{"sampler":5,"target":{"node":10,"path":"translation"}},{"sampler":6,"target":{"node":5,"path":"rotation"}},{"sampler":7,"target":{"node":5,"path":"translation"}}]},{"name":"run","samplers":[{"input":40,"output":41,"interpolation":"LINEAR"},{"input":42,"output":43,"interpolation":"LINEAR"}],"channels":[{"sampler":0,"target":{"node":15,"path":"rotation"}},{"sampler":1,"target":{"node":10,"path":"rotation"}}]}]}