{"asset":{"version":"2.0","generator":"Blockbench 3.8.4 glTF exporter"},"scenes":[{"nodes":[1,3,6,11,16,18],"name":"blockbench_export"}],"scene":0,"nodes":[{"name":"05842d41-a7c2-94d3-486e-31c9b341c0c7","mesh":0},{"translation":[-0.125,0.6875,0],"name":"leftarm","children":[0]},{"name":"ae2b36fb-c6ad-7631-e25c-1c7c98ed1861","mesh":1},{"translation":[0.125,0.6875,0],"name":"rightarm","children":[2]},{"name":"4ba0e3d5-194b-6750-02cb-9f07c4f1d7ec","mesh":2},{"name":"67988aa9-4e66-ce58-5c21-fb5efdf9706e","mesh":3},{"translation":[0,0.5625,0],"name":"body","children":[4,5]},{"name":"803586d3-5c59-5c4a-ecc1-90fc9de4e1df","mesh":4},{"translation":[0,-0.1875,0],"name":"leftbottom","children":[7]},{"name":"d474966c-deb0-9397-e3d0-896daa58856d","mesh":5},{"name":"leftright","children":[9]},{"translation":[-0.0625,0.375,0],"name":"leftleg","children":[8,10]},{"name":"9de0b3a7-1aa1-ca2a-3758-006a846c1d6e","mesh":6},{"name":"upper","children":[12]},{"name":"4a55c667-1588-5e4e-3362-7ec2f6660ede","mesh":7},{"translation":[0,-0.1875,0],"name":"bottom","children":[14]},{"translation":[0.0625,0.375,0],"name":"rightreg","children":[13,15]},{"name":"6047e46b-1df3-8fa2-ab97-a2a7bf2c010a","mesh":8},{"translation":[0,0.75,0],"name":"head","children":[17]}],"bufferViews":[{"buffer":0,"byteOffset":0,"byteLength":432,"target":34962,"byteStride":12},{"buffer":0,"byteOffset":432,"byteLength":432,"target":34962,"byteStride":12},{"buffer":0,"byteOffset":864,"byteLength":288,"target":34962,"byteStride":8},{"buffer":0,"byteOffset":1152,"byteLength":432,"target":34962,"byteStride":12},{"buffer":0,"byteOffset":1584,"byteLength":432,"target":34962,"byteStride":12},{"buffer":0,"byteOffset":2016,"byteLength":288,"target":34962,"byteStride":8},{"buffer":0,"byteOffset":2304,"byteLength":432,"target":34962,"byteStride":12},{"buffer":0,"byteOffset":2736,"byteLength":432,"target":34962,"byteStride":12},{"buffer":0,"byteOffset":3168,"byteLength":288,"target":34962,"byteStride":8},{"buffer":0,"byteOffset":3456,"byteLength":432,"target":34962,"byteStride":12},{"buffer":0,"byteOffset":3888,"byteLength":432,"target":34962,"byteStride":12},{"buffer":0,"byteOffset":4320,"byteLength":288,"target":34962,"byteStride":8},{"buffer":0,"byteOffset":4608,"byteLength":432,"target":34962,"byteStride":12},{"buffer":0,"byteOffset":5040,"byteLength":432,"target":34962,"byteStride":12},{"buffer":0,"byteOffset":5472,"byteLength":288,"target":34962,"byteStride":8},{"buffer":0,"byteOffset":5760,"byteLength":432,"target":34962,"byteStride":12},{"buffer":0,"byteOffset":6192,"byteLength":432,"target":34962,"byteStride":12},{"buffer":0,"byteOffset":6624,"byteLength":288,"target":34962,"byteStride":8},{"buffer":0,"byteOffset":6912,"byteLength":432,"target":34962,"byteStride":12},{"buffer":0,"byteOffset":7344,"byteLength":432,"target":34962,"byteStride":12},{"buffer":0,"byteOffset":7776,"byteLength":288,"target":34962,"byteStride":8},{"buffer":0,"byteOffset":8064,"byteLength":432,"target":34962,"byteStride":12},{"buffer":0,"byteOffset":8496,"byteLength":432,"target":34962,"byteStride":12},{"buffer":0,"byteOffset":8928,"byteLength":288,"target":34962,"byteStride":8},{"buffer":0,"byteOffset":9216,"byteLength":432,"target":34962,"byteStride":12},{"buffer":0,"byteOffset":9648,"byteLength":432,"target":34962,"byteStride":12},{"buffer":0,"byteOffset":10080,"byteLength":288,"target":34962,"byteStride":8},{"buffer":0,"byteOffset":10368,"byteLength":4},{"buffer":0,"byteOffset":10372,"byteLength":16},{"buffer":0,"byteOffset":10388,"byteLength":4},{"buffer":0,"byteOffset":10392,"byteLength":12},{"buffer":0,"byteOffset":10404,"byteLength":4},{"buffer":0,"byteOffset":10408,"byteLength":16},{"buffer":0,"byteOffset":10424,"byteLength":4},{"buffer":0,"byteOffset":10428,"byteLength":12},{"buffer":0,"byteOffset":10440,"byteLength":4},{"buffer":0,"byteOffset":10444,"byteLength":16},{"buffer":0,"byteOffset":10460,"byteLength":4},{"buffer":0,"byteOffset":10464,"byteLength":12},{"buffer":0,"byteOffset":10476,"byteLength":4},{"buffer":0,"byteOffset":10480,"byteLength":16},{"buffer":0,"byteOffset":10496,"byteLength":4},{"buffer":0,"byteOffset":10500,"byteLength":12},{"buffer":0,"byteOffset":10512,"byteLength":20},{"buffer":0,"byteOffset":10532,"byteLength":80},{"buffer":0,"byteOffset":10612,"byteLength":20},{"buffer":0,"byteOffset":10632,"byteLength":80},{"buffer":0,"byteOffset":10712,"byteLength":12},{"buffer":0,"byteOffset":10724,"byteLength":48},{"buffer":0,"byteOffset":10772,"byteLength":12},{"buffer":0,"byteOffset":10784,"byteLength":36},{"buffer":0,"byteOffset":10820,"byteLength":4},{"buffer":0,"byteOffset":10824,"byteLength":16},{"buffer":0,"byteOffset":10840,"byteLength":4},{"buffer":0,"byteOffset":10844,"byteLength":12},{"buffer":0,"byteOffset":10856,"byteLength":4},{"buffer":0,"byteOffset":10860,"byteLength":16},{"buffer":0,"byteOffset":10876,"byteLength":4},{"buffer":0,"byteOffset":10880,"byteLength":12},{"buffer":0,"byteOffset":10892,"byteLength":4},{"buffer":0,"byteOffset":10896,"byteLength":16},{"buffer":0,"byteOffset":10912,"byteLength":12},{"buffer":0,"byteOffset":10924,"byteLength":36},{"buffer":0,"byteOffset":10960,"byteLength":12},{"buffer":0,"byteOffset":10972,"byteLength":48},{"buffer":0,"byteOffset":11020,"byteLength":4},{"buffer":0,"byteOffset":11024,"byteLength":12},{"buffer":0,"byteOffset":11036,"byteLength":12},{"buffer":0,"byteOffset":11048,"byteLength":48},{"buffer":0,"byteOffset":11096,"byteLength":4},{"buffer":0,"byteOffset":11100,"byteLength":12}],"buffers":[{"byteLength":11112,"uri":"data:application/octet-stream;base64,"}],"accessors":[{"bufferView":0,"componentType":5126,"count":36,"max":[0,0.0625,0.0625],"min":[-0.125,-0.3125,-0.0625],"type":"VEC3"},{"bufferView":1,"componentType":5126,"count":36,"max":[1,1,1],"min":[-1,-1,-1],"type":"VEC3"},{"bufferView":2,"componentType":5126,"count":36,"max":[0.875,0.5],"min":[0.625,0],"type":"VEC2"},{"bufferView":3,"componentType":5126,"count":36,"max":[0.125,0.0625,0.0625],"min":[0,-0.3125,-0.0625],"type":"VEC3"},{"bufferView":4,"componentType":5126,"count":36,"max":[1,1,1],"min":[-1,-1,-1],"type":"VEC3"},{"bufferView":5,"componentType":5126,"count":36,"max":[0.875,0.5],"min":[0.625,0],"type":"VEC2"},{"bufferView":6,"componentType":5126,"count":36,"max":[0.125,0.1875,0.0625],"min":[-0.125,-0.1875,-0.0625],"type":"VEC3"},{"bufferView":7,"componentType":5126,"count":36,"max":[1,1,1],"min":[-1,-1,-1],"type":"VEC3"},{"bufferView":8,"componentType":5126,"count":36,"max":[0.625,0.5],"min":[0.25,0],"type":"VEC2"},{"bufferView":9,"componentType":5126,"count":36,"max":[0.09375,0.15000000596046448,-0.0625],"min":[-0.09375,-0.23125000298023224,-0.15000000596046448],"type":"VEC3"},{"bufferView":10,"componentType":5126,"count":36,"max":[1,1,1],"min":[-1,-1,-1],"type":"VEC3"},{"bufferView":11,"componentType":5126,"count":36,"max":[1,1],"min":[0.625,0],"type":"VEC2"},{"bufferView":12,"componentType":5126,"count":36,"max":[0.0625,0,0.0625],"min":[-0.0625,-0.1875,-0.0625],"type":"VEC3"},{"bufferView":13,"componentType":5126,"count":36,"max":[1,1,1],"min":[-1,-1,-1],"type":"VEC3"},{"bufferView":14,"componentType":5126,"count":36,"max":[0.25,0.5],"min":[0,0],"type":"VEC2"},{"bufferView":15,"componentType":5126,"count":36,"max":[0.0625,0,0.0625],"min":[-0.0625,-0.1875,-0.0625],"type":"VEC3"},{"bufferView":16,"componentType":5126,"count":36,"max":[1,1,1],"min":[-1,-1,-1],"type":"VEC3"},{"bufferView":17,"componentType":5126,"count":36,"max":[0.25,0.5],"min":[0,0.1875],"type":"VEC2"},{"bufferView":18,"componentType":5126,"count":36,"max":[0.0625,0,0.0625],"min":[-0.0625,-0.1875,-0.0625],"type":"VEC3"},{"bufferView":19,"componentType":5126,"count":36,"max":[1,1,1],"min":[-1,-1,-1],"type":"VEC3"},{"bufferView":20,"componentType":5126,"count":36,"max":[0.25,0.5],"min":[0,0.1875],"type":"VEC2"},{"bufferView":21,"componentType":5126,"count":36,"max":[0.0625,0,0.0625],"min":[-0.0625,-0.1875,-0.0625],"type":"VEC3"},{"bufferView":22,"componentType":5126,"count":36,"max":[1,1,1],"min":[-1,-1,-1],"type":"VEC3"},{"bufferView":23,"componentType":5126,"count":36,"max":[0.25,0.5],"min":[0,0],"type":"VEC2"},{"bufferView":24,"componentType":5126,"count":36,"max":[0.125,0.25,0.125],"min":[-0.125,0,-0.125],"type":"VEC3"},{"bufferView":25,"componentType":5126,"count":36,"max":[1,1,1],"min":[-1,-1,-1],"type":"VEC3"},{"bufferView":26,"componentType":5126,"count":36,"max":[0.5,1],"min":[0,0.5],"type":"VEC2"},{"bufferView":27,"componentType":5126,"count":1,"max":[0],"min":[0],"type":"SCALAR"},{"bufferView":28,"componentType":5126,"count":1,"max":[0,0,0,1],"min":[0,0,0,1],"type":"VEC4"},{"bufferView":29,"componentType":5126,"count":1,"max":[0],"min":[0],"type":"SCALAR"},{"bufferView":30,"componentType":5126,"count":1,"max":[0,0.75,0],"min":[0,0.75,0],"type":"VEC3"},{"bufferView":31,"componentType":5126,"count":1,"max":[0],"min":[0],"type":"SCALAR"},{"bufferView":32,"componentType":5126,"count":1,"max":[0,0,0,1],"min":[0,0,0,1],"type":"VEC4"},{"bufferView":33,"componentType":5126,"count":1,"max":[0],"min":[0],"type":"SCALAR"},{"bufferView":34,"componentType":5126,"count":1,"max":[0.0625,0.375,0],"min":[0.0625,0.375,0],"type":"VEC3"},{"bufferView":35,"componentType":5126,"count":1,"max":[0],"min":[0],"type":"SCALAR"},{"bufferView":36,"componentType":5126,"count":1,"max":[0,0,0,1],"min":[0,0,0,1],"type":"VEC4"},{"bufferView":37,"componentType":5126,"count":1,"max":[0],"min":[0],"type":"SCALAR"},{"bufferView":38,"componentType":5126,"count":1,"max":[-0.0625,0.375,0],"min":[-0.0625,0.375,0],"type":"VEC3"},{"bufferView":39,"componentType":5126,"count":1,"max":[0],"min":[0],"type":"SCALAR"},{"bufferView":40,"componentType":5126,"count":1,"max":[0,0,0,1],"min":[0,0,0,1],"type":"VEC4"},{"bufferView":41,"componentType":5126,"count":1,"max":[0],"min":[0],"type":"SCALAR"},{"bufferView":42,"componentType":5126,"count":1,"max":[0,0.5625,0],"min":[0,0.5625,0],"type":"VEC3"},{"bufferView":43,"componentType":5126,"count":5,"max":[0.6666666865348816],"min":[0],"type":"SCALAR"},{"bufferView":44,"componentType":5126,"count":5,"max":[0.4809887707233429,0,0,0.9997619986534119],"min":[-0.40274667739868164,0,0,0.8767267465591431],"type":"VEC4"},{"bufferView":45,"componentType":5126,"count":5,"max":[0.6666666865348816],"min":[0],"type":"SCALAR"},{"bufferView":46,"componentType":5126,"count":5,"max":[0.3826834261417389,0,0,0.9940563440322876],"min":[-0.40274667739868164,0,0,0.9153114557266235],"type":"VEC4"},{"bufferView":47,"componentType":5126,"count":3,"max":[1.6666666269302368],"min":[0],"type":"SCALAR"},{"bufferView":48,"componentType":5126,"count":3,"max":[0.02181488461792469,0,0,1],"min":[0,0,0,0.9997619986534119],"type":"VEC4"},{"bufferView":49,"componentType":5126,"count":3,"max":[2],"min":[0.2083333283662796],"type":"SCALAR"},{"bufferView":50,"componentType":5126,"count":3,"max":[0,0.75,0],"min":[0,0.7418749928474426,0],"type":"VEC3"},{"bufferView":51,"componentType":5126,"count":1,"max":[0],"min":[0],"type":"SCALAR"},{"bufferView":52,"componentType":5126,"count":1,"max":[0,0,0,1],"min":[0,0,0,1],"type":"VEC4"},{"bufferView":53,"componentType":5126,"count":1,"max":[0],"min":[0],"type":"SCALAR"},{"bufferView":54,"componentType":5126,"count":1,"max":[0.0625,0.375,0],"min":[0.0625,0.375,0],"type":"VEC3"},{"bufferView":55,"componentType":5126,"count":1,"max":[0],"min":[0],"type":"SCALAR"},{"bufferView":56,"componentType":5126,"count":1,"max":[0,0,0,1],"min":[0,0,0,1],"type":"VEC4"},{"bufferView":57,"componentType":5126,"count":1,"max":[0],"min":[0],"type":"SCALAR"},{"bufferView":58,"componentType":5126,"count":1,"max":[-0.0625,0.375,0],"min":[-0.0625,0.375,0],"type":"VEC3"},{"bufferView":59,"componentType":5126,"count":1,"max":[0],"min":[0],"type":"SCALAR"},{"bufferView":60,"componentType":5126,"count":1,"max":[0,0,0,1],"min":[0,0,0,1],"type":"VEC4"},{"bufferView":61,"componentType":5126,"count":3,"max":[2],"min":[0.2916666567325592],"type":"SCALAR"},{"bufferView":62,"componentType":5126,"count":3,"max":[0,0.5625,0],"min":[0,0.5543749928474426,0],"type":"VEC3"},{"bufferView":63,"componentType":5126,"count":3,"max":[2],"min":[0],"type":"SCALAR"},{"bufferView":64,"componentType":5126,"count":3,"max":[0,0,0.04361938685178757,1],"min":[0,0,0,0.9990482330322266],"type":"VEC4"},{"bufferView":65,"componentType":5126,"count":1,"max":[0],"min":[0],"type":"SCALAR"},{"bufferView":66,"componentType":5126,"count":1,"max":[0.125,0.6875,0],"min":[0.125,0.6875,0],"type":"VEC3"},{"bufferView":67,"componentType":5126,"count":3,"max":[2],"min":[0],"type":"SCALAR"},{"bufferView":68,"componentType":5126,"count":3,"max":[0,0,0,1],"min":[0,0,-0.04361938685178757,0.9990482330322266],"type":"VEC4"},{"bufferView":69,"componentType":5126,"count":1,"max":[0],"min":[0],"type":"SCALAR"},{"bufferView":70,"componentType":5126,"count":1,"max":[-0.125,0.6875,0],"min":[-0.125,0.6875,0],"type":"VEC3"}],"materials":[{"pbrMetallicRoughness":{"metallicFactor":0,"roughnessFactor":1,"baseColorTexture":{"index":0}},"alphaMode":"MASK","alphaCutoff":0.05,"doubleSided":true,"name":"skin.png"}],"textures":[{"sampler":0,"source":0,"name":"skin.png"}],"samplers":[{"magFilter":9728,"minFilter":9728,"wrapS":33071,"wrapT":33071}],"images":[{"mimeType":"image/png","uri":"data:image/png;base64,"}],"meshes":[{"primitives":[{"mode":4,"attributes":{"POSITION":0,"NORMAL":1,"TEXCOORD_0":2},"material":0}]},{"primitives":[{"mode":4,"attributes":{"POSITION":3,"NORMAL":4,"TEXCOORD_0":5},"material":0}]},{"primitives":[{"mode":4,"attributes":{"POSITION":6,"NORMAL":7,"TEXCOORD_0":8},"material":0}]},{"primitives":[{"mode":4,"attributes":{"POSITION":9,"NORMAL":10,"TEXCOORD_0":11},"material":0}]},{"primitives":[{"mode":4,"attributes":{"POSITION":12,"NORMAL":13,"TEXCOORD_0":14},"material":0}]},{"primitives":[{"mode":4,"attributes":{"POSITION":15,"NORMAL":16,"TEXCOORD_0":17},"material":0}]},{"primitives":[{"mode":4,"attributes":{"POSITION":18,"NORMAL":19,"TEXCOORD_0":20},"material":0}]},{"primitives":[{"mode":4,"attributes":{"POSITION":21,"NORMAL":22,"TEXCOORD_0":23},"material":0}]},{"primitives":[{"mode":4,"attributes":{"POSITION":24,"NORMAL":25,"TEXCOORD_0":26},"material":0}]}],"animations":[{"name":"idle","samplers":[{"input":27,"output":28,"interpolation":"LINEAR"},{"input":29,"output":30,"interpolation":"LINEAR"},{"input":31,"output":32,"interpolation":"LINEAR"},{"input":33,"output":34,"interpolation":"LINEAR"},{"input":35,"output":36,"interpolation":"LINEAR"},{"input":37,"output":38,"interpolation":"LINEAR"},{"input":39,"output":40,"interpolation":"LINEAR"},{"input":41,"output":42,"interpolation":"LINEAR"}],"channels":[{"sampler":0,"target":{"node":18,"path":"rotation"}},{"sampler":1,"target":{"node":18,"path":"translation"}},{"sampler":2,"target":{"node":16,"path":"rotation"}},{"sampler":3,"target":{"node":16,"path":"translation"}},{"sampler":4,"target":{"node":11,"path":"rotation"}},{"sampler":5,"target":{"node":11,"path":"translation"}},{"sampler":6,"target":{"node":6,"path":"rotation"}},{"sampler":7,"target":{"node":6,"path":"translation"}}]},{"name":"run","samplers":[{"input":43,"output":44,"interpolation":"LINEAR"},{"input":45,"output":46,"interpolation":"LINEAR"}],"channels":[{"sampler":0,"target":{"node":16,"path":"rotation"}},{"sampler":1,"target":{"node":11,"path":"rotation"}}]},{"name":"showoff","samplers":[{"input":47,"output":48,"interpolation":"LINEAR"},{"input":49,"output":50,"interpolation":"LINEAR"},{"input":51,"output":52,"interpolation":"LINEAR"},{"input":53,"output":54,"interpolation":"LINEAR"},{"input":55,"output":56,"interpolation":"LINEAR"},{"input":57,"output":58,"interpolation":"LINEAR"},{"input":59,"output":60,"interpolation":"LINEAR"},{"input":61,"output":62,"interpolation":"LINEAR"},{"input":63,"output":64,"interpolation":"LINEAR"},{"input":65,"output":66,"interpolation":"LINEAR"},{"input":67,"output":68,"interpolation":"LINEAR"},{"input":69,"output":70,"interpolation":"LINEAR"}],"channels":[{"sampler":0,"target":{"node":18,"path":"rotation"}},{"sampler":1,"target":{"node":18,"path":"translation"}},{"sampler":2,"target":{"node":16,"path":"rotation"}},{"sampler":3,"target":{"node":16,"path":"translation"}},{"sampler":4,"target":{"node":11,"path":"rotation"}},{"sampler":5,"target":{"node":11,"path":"translation"}},{"sampler":6,"target":{"node":6,"path":"rotation"}},{"sampler":7,"target":{"node":6,"path":"translation"}},{"sampler":8,"target":{"node":3,"path":"rotation"}},{"sampler":9,"target":{"node":3,"path":"translation"}},{"sampler":10,"target":{"node":1,"path":"rotation"}},{"sampler":11,"target":{"node":1,"path":"translation"}}]}]}