{"asset":{"version":"2.0","generator":"Blockbench 3.8.4 glTF exporter"},"scenes":[{"nodes":[0,6,7,8,9,10,11],"name":"blockbench_export"}],"scene":0,"nodes":[{"name":"bone"},{"name":"7794a76c-8c34-a8b6-3fe3-cc78647bcef5","mesh":0},{"name":"cb887c08-ef63-8cef-ae98-6fa106d7f83d","mesh":1},{"name":"12102cc6-2198-ab64-4882-7cbd56ee7f4a","mesh":2},{"name":"27d10a49-0a5d-c4e6-7dcc-70d9c2aab805","mesh":3},{"name":"01df3648-be05-0590-fc6b-0e02986bd185","mesh":4},{"name":"bone","children":[1,2,3,4,5]},{"name":"98a6a462-f98b-ce9e-ca40-dbf16b29f0d6","mesh":5},{"name":"4cfbbed1-8c14-5ea4-5b8a-9d61c98905f6","mesh":6},{"name":"bcb514c4-8fb5-5771-bc6a-11f115f5b9ca","mesh":7},{"name":"7edc3211-4b74-06ca-1432-faedd5791383","mesh":8},{"name":"c638c02c-1a43-6608-1749-65c2175bfab4","mesh":9}],"bufferViews":[{"buffer":0,"byteOffset":0,"byteLength":432,"target":34962,"byteStride":12},{"buffer":0,"byteOffset":432,"byteLength":432,"target":34962,"byteStride":12},{"buffer":0,"byteOffset":864,"byteLength":288,"target":34962,"byteStride":8},{"buffer":0,"byteOffset":1152,"byteLength":432,"target":34962,"byteStride":12},{"buffer":0,"byteOffset":1584,"byteLength":432,"target":34962,"byteStride":12},{"buffer":0,"byteOffset":2016,"byteLength":288,"target":34962,"byteStride":8},{"buffer":0,"byteOffset":2304,"byteLength":432,"target":34962,"byteStride":12},{"buffer":0,"byteOffset":2736,"byteLength":432,"target":34962,"byteStride":12},{"buffer":0,"byteOffset":3168,"byteLength":288,"target":34962,"byteStride":8},{"buffer":0,"byteOffset":3456,"byteLength":432,"target":34962,"byteStride":12},{"buffer":0,"byteOffset":3888,"byteLength":432,"target":34962,"byteStride":12},{"buffer":0,"byteOffset":4320,"byteLength":288,"target":34962,"byteStride":8},{"buffer":0,"byteOffset":4608,"byteLength":432,"target":34962,"byteStride":12},{"buffer":0,"byteOffset":5040,"byteLength":432,"target":34962,"byteStride":12},{"buffer":0,"byteOffset":5472,"byteLength":288,"target":34962,"byteStride":8},{"buffer":0,"byteOffset":5760,"byteLength":432,"target":34962,"byteStride":12},{"buffer":0,"byteOffset":6192,"byteLength":432,"target":34962,"byteStride":12},{"buffer":0,"byteOffset":6624,"byteLength":288,"target":34962,"byteStride":8},{"buffer":0,"byteOffset":6912,"byteLength":432,"target":34962,"byteStride":12},{"buffer":0,"byteOffset":7344,"byteLength":432,"target":34962,"byteStride":12},{"buffer":0,"byteOffset":7776,"byteLength":288,"target":34962,"byteStride":8},{"buffer":0,"byteOffset":8064,"byteLength":432,"target":34962,"byteStride":12},{"buffer":0,"byteOffset":8496,"byteLength":432,"target":34962,"byteStride":12},{"buffer":0,"byteOffset":8928,"byteLength":288,"target":34962,"byteStride":8},{"buffer":0,"byteOffset":9216,"byteLength":432,"target":34962,"byteStride":12},{"buffer":0,"byteOffset":9648,"byteLength":432,"target":34962,"byteStride":12},{"buffer":0,"byteOffset":10080,"byteLength":288,"target":34962,"byteStride":8},{"buffer":0,"byteOffset":10368,"byteLength":432,"target":34962,"byteStride":12},{"buffer":0,"byteOffset":10800,"byteLength":432,"target":34962,"byteStride":12},{"buffer":0,"byteOffset":11232,"byteLength":288,"target":34962,"byteStride":8}],"buffers":[{"byteLength":11520,"uri":"data:application/octet-stream;base64,"}],"accessors":[{"bufferView":0,"componentType":5126,"count":36,"max":[0.0625,0.4375,0.5],"min":[0,0,0.4375],"type":"VEC3"},{"bufferView":1,"componentType":5126,"count":36,"max":[1,1,1],"min":[-1,-1,-1],"type":"VEC3"},{"bufferView":2,"componentType":5126,"count":36,"max":[1,1],"min":[0.9375,0.5625],"type":"VEC2"},{"bufferView":3,"componentType":5126,"count":36,"max":[0.0625,0.6875,0.4375],"min":[0,0.4375,0.375],"type":"VEC3"},{"bufferView":4,"componentType":5126,"count":36,"max":[1,1,1],"min":[-1,-1,-1],"type":"VEC3"},{"bufferView":5,"componentType":5126,"count":36,"max":[1,1],"min":[0.9375,0.75],"type":"VEC2"},{"bufferView":6,"componentType":5126,"count":36,"max":[0.0625,0.75,0.375],"min":[0,0.6875,0.3125],"type":"VEC3"},{"bufferView":7,"componentType":5126,"count":36,"max":[1,1,1],"min":[-1,-1,-1],"type":"VEC3"},{"bufferView":8,"componentType":5126,"count":36,"max":[1,1],"min":[0.9375,0.9375],"type":"VEC2"},{"bufferView":9,"componentType":5126,"count":36,"max":[0.0625,0.875,0.1875],"min":[0,0.8125,-0.0625],"type":"VEC3"},{"bufferView":10,"componentType":5126,"count":36,"max":[1,1,1],"min":[-1,-1,-1],"type":"VEC3"},{"bufferView":11,"componentType":5126,"count":36,"max":[1,1],"min":[0.9375,0.75],"type":"VEC2"},{"bufferView":12,"componentType":5126,"count":36,"max":[0.0625,0.8125,0.3125],"min":[0,0.75,0.1875],"type":"VEC3"},{"bufferView":13,"componentType":5126,"count":36,"max":[1,1,1],"min":[-1,-1,-1],"type":"VEC3"},{"bufferView":14,"componentType":5126,"count":36,"max":[1.0625,1],"min":[0.9375,0.875],"type":"VEC2"},{"bufferView":15,"componentType":5126,"count":36,"max":[0.0625,0.375,0.0625],"min":[0,0.3125,0],"type":"VEC3"},{"bufferView":16,"componentType":5126,"count":36,"max":[1,1,1],"min":[-1,-1,-1],"type":"VEC3"},{"bufferView":17,"componentType":5126,"count":36,"max":[1,0.0625],"min":[0.9375,0],"type":"VEC2"},{"bufferView":18,"componentType":5126,"count":36,"max":[0.05000000074505806,0.8125,0.1875],"min":[0.012500000186264515,0.75,-0.0625],"type":"VEC3"},{"bufferView":19,"componentType":5126,"count":36,"max":[1,1,1],"min":[-1,-1,-1],"type":"VEC3"},{"bufferView":20,"componentType":5126,"count":36,"max":[0.25,1],"min":[0,0.9375],"type":"VEC2"},{"bufferView":21,"componentType":5126,"count":36,"max":[0.05000000074505806,0.75,0.3125],"min":[0.012500000186264515,0.6875,-0.0625],"type":"VEC3"},{"bufferView":22,"componentType":5126,"count":36,"max":[1,1,1],"min":[-1,-1,-1],"type":"VEC3"},{"bufferView":23,"componentType":5126,"count":36,"max":[0.375,1],"min":[0,0.9375],"type":"VEC2"},{"bufferView":24,"componentType":5126,"count":36,"max":[0.05000000074505806,0.6875,0.375],"min":[0.012500000186264515,0.4375,-0.0625],"type":"VEC3"},{"bufferView":25,"componentType":5126,"count":36,"max":[1,1,1],"min":[-1,-1,-1],"type":"VEC3"},{"bufferView":26,"componentType":5126,"count":36,"max":[0.4375,1],"min":[0,0.75],"type":"VEC2"},{"bufferView":27,"componentType":5126,"count":36,"max":[0.05000000074505806,0.4375,0.4375],"min":[0.012500000186264515,0,-0.0625],"type":"VEC3"},{"bufferView":28,"componentType":5126,"count":36,"max":[1,1,1],"min":[-1,-1,-1],"type":"VEC3"},{"bufferView":29,"componentType":5126,"count":36,"max":[0.5,1],"min":[0,0.5],"type":"VEC2"}],"materials":[{"pbrMetallicRoughness":{"metallicFactor":0,"roughnessFactor":1,"baseColorTexture":{"index":0}},"alphaMode":"MASK","alphaCutoff":0.05,"doubleSided":true,"name":"texture.png"}],"textures":[{"sampler":0,"source":0,"name":"texture.png"}],"samplers":[{"magFilter":9728,"minFilter":9728,"wrapS":33071,"wrapT":33071}],"images":[{"mimeType":"image/png","uri":"data:image/png;base64,"}],"meshes":[{"primitives":[{"mode":4,"attributes":{"POSITION":0,"NORMAL":1,"TEXCOORD_0":2},"material":0}]},{"primitives":[{"mode":4,"attributes":{"POSITION":3,"NORMAL":4,"TEXCOORD_0":5},"material":0}]},{"primitives":[{"mode":4,"attributes":{"POSITION":6,"NORMAL":7,"TEXCOORD_0":8},"material":0}]},{"primitives":[{"mode":4,"attributes":{"POSITION":9,"NORMAL":10,"TEXCOORD_0":11},"material":0}]},{"primitives":[{"mode":4,"attributes":{"POSITION":12,"NORMAL":13,"TEXCOORD_0":14},"material":0}]},{"primitives":[{"mode":4,"attributes":{"POSITION":15,"NORMAL":16,"TEXCOORD_0":17},"material":0}]},{"primitives":[{"mode":4,"attributes":{"POSITION":18,"NORMAL":19,"TEXCOORD_0":20},"material":0}]},{"primitives":[{"mode":4,"attributes":{"POSITION":21,"NORMAL":22,"TEXCOORD_0":23},"material":0}]},{"primitives":[{"mode":4,"attributes":{"POSITION":24,"NORMAL":25,"TEXCOORD_0":26},"material":0}]},{"primitives":[{"mode":4,"attributes":{"POSITION":27,"NORMAL":28,"TEXCOORD_0":29},"material":0}]}]}