{"asset":{"version":"2.0","generator":"Blockbench 3.8.4 glTF exporter"},"scenes":[{"nodes":[1,8],"name":"blockbench_export"}],"scene":0,"nodes":[{"rotation":[-0.13052619222005157,0,0,0.9914448613738104],"translation":[-0.03125,0.09375,-0.15625],"name":"89f28954-bafe-0865-4f97-64ef2d744188","mesh":0},{"translation":[0.03125,-0.09375,0.15625],"name":"bone","children":[0]},{"rotation":[-0.01745240643728351,0,0,0.9998476951563913],"translation":[-0.03125,-0.0328125,-0.1515624999999999],"name":"624f8eca-d4bf-1597-122d-cba237506550","mesh":1},{"translation":[-0.03125,-0.0328125,-0.1515624999999999],"name":"f9ae4eb2-e275-5f12-0590-a244132d00cd","mesh":2},{"translation":[-0.03125,-0.0328125,-0.1515624999999999],"name":"a1038f9b-8830-3736-76e0-e80edd015ac0","mesh":3},{"rotation":[0.043619387365336,0,0,0.9990482215818578],"translation":[-0.03125,-0.0328125,-0.1515624999999999],"name":"31325cd4-2ec1-49e2-9700-12abd52a0c1d","mesh":4},{"rotation":[-0.0697564737441253,0,0,0.9975640502598242],"translation":[-0.03125,-0.0328125,-0.1515624999999999],"name":"fec4e7e7-327e-246c-2521-cb6322c0b3cf","mesh":5},{"rotation":[0.14780941112961063,0,0,0.9890158633619168],"translation":[-0.03125,-0.0328125,-0.1515624999999999],"name":"4ec3fbbb-9a45-cb95-1d8d-11e43cdd7e37","mesh":6},{"translation":[0.03125,0.0328125,0.1515624999999999],"name":"AK47","children":[2,3,4,5,6,7]}],"bufferViews":[{"buffer":0,"byteOffset":0,"byteLength":432,"target":34962,"byteStride":12},{"buffer":0,"byteOffset":432,"byteLength":432,"target":34962,"byteStride":12},{"buffer":0,"byteOffset":864,"byteLength":288,"target":34962,"byteStride":8},{"buffer":0,"byteOffset":1152,"byteLength":432,"target":34962,"byteStride":12},{"buffer":0,"byteOffset":1584,"byteLength":432,"target":34962,"byteStride":12},{"buffer":0,"byteOffset":2016,"byteLength":288,"target":34962,"byteStride":8},{"buffer":0,"byteOffset":2304,"byteLength":432,"target":34962,"byteStride":12},{"buffer":0,"byteOffset":2736,"byteLength":432,"target":34962,"byteStride":12},{"buffer":0,"byteOffset":3168,"byteLength":288,"target":34962,"byteStride":8},{"buffer":0,"byteOffset":3456,"byteLength":432,"target":34962,"byteStride":12},{"buffer":0,"byteOffset":3888,"byteLength":432,"target":34962,"byteStride":12},{"buffer":0,"byteOffset":4320,"byteLength":288,"target":34962,"byteStride":8},{"buffer":0,"byteOffset":4608,"byteLength":432,"target":34962,"byteStride":12},{"buffer":0,"byteOffset":5040,"byteLength":432,"target":34962,"byteStride":12},{"buffer":0,"byteOffset":5472,"byteLength":288,"target":34962,"byteStride":8},{"buffer":0,"byteOffset":5760,"byteLength":432,"target":34962,"byteStride":12},{"buffer":0,"byteOffset":6192,"byteLength":432,"target":34962,"byteStride":12},{"buffer":0,"byteOffset":6624,"byteLength":288,"target":34962,"byteStride":8},{"buffer":0,"byteOffset":6912,"byteLength":12,"target":34963},{"buffer":0,"byteOffset":6924,"byteLength":12,"target":34963},{"buffer":0,"byteOffset":6936,"byteLength":12,"target":34963},{"buffer":0,"byteOffset":6948,"byteLength":12,"target":34963},{"buffer":0,"byteOffset":6960,"byteLength":12,"target":34963},{"buffer":0,"byteOffset":6972,"byteLength":12,"target":34963},{"buffer":0,"byteOffset":6984,"byteLength":432,"target":34962,"byteStride":12},{"buffer":0,"byteOffset":7416,"byteLength":432,"target":34962,"byteStride":12},{"buffer":0,"byteOffset":7848,"byteLength":288,"target":34962,"byteStride":8},{"buffer":0,"byteOffset":8136,"byteLength":12,"target":34963},{"buffer":0,"byteOffset":8148,"byteLength":12,"target":34963},{"buffer":0,"byteOffset":8160,"byteLength":12,"target":34963},{"buffer":0,"byteOffset":8172,"byteLength":12,"target":34963},{"buffer":0,"byteOffset":8184,"byteLength":12,"target":34963},{"buffer":0,"byteOffset":8196,"byteLength":12,"target":34963},{"buffer":0,"byteOffset":8208,"byteLength":16},{"buffer":0,"byteOffset":8224,"byteLength":64},{"buffer":0,"byteOffset":8288,"byteLength":8},{"buffer":0,"byteOffset":8296,"byteLength":24},{"buffer":0,"byteOffset":8320,"byteLength":16},{"buffer":0,"byteOffset":8336,"byteLength":64},{"buffer":0,"byteOffset":8400,"byteLength":8},{"buffer":0,"byteOffset":8408,"byteLength":24},{"buffer":0,"byteOffset":8432,"byteLength":12},{"buffer":0,"byteOffset":8444,"byteLength":48},{"buffer":0,"byteOffset":8492,"byteLength":12},{"buffer":0,"byteOffset":8504,"byteLength":36},{"buffer":0,"byteOffset":8540,"byteLength":12},{"buffer":0,"byteOffset":8552,"byteLength":48},{"buffer":0,"byteOffset":8600,"byteLength":12},{"buffer":0,"byteOffset":8612,"byteLength":36},{"buffer":0,"byteOffset":8648,"byteLength":8},{"buffer":0,"byteOffset":8656,"byteLength":32},{"buffer":0,"byteOffset":8688,"byteLength":8},{"buffer":0,"byteOffset":8696,"byteLength":24},{"buffer":0,"byteOffset":8720,"byteLength":8},{"buffer":0,"byteOffset":8728,"byteLength":32},{"buffer":0,"byteOffset":8760,"byteLength":8},{"buffer":0,"byteOffset":8768,"byteLength":24},{"buffer":0,"byteOffset":8792,"byteLength":16},{"buffer":0,"byteOffset":8808,"byteLength":64},{"buffer":0,"byteOffset":8872,"byteLength":16},{"buffer":0,"byteOffset":8888,"byteLength":48},{"buffer":0,"byteOffset":8936,"byteLength":32},{"buffer":0,"byteOffset":8968,"byteLength":128},{"buffer":0,"byteOffset":9096,"byteLength":32},{"buffer":0,"byteOffset":9128,"byteLength":96}],"buffers":[{"byteLength":9224,"uri":"data:application/octet-stream;base64,"}],"accessors":[{"bufferView":0,"componentType":5126,"count":36,"max":[0.05000000074505806,0,0.1875],"min":[0.012500000186264515,-0.1875,0.125],"type":"VEC3"},{"bufferView":1,"componentType":5126,"count":36,"max":[1,1,1],"min":[-1,-1,-1],"type":"VEC3"},{"bufferView":2,"componentType":5126,"count":36,"max":[1,0.5625],"min":[0,0],"type":"VEC2"},{"bufferView":3,"componentType":5126,"count":36,"max":[0.0625,0.0625,0.20624999701976776],"min":[0,0,-0.0625],"type":"VEC3"},{"bufferView":4,"componentType":5126,"count":36,"max":[1,1,1],"min":[-1,-1,-1],"type":"VEC3"},{"bufferView":5,"componentType":5126,"count":36,"max":[1,1],"min":[0,0.6875],"type":"VEC2"},{"bufferView":6,"componentType":5126,"count":36,"max":[0.05624999850988388,0.06875000149011612,0.2874999940395355],"min":[0.0062500000931322575,0.0062500000931322575,0.20624999701976776],"type":"VEC3"},{"bufferView":7,"componentType":5126,"count":36,"max":[1,1,1],"min":[-1,-1,-1],"type":"VEC3"},{"bufferView":8,"componentType":5126,"count":36,"max":[0.875,1],"min":[0,0.0625],"type":"VEC2"},{"bufferView":9,"componentType":5126,"count":36,"max":[0.05000000074505806,0.05000000074505806,0.3812499940395355],"min":[0.012500000186264515,0.012500000186264515,0.2874999940395355],"type":"VEC3"},{"bufferView":10,"componentType":5126,"count":36,"max":[1,1,1],"min":[-1,-1,-1],"type":"VEC3"},{"bufferView":11,"componentType":5126,"count":36,"max":[0.5,1],"min":[0,0],"type":"VEC2"},{"bufferView":12,"componentType":5126,"count":36,"max":[0.04374999925494194,0.11249999701976776,0.375],"min":[0.01875000074505806,0.07500000298023224,0.3499999940395355],"type":"VEC3"},{"bufferView":13,"componentType":5126,"count":36,"max":[1,1,1],"min":[-1,-1,-1],"type":"VEC3"},{"bufferView":14,"componentType":5126,"count":36,"max":[0.02500000037252903,1],"min":[0,0.9624999761581421],"type":"VEC2"},{"bufferView":15,"componentType":5126,"count":36,"max":[0.05624999850988388,0.0625,-0.05000000074505806],"min":[0.0062500000931322575,0.0062500000931322575,-0.1875],"type":"VEC3"},{"bufferView":16,"componentType":5126,"count":36,"max":[1,1,1],"min":[-1,-1,-1],"type":"VEC3"},{"bufferView":17,"componentType":5126,"count":36,"max":[0.9375,1],"min":[0,0.0625],"type":"VEC2"},{"bufferView":18,"componentType":5123,"count":6,"max":[5],"min":[0],"type":"SCALAR"},{"bufferView":19,"componentType":5123,"count":6,"max":[11],"min":[6],"type":"SCALAR"},{"bufferView":20,"componentType":5123,"count":6,"max":[17],"min":[12],"type":"SCALAR"},{"bufferView":21,"componentType":5123,"count":6,"max":[23],"min":[18],"type":"SCALAR"},{"bufferView":22,"componentType":5123,"count":6,"max":[29],"min":[24],"type":"SCALAR"},{"bufferView":23,"componentType":5123,"count":6,"max":[35],"min":[30],"type":"SCALAR"},{"bufferView":24,"componentType":5126,"count":36,"max":[0.05000000074505806,0.02500000037252903,0.03750000149011612],"min":[0.012500000186264515,-0.08749999850988388,-0.012500000186264515],"type":"VEC3"},{"bufferView":25,"componentType":5126,"count":36,"max":[1,1,1],"min":[-1,-1,-1],"type":"VEC3"},{"bufferView":26,"componentType":5126,"count":36,"max":[0.3125,1],"min":[0,0.5625],"type":"VEC2"},{"bufferView":27,"componentType":5123,"count":6,"max":[5],"min":[0],"type":"SCALAR"},{"bufferView":28,"componentType":5123,"count":6,"max":[11],"min":[6],"type":"SCALAR"},{"bufferView":29,"componentType":5123,"count":6,"max":[17],"min":[12],"type":"SCALAR"},{"bufferView":30,"componentType":5123,"count":6,"max":[23],"min":[18],"type":"SCALAR"},{"bufferView":31,"componentType":5123,"count":6,"max":[29],"min":[24],"type":"SCALAR"},{"bufferView":32,"componentType":5123,"count":6,"max":[35],"min":[30],"type":"SCALAR"},{"bufferView":33,"componentType":5126,"count":4,"max":[0.8333333134651184],"min":[0],"type":"SCALAR"},{"bufferView":34,"componentType":5126,"count":4,"max":[0.017449747771024704,0.017543258145451546,0,1],"min":[-0.003980888053774834,0,-0.02173522301018238,0.9996019005775452],"type":"VEC4"},{"bufferView":35,"componentType":5126,"count":2,"max":[0.8333333134651184],"min":[0],"type":"SCALAR"},{"bufferView":36,"componentType":5126,"count":2,"max":[0.03125,0.03281249850988388,0.15156249701976776],"min":[0.03125,0.03281249850988388,0.15156249701976776],"type":"VEC3"},{"bufferView":37,"componentType":5126,"count":4,"max":[0.8333333134651184],"min":[0],"type":"SCALAR"},{"bufferView":38,"componentType":5126,"count":4,"max":[0.017449747771024704,0.017543258145451546,0,1],"min":[-0.003980888053774834,0,-0.02173522301018238,0.9996019005775452],"type":"VEC4"},{"bufferView":39,"componentType":5126,"count":2,"max":[0.8333333134651184],"min":[0],"type":"SCALAR"},{"bufferView":40,"componentType":5126,"count":2,"max":[0.03125,-0.09375,0.15625],"min":[0.03125,-0.09375,0.15625],"type":"VEC3"},{"bufferView":41,"componentType":5126,"count":3,"max":[0.125],"min":[0],"type":"SCALAR"},{"bufferView":42,"componentType":5126,"count":3,"max":[0,0,0,1],"min":[-0.008726535364985466,0,0,0.9999619126319885],"type":"VEC4"},{"bufferView":43,"componentType":5126,"count":3,"max":[0.125],"min":[0],"type":"SCALAR"},{"bufferView":44,"componentType":5126,"count":3,"max":[0.03125,0.03281249850988388,0.15156249701976776],"min":[0.03125,0.03281249850988388,0.08906249701976776],"type":"VEC3"},{"bufferView":45,"componentType":5126,"count":3,"max":[0.125],"min":[0],"type":"SCALAR"},{"bufferView":46,"componentType":5126,"count":3,"max":[0,0,0,1],"min":[-0.008726535364985466,0,0,0.9999619126319885],"type":"VEC4"},{"bufferView":47,"componentType":5126,"count":3,"max":[0.125],"min":[0],"type":"SCALAR"},{"bufferView":48,"componentType":5126,"count":3,"max":[0.03125,-0.09375,0.15625],"min":[0.03125,-0.09375,0.09375],"type":"VEC3"},{"bufferView":49,"componentType":5126,"count":2,"max":[0.5416666865348816],"min":[0],"type":"SCALAR"},{"bufferView":50,"componentType":5126,"count":2,"max":[0.3826834261417389,0,0,1],"min":[0,0,0,0.9238795042037964],"type":"VEC4"},{"bufferView":51,"componentType":5126,"count":2,"max":[0.5416666865348816],"min":[0],"type":"SCALAR"},{"bufferView":52,"componentType":5126,"count":2,"max":[0.03125,0.03281249850988388,0.15156249701976776],"min":[0.03125,-0.15468749403953552,0.15156249701976776],"type":"VEC3"},{"bufferView":53,"componentType":5126,"count":2,"max":[0.5416666865348816],"min":[0],"type":"SCALAR"},{"bufferView":54,"componentType":5126,"count":2,"max":[0.3420201539993286,0,0,1],"min":[0,0,0,0.9396926164627075],"type":"VEC4"},{"bufferView":55,"componentType":5126,"count":2,"max":[0.5416666865348816],"min":[0],"type":"SCALAR"},{"bufferView":56,"componentType":5126,"count":2,"max":[0.03125,-0.09375,0.15625],"min":[0.03125,-0.28125,0.09375],"type":"VEC3"},{"bufferView":57,"componentType":5126,"count":4,"max":[1.0416666269302368],"min":[0],"type":"SCALAR"},{"bufferView":58,"componentType":5126,"count":4,"max":[0,0,0,1],"min":[-0.1736481785774231,0,0,0.9848077297210693],"type":"VEC4"},{"bufferView":59,"componentType":5126,"count":4,"max":[1.0416666269302368],"min":[0],"type":"SCALAR"},{"bufferView":60,"componentType":5126,"count":4,"max":[0.03125,0.09531249850988388,0.15156249701976776],"min":[0.03125,0.03281249850988388,0.1328125],"type":"VEC3"},{"bufferView":61,"componentType":5126,"count":8,"max":[1.0416666269302368],"min":[0],"type":"SCALAR"},{"bufferView":62,"componentType":5126,"count":8,"max":[0.18223552405834198,0,0,1],"min":[-0.1736481785774231,0,0,0.9832549095153809],"type":"VEC4"},{"bufferView":63,"componentType":5126,"count":8,"max":[1.0416666269302368],"min":[0],"type":"SCALAR"},{"bufferView":64,"componentType":5126,"count":8,"max":[0.03125,-0.04374999925494194,0.21250000596046448],"min":[0.03125,-0.2562499940395355,0.15625],"type":"VEC3"}],"materials":[{"pbrMetallicRoughness":{"metallicFactor":0,"roughnessFactor":1,"baseColorTexture":{"index":0}},"alphaMode":"MASK","alphaCutoff":0.05,"doubleSided":true,"name":"steel.png"},{"pbrMetallicRoughness":{"metallicFactor":0,"roughnessFactor":1,"baseColorTexture":{"index":1}},"alphaMode":"MASK","alphaCutoff":0.05,"doubleSided":true,"name":"wood.png"},{"pbrMetallicRoughness":{"baseColorFactor":[0.4823529411764706,1,0.6392156862745098,1],"metallicFactor":0,"roughnessFactor":1,"baseColorTexture":{"index":2}},"doubleSided":true}],"textures":[{"sampler":0,"source":0,"name":"steel.png"},{"sampler":1,"source":1,"name":"wood.png"},{"sampler":2,"source":2}],"samplers":[{"magFilter":9728,"minFilter":9728,"wrapS":33071,"wrapT":33071},{"magFilter":9728,"minFilter":9728,"wrapS":33071,"wrapT":33071},{"magFilter":9728,"minFilter":9728,"wrapS":10497,"wrapT":10497}],"images":[{"mimeType":"image/png","uri":"data:image/png;base64,"},{"mimeType":"image/png","uri":"data:image/png;base64,"},{"mimeType":"image/png","uri":"data:image/png;base64,"}],"meshes":[{"primitives":[{"mode":4,"attributes":{"POSITION":0,"NORMAL":1,"TEXCOORD_0":2},"material":0}]},{"primitives":[{"mode":4,"attributes":{"POSITION":3,"NORMAL":4,"TEXCOORD_0":5},"material":0}]},{"primitives":[{"mode":4,"attributes":{"POSITION":6,"NORMAL":7,"TEXCOORD_0":8},"material":1}]},{"primitives":[{"mode":4,"attributes":{"POSITION":9,"NORMAL":10,"TEXCOORD_0":11},"material":0}]},{"primitives":[{"mode":4,"attributes":{"POSITION":12,"NORMAL":13,"TEXCOORD_0":14},"material":0}]},{"primitives":[{"mode":4,"attributes":{"POSITION":15,"NORMAL":16,"TEXCOORD_0":17},"indices":18,"material":1},{"mode":4,"attributes":{"POSITION":15,"NORMAL":16,"TEXCOORD_0":17},"indices":19,"material":1},{"mode":4,"attributes":{"POSITION":15,"NORMAL":16,"TEXCOORD_0":17},"indices":20,"material":1},{"mode":4,"attributes":{"POSITION":15,"NORMAL":16,"TEXCOORD_0":17},"indices":21,"material":1},{"mode":4,"attributes":{"POSITION":15,"NORMAL":16,"TEXCOORD_0":17},"indices":22,"material":2},{"mode":4,"attributes":{"POSITION":15,"NORMAL":16,"TEXCOORD_0":17},"indices":23,"material":1}]},{"primitives":[{"mode":4,"attributes":{"POSITION":24,"NORMAL":25,"TEXCOORD_0":26},"indices":27,"material":1},{"mode":4,"attributes":{"POSITION":24,"NORMAL":25,"TEXCOORD_0":26},"indices":28,"material":1},{"mode":4,"attributes":{"POSITION":24,"NORMAL":25,"TEXCOORD_0":26},"indices":29,"material":2},{"mode":4,"attributes":{"POSITION":24,"NORMAL":25,"TEXCOORD_0":26},"indices":30,"material":1},{"mode":4,"attributes":{"POSITION":24,"NORMAL":25,"TEXCOORD_0":26},"indices":31,"material":1},{"mode":4,"attributes":{"POSITION":24,"NORMAL":25,"TEXCOORD_0":26},"indices":32,"material":1}]}],"animations":[{"name":"idle","samplers":[{"input":33,"output":34,"interpolation":"LINEAR"},{"input":35,"output":36,"interpolation":"LINEAR"},{"input":37,"output":38,"interpolation":"LINEAR"},{"input":39,"output":40,"interpolation":"LINEAR"}],"channels":[{"sampler":0,"target":{"node":8,"path":"rotation"}},{"sampler":1,"target":{"node":8,"path":"translation"}},{"sampler":2,"target":{"node":1,"path":"rotation"}},{"sampler":3,"target":{"node":1,"path":"translation"}}]},{"name":"attack1","samplers":[{"input":41,"output":42,"interpolation":"LINEAR"},{"input":43,"output":44,"interpolation":"LINEAR"},{"input":45,"output":46,"interpolation":"LINEAR"},{"input":47,"output":48,"interpolation":"LINEAR"}],"channels":[{"sampler":0,"target":{"node":8,"path":"rotation"}},{"sampler":1,"target":{"node":8,"path":"translation"}},{"sampler":2,"target":{"node":1,"path":"rotation"}},{"sampler":3,"target":{"node":1,"path":"translation"}}]},{"name":"show","samplers":[{"input":49,"output":50,"interpolation":"LINEAR"},{"input":51,"output":52,"interpolation":"LINEAR"},{"input":53,"output":54,"interpolation":"LINEAR"},{"input":55,"output":56,"interpolation":"LINEAR"}],"channels":[{"sampler":0,"target":{"node":8,"path":"rotation"}},{"sampler":1,"target":{"node":8,"path":"translation"}},{"sampler":2,"target":{"node":1,"path":"rotation"}},{"sampler":3,"target":{"node":1,"path":"translation"}}]},{"name":"reload","samplers":[{"input":57,"output":58,"interpolation":"LINEAR"},{"input":59,"output":60,"interpolation":"LINEAR"},{"input":61,"output":62,"interpolation":"LINEAR"},{"input":63,"output":64,"interpolation":"LINEAR"}],"channels":[{"sampler":0,"target":{"node":8,"path":"rotation"}},{"sampler":1,"target":{"node":8,"path":"translation"}},{"sampler":2,"target":{"node":1,"path":"rotation"}},{"sampler":3,"target":{"node":1,"path":"translation"}}]}]}