{"asset":{"version":"2.0","generator":"Blockbench 3.8.4 glTF exporter"},"scenes":[{"nodes":[15,16,21,26,27],"name":"blockbench_export"}],"scene":0,"nodes":[{"name":"bone2"},{"name":"bone3"},{"name":"bone"},{"name":"b9a5c494-752a-499f-ea34-53dbc07796da","mesh":0},{"name":"bb3241ea-d99c-5bfb-f146-80d2a92e8cd8","mesh":1},{"name":"bone","children":[3,4]},{"name":"1c3ce3f2-2bcc-488b-e6d7-8890f15d16f2","mesh":2},{"name":"390f2929-6360-e2f4-a4d1-e4922f4852a8","mesh":3},{"translation":[0,0.25,0.25],"name":"step1","children":[6,7]},{"name":"17681fa1-240f-9521-44fd-3c4491e37ff1","mesh":4},{"name":"66818e60-14fa-c555-5187-e39f3649e013","mesh":5},{"translation":[0,0.5,0.5],"name":"step2","children":[9,10]},{"name":"8eb7f953-eb3d-47a0-a164-331b479c96da","mesh":6},{"name":"aabc42d5-27ec-8e6b-1a8e-3d034d675e1b","mesh":7},{"translation":[0,0.75,0.75],"name":"step3","children":[12,13]},{"name":"bone","children":[0,1,2,5,8,11,14]},{"rotation":[-0.3826834323650898,0,0,0.9238795325112867],"translation":[0.21875,0.9943689110435825,0.37565047750535324],"name":"1ad593f5-9b63-69e5-f80f-39ad19a3c209","mesh":8},{"name":"step1"},{"name":"step2"},{"name":"step3"},{"name":"step4"},{"name":"stairs","children":[17,18,19,20]},{"name":"step1"},{"name":"step2"},{"name":"step3"},{"name":"step4"},{"translation":[0,1,1],"name":"stairs","children":[22,23,24,25]},{"name":"step4"}],"bufferViews":[{"buffer":0,"byteOffset":0,"byteLength":432,"target":34962,"byteStride":12},{"buffer":0,"byteOffset":432,"byteLength":432,"target":34962,"byteStride":12},{"buffer":0,"byteOffset":864,"byteLength":288,"target":34962,"byteStride":8},{"buffer":0,"byteOffset":1152,"byteLength":432,"target":34962,"byteStride":12},{"buffer":0,"byteOffset":1584,"byteLength":432,"target":34962,"byteStride":12},{"buffer":0,"byteOffset":2016,"byteLength":288,"target":34962,"byteStride":8},{"buffer":0,"byteOffset":2304,"byteLength":432,"target":34962,"byteStride":12},{"buffer":0,"byteOffset":2736,"byteLength":432,"target":34962,"byteStride":12},{"buffer":0,"byteOffset":3168,"byteLength":288,"target":34962,"byteStride":8},{"buffer":0,"byteOffset":3456,"byteLength":432,"target":34962,"byteStride":12},{"buffer":0,"byteOffset":3888,"byteLength":432,"target":34962,"byteStride":12},{"buffer":0,"byteOffset":4320,"byteLength":288,"target":34962,"byteStride":8},{"buffer":0,"byteOffset":4608,"byteLength":432,"target":34962,"byteStride":12},{"buffer":0,"byteOffset":5040,"byteLength":432,"target":34962,"byteStride":12},{"buffer":0,"byteOffset":5472,"byteLength":288,"target":34962,"byteStride":8},{"buffer":0,"byteOffset":5760,"byteLength":432,"target":34962,"byteStride":12},{"buffer":0,"byteOffset":6192,"byteLength":432,"target":34962,"byteStride":12},{"buffer":0,"byteOffset":6624,"byteLength":288,"target":34962,"byteStride":8},{"buffer":0,"byteOffset":6912,"byteLength":432,"target":34962,"byteStride":12},{"buffer":0,"byteOffset":7344,"byteLength":432,"target":34962,"byteStride":12},{"buffer":0,"byteOffset":7776,"byteLength":288,"target":34962,"byteStride":8},{"buffer":0,"byteOffset":8064,"byteLength":432,"target":34962,"byteStride":12},{"buffer":0,"byteOffset":8496,"byteLength":432,"target":34962,"byteStride":12},{"buffer":0,"byteOffset":8928,"byteLength":288,"target":34962,"byteStride":8},{"buffer":0,"byteOffset":9216,"byteLength":432,"target":34962,"byteStride":12},{"buffer":0,"byteOffset":9648,"byteLength":432,"target":34962,"byteStride":12},{"buffer":0,"byteOffset":10080,"byteLength":288,"target":34962,"byteStride":8}],"buffers":[{"byteLength":10368,"uri":"data:application/octet-stream;base64,"}],"accessors":[{"bufferView":0,"componentType":5126,"count":36,"max":[0.375,0.25,0.375],"min":[-0.75,0.125,-0.0625],"type":"VEC3"},{"bufferView":1,"componentType":5126,"count":36,"max":[1,1,1],"min":[-1,-1,-1],"type":"VEC3"},{"bufferView":2,"componentType":5126,"count":36,"max":[1,1],"min":[0,0.28125],"type":"VEC2"},{"bufferView":3,"componentType":5126,"count":36,"max":[0.375,0.125,0.125],"min":[-0.75,0,0.0625],"type":"VEC3"},{"bufferView":4,"componentType":5126,"count":36,"max":[1,1,1],"min":[-1,-1,-1],"type":"VEC3"},{"bufferView":5,"componentType":5126,"count":36,"max":[1,0.53125],"min":[0,0],"type":"VEC2"},{"bufferView":6,"componentType":5126,"count":36,"max":[0.375,0.25,0.375],"min":[-0.75,0.125,-0.0625],"type":"VEC3"},{"bufferView":7,"componentType":5126,"count":36,"max":[1,1,1],"min":[-1,-1,-1],"type":"VEC3"},{"bufferView":8,"componentType":5126,"count":36,"max":[1,1],"min":[0,0.28125],"type":"VEC2"},{"bufferView":9,"componentType":5126,"count":36,"max":[0.375,0.125,0.125],"min":[-0.75,0,0.0625],"type":"VEC3"},{"bufferView":10,"componentType":5126,"count":36,"max":[1,1,1],"min":[-1,-1,-1],"type":"VEC3"},{"bufferView":11,"componentType":5126,"count":36,"max":[1,0.53125],"min":[0,0],"type":"VEC2"},{"bufferView":12,"componentType":5126,"count":36,"max":[0.375,0.25,0.375],"min":[-0.75,0.125,-0.0625],"type":"VEC3"},{"bufferView":13,"componentType":5126,"count":36,"max":[1,1,1],"min":[-1,-1,-1],"type":"VEC3"},{"bufferView":14,"componentType":5126,"count":36,"max":[1,1],"min":[0,0.28125],"type":"VEC2"},{"bufferView":15,"componentType":5126,"count":36,"max":[0.375,0.125,0.125],"min":[-0.75,0,0.0625],"type":"VEC3"},{"bufferView":16,"componentType":5126,"count":36,"max":[1,1,1],"min":[-1,-1,-1],"type":"VEC3"},{"bufferView":17,"componentType":5126,"count":36,"max":[1,0.53125],"min":[0,0],"type":"VEC2"},{"bufferView":18,"componentType":5126,"count":36,"max":[0.375,0.25,0.375],"min":[-0.75,0.125,-0.0625],"type":"VEC3"},{"bufferView":19,"componentType":5126,"count":36,"max":[1,1,1],"min":[-1,-1,-1],"type":"VEC3"},{"bufferView":20,"componentType":5126,"count":36,"max":[1,1],"min":[0,0.28125],"type":"VEC2"},{"bufferView":21,"componentType":5126,"count":36,"max":[0.375,0.125,0.125],"min":[-0.75,0,0.0625],"type":"VEC3"},{"bufferView":22,"componentType":5126,"count":36,"max":[1,1,1],"min":[-1,-1,-1],"type":"VEC3"},{"bufferView":23,"componentType":5126,"count":36,"max":[1,0.53125],"min":[0,0],"type":"VEC2"},{"bufferView":24,"componentType":5126,"count":36,"max":[-0.21875,-0.5,0.46875],"min":[-0.53125,-0.5874999761581421,-0.96875],"type":"VEC3"},{"bufferView":25,"componentType":5126,"count":36,"max":[1,1,1],"min":[-1,-1,-1],"type":"VEC3"},{"bufferView":26,"componentType":5126,"count":36,"max":[1,0.59375],"min":[0,0.21875],"type":"VEC2"}],"materials":[{"pbrMetallicRoughness":{"metallicFactor":0,"roughnessFactor":1,"baseColorTexture":{"index":0}},"alphaMode":"MASK","alphaCutoff":0.05,"doubleSided":true,"name":"texture"}],"textures":[{"sampler":0,"source":0,"name":"texture"}],"samplers":[{"magFilter":9728,"minFilter":9728,"wrapS":33071,"wrapT":33071}],"images":[{"mimeType":"image/png","uri":"data:image/png;base64,"}],"meshes":[{"primitives":[{"mode":4,"attributes":{"POSITION":0,"NORMAL":1,"TEXCOORD_0":2},"material":0}]},{"primitives":[{"mode":4,"attributes":{"POSITION":3,"NORMAL":4,"TEXCOORD_0":5},"material":0}]},{"primitives":[{"mode":4,"attributes":{"POSITION":6,"NORMAL":7,"TEXCOORD_0":8},"material":0}]},{"primitives":[{"mode":4,"attributes":{"POSITION":9,"NORMAL":10,"TEXCOORD_0":11},"material":0}]},{"primitives":[{"mode":4,"attributes":{"POSITION":12,"NORMAL":13,"TEXCOORD_0":14},"material":0}]},{"primitives":[{"mode":4,"attributes":{"POSITION":15,"NORMAL":16,"TEXCOORD_0":17},"material":0}]},{"primitives":[{"mode":4,"attributes":{"POSITION":18,"NORMAL":19,"TEXCOORD_0":20},"material":0}]},{"primitives":[{"mode":4,"attributes":{"POSITION":21,"NORMAL":22,"TEXCOORD_0":23},"material":0}]},{"primitives":[{"mode":4,"attributes":{"POSITION":24,"NORMAL":25,"TEXCOORD_0":26},"material":0}]}]}