{"asset":{"version":"2.0","generator":"Blockbench 3.8.4 glTF exporter"},"scenes":[{"nodes":[1,8],"name":"blockbench_export"}],"scene":0,"nodes":[{"name":"c125456a-806b-27be-8a63-2a1dd683ab9a","mesh":0},{"rotation":[0.008458027939677254,-0.24614392026585033,0.0021480654496591487,0.9691940043636024],"translation":[0.20000000000000004,0.03125,-0.03125],"name":"left_hand","children":[0]},{"rotation":[0,0.06540312923014306,0,0.9978589232386035],"translation":[0.015625,0.015625,0.0625],"name":"df60f904-41a6-bcab-b0cf-7f5888762cee","mesh":1},{"rotation":[0.06540312923014306,0,0,0.9978589232386035],"translation":[2.7755575615628914e-17,0.01874999999999996,0.026447370995415637],"name":"5c705dba-5a65-3162-c90d-d9c387a3f742","mesh":2},{"rotation":[0.6946583704589973,0,0,0.7193398003386512],"translation":[2.7755575615628914e-17,0.08071530383586312,0.034605258009168915],"name":"dea56295-4aa7-d1a7-1b9b-74fca27ca6d1","mesh":3},{"rotation":[0.06540312923014306,0,0,0.9978589232386035],"name":"2ec324fb-869c-185a-367e-28e275935138","mesh":4},{"translation":[2.7755575615628914e-17,0.01874999999999996,0.026447370995415637],"name":"magazine","children":[5]},{"rotation":[0,0.0697564737441253,0,0.9975640502598242],"translation":[0.071875,0.059374999999999956,0.1798026290045844],"name":"deagle","children":[3,4,6]},{"translation":[0.015625,0.015625,-0.03125],"name":"right_hand","children":[2,7]}],"bufferViews":[{"buffer":0,"byteOffset":0,"byteLength":432,"target":34962,"byteStride":12},{"buffer":0,"byteOffset":432,"byteLength":432,"target":34962,"byteStride":12},{"buffer":0,"byteOffset":864,"byteLength":288,"target":34962,"byteStride":8},{"buffer":0,"byteOffset":1152,"byteLength":432,"target":34962,"byteStride":12},{"buffer":0,"byteOffset":1584,"byteLength":432,"target":34962,"byteStride":12},{"buffer":0,"byteOffset":2016,"byteLength":288,"target":34962,"byteStride":8},{"buffer":0,"byteOffset":2304,"byteLength":432,"target":34962,"byteStride":12},{"buffer":0,"byteOffset":2736,"byteLength":432,"target":34962,"byteStride":12},{"buffer":0,"byteOffset":3168,"byteLength":288,"target":34962,"byteStride":8},{"buffer":0,"byteOffset":3456,"byteLength":432,"target":34962,"byteStride":12},{"buffer":0,"byteOffset":3888,"byteLength":432,"target":34962,"byteStride":12},{"buffer":0,"byteOffset":4320,"byteLength":288,"target":34962,"byteStride":8},{"buffer":0,"byteOffset":4608,"byteLength":432,"target":34962,"byteStride":12},{"buffer":0,"byteOffset":5040,"byteLength":432,"target":34962,"byteStride":12},{"buffer":0,"byteOffset":5472,"byteLength":288,"target":34962,"byteStride":8},{"buffer":0,"byteOffset":5760,"byteLength":4},{"buffer":0,"byteOffset":5764,"byteLength":16},{"buffer":0,"byteOffset":5780,"byteLength":4},{"buffer":0,"byteOffset":5784,"byteLength":12},{"buffer":0,"byteOffset":5796,"byteLength":12},{"buffer":0,"byteOffset":5808,"byteLength":48},{"buffer":0,"byteOffset":5856,"byteLength":12},{"buffer":0,"byteOffset":5868,"byteLength":36},{"buffer":0,"byteOffset":5904,"byteLength":12},{"buffer":0,"byteOffset":5916,"byteLength":48},{"buffer":0,"byteOffset":5964,"byteLength":12},{"buffer":0,"byteOffset":5976,"byteLength":36},{"buffer":0,"byteOffset":6012,"byteLength":4},{"buffer":0,"byteOffset":6016,"byteLength":16},{"buffer":0,"byteOffset":6032,"byteLength":4},{"buffer":0,"byteOffset":6036,"byteLength":12},{"buffer":0,"byteOffset":6048,"byteLength":8},{"buffer":0,"byteOffset":6056,"byteLength":32},{"buffer":0,"byteOffset":6088,"byteLength":8},{"buffer":0,"byteOffset":6096,"byteLength":24},{"buffer":0,"byteOffset":6120,"byteLength":16},{"buffer":0,"byteOffset":6136,"byteLength":64},{"buffer":0,"byteOffset":6200,"byteLength":4},{"buffer":0,"byteOffset":6204,"byteLength":12},{"buffer":0,"byteOffset":6216,"byteLength":12},{"buffer":0,"byteOffset":6228,"byteLength":48},{"buffer":0,"byteOffset":6276,"byteLength":12},{"buffer":0,"byteOffset":6288,"byteLength":36},{"buffer":0,"byteOffset":6324,"byteLength":4},{"buffer":0,"byteOffset":6328,"byteLength":16},{"buffer":0,"byteOffset":6344,"byteLength":4},{"buffer":0,"byteOffset":6348,"byteLength":12},{"buffer":0,"byteOffset":6360,"byteLength":16},{"buffer":0,"byteOffset":6376,"byteLength":64},{"buffer":0,"byteOffset":6440,"byteLength":8},{"buffer":0,"byteOffset":6448,"byteLength":24},{"buffer":0,"byteOffset":6472,"byteLength":16},{"buffer":0,"byteOffset":6488,"byteLength":64},{"buffer":0,"byteOffset":6552,"byteLength":8},{"buffer":0,"byteOffset":6560,"byteLength":24},{"buffer":0,"byteOffset":6584,"byteLength":24},{"buffer":0,"byteOffset":6608,"byteLength":96},{"buffer":0,"byteOffset":6704,"byteLength":28},{"buffer":0,"byteOffset":6732,"byteLength":84},{"buffer":0,"byteOffset":6816,"byteLength":32},{"buffer":0,"byteOffset":6848,"byteLength":128},{"buffer":0,"byteOffset":6976,"byteLength":8},{"buffer":0,"byteOffset":6984,"byteLength":24},{"buffer":0,"byteOffset":7008,"byteLength":12},{"buffer":0,"byteOffset":7020,"byteLength":48},{"buffer":0,"byteOffset":7068,"byteLength":8},{"buffer":0,"byteOffset":7076,"byteLength":24},{"buffer":0,"byteOffset":7100,"byteLength":16},{"buffer":0,"byteOffset":7116,"byteLength":64},{"buffer":0,"byteOffset":7180,"byteLength":4},{"buffer":0,"byteOffset":7184,"byteLength":12},{"buffer":0,"byteOffset":7196,"byteLength":4},{"buffer":0,"byteOffset":7200,"byteLength":16},{"buffer":0,"byteOffset":7216,"byteLength":4},{"buffer":0,"byteOffset":7220,"byteLength":12},{"buffer":0,"byteOffset":7232,"byteLength":12},{"buffer":0,"byteOffset":7244,"byteLength":48},{"buffer":0,"byteOffset":7292,"byteLength":4},{"buffer":0,"byteOffset":7296,"byteLength":12}],"buffers":[{"byteLength":7308,"uri":"data:application/octet-stream;base64,"}],"accessors":[{"bufferView":0,"componentType":5126,"count":36,"max":[0.03750000149011612,0.03125,0.23125000298023224],"min":[-0.02500000037252903,-0.03125,-0.01875000074505806],"type":"VEC3"},{"bufferView":1,"componentType":5126,"count":36,"max":[1,1,1],"min":[-1,-1,-1],"type":"VEC3"},{"bufferView":2,"componentType":5126,"count":36,"max":[0.25,1],"min":[0,0.75],"type":"VEC2"},{"bufferView":3,"componentType":5126,"count":36,"max":[0.03125,0.03125,0.15625],"min":[-0.03125,-0.03125,-0.09375],"type":"VEC3"},{"bufferView":4,"componentType":5126,"count":36,"max":[1,1,1],"min":[-1,-1,-1],"type":"VEC3"},{"bufferView":5,"componentType":5126,"count":36,"max":[0.25,1],"min":[0,0.75],"type":"VEC2"},{"bufferView":6,"componentType":5126,"count":36,"max":[0,0,0.0062500000931322575],"min":[-0.03750000149011612,-0.0625,-0.03125],"type":"VEC3"},{"bufferView":7,"componentType":5126,"count":36,"max":[1,1,1],"min":[-1,-1,-1],"type":"VEC3"},{"bufferView":8,"componentType":5126,"count":36,"max":[0.03750000149011612,1],"min":[0,0.9375],"type":"VEC2"},{"bufferView":9,"componentType":5126,"count":36,"max":[0,0.08124999701976776,0.07500000298023224],"min":[-0.03750000149011612,-0.04374999925494194,0.03750000149011612],"type":"VEC3"},{"bufferView":10,"componentType":5126,"count":36,"max":[1,1,1],"min":[-1,-1,-1],"type":"VEC3"},{"bufferView":11,"componentType":5126,"count":36,"max":[0.03750000149011612,1],"min":[0,0.875],"type":"VEC2"},{"bufferView":12,"componentType":5126,"count":36,"max":[-0.0062500000931322575,-0.0062500000931322575,-5.551115123125783e-17],"min":[-0.03125,-0.06875000149011612,-0.02500000037252903],"type":"VEC3"},{"bufferView":13,"componentType":5126,"count":36,"max":[1,1,1],"min":[-1,-1,-1],"type":"VEC3"},{"bufferView":14,"componentType":5126,"count":36,"max":[0.02500000037252903,1],"min":[0,0.9375],"type":"VEC2"},{"bufferView":15,"componentType":5126,"count":1,"max":[0],"min":[0],"type":"SCALAR"},{"bufferView":16,"componentType":5126,"count":1,"max":[0,0.06975647062063217,0,0.9975640773773193],"min":[0,0.06975647062063217,0,0.9975640773773193],"type":"VEC4"},{"bufferView":17,"componentType":5126,"count":1,"max":[0],"min":[0],"type":"SCALAR"},{"bufferView":18,"componentType":5126,"count":1,"max":[0.07187499850988388,0.05937499925494194,0.17980262637138367],"min":[0.07187499850988388,0.05937499925494194,0.17980262637138367],"type":"VEC3"},{"bufferView":19,"componentType":5126,"count":3,"max":[2],"min":[0],"type":"SCALAR"},{"bufferView":20,"componentType":5126,"count":3,"max":[0.01745174266397953,0.00872520636767149,0,1],"min":[0,0,-0.00015229904965963215,0.9998096227645874],"type":"VEC4"},{"bufferView":21,"componentType":5126,"count":3,"max":[2],"min":[0],"type":"SCALAR"},{"bufferView":22,"componentType":5126,"count":3,"max":[0.015625,0.015625,-0.03125],"min":[0.015625,0.015625,-0.03125],"type":"VEC3"},{"bufferView":23,"componentType":5126,"count":3,"max":[2],"min":[0],"type":"SCALAR"},{"bufferView":24,"componentType":5126,"count":3,"max":[0.025426771491765976,-0.23760443925857544,0.0062218913808465,0.9710091948509216],"min":[0.008458027616143227,-0.24614392220973969,0.00214806548319757,0.9691939949989319],"type":"VEC4"},{"bufferView":25,"componentType":5126,"count":3,"max":[2],"min":[0],"type":"SCALAR"},{"bufferView":26,"componentType":5126,"count":3,"max":[0.20000000298023224,0.03125,-0.03125],"min":[0.20000000298023224,0.03125,-0.03125],"type":"VEC3"},{"bufferView":27,"componentType":5126,"count":1,"max":[0],"min":[0],"type":"SCALAR"},{"bufferView":28,"componentType":5126,"count":1,"max":[0,0,0,1],"min":[0,0,0,1],"type":"VEC4"},{"bufferView":29,"componentType":5126,"count":1,"max":[0],"min":[0],"type":"SCALAR"},{"bufferView":30,"componentType":5126,"count":1,"max":[2.7755575615628914e-17,0.01875000074505806,0.026447370648384094],"min":[2.7755575615628914e-17,0.01875000074505806,0.026447370648384094],"type":"VEC3"},{"bufferView":31,"componentType":5126,"count":2,"max":[0.375],"min":[0],"type":"SCALAR"},{"bufferView":32,"componentType":5126,"count":2,"max":[0.6755902171134949,0,0,1],"min":[0,0,0,0.7372773289680481],"type":"VEC4"},{"bufferView":33,"componentType":5126,"count":2,"max":[0.375],"min":[0],"type":"SCALAR"},{"bufferView":34,"componentType":5126,"count":2,"max":[0.015625,0.015625,-0.03125],"min":[0.015625,0.015625,-0.03125],"type":"VEC3"},{"bufferView":35,"componentType":5126,"count":4,"max":[0.6666666865348816],"min":[0],"type":"SCALAR"},{"bufferView":36,"componentType":5126,"count":4,"max":[0.8171566128730774,0.06405151635408401,0.06831534951925278,0.9159793853759766],"min":[-0.976954996585846,-0.06975647062063217,-0.05714115872979164,-0.9975640773773193],"type":"VEC4"},{"bufferView":37,"componentType":5126,"count":1,"max":[0],"min":[0],"type":"SCALAR"},{"bufferView":38,"componentType":5126,"count":1,"max":[0.07187499850988388,0.05937499925494194,0.17980262637138367],"min":[0.07187499850988388,0.05937499925494194,0.17980262637138367],"type":"VEC3"},{"bufferView":39,"componentType":5126,"count":3,"max":[1],"min":[0],"type":"SCALAR"},{"bufferView":40,"componentType":5126,"count":3,"max":[0.5973622798919678,0.04542531073093414,0.00214806548319757,0.9691939949989319],"min":[0.008458027616143227,-0.24614392220973969,-0.033920690417289734,0.7999651432037354],"type":"VEC4"},{"bufferView":41,"componentType":5126,"count":3,"max":[1],"min":[0],"type":"SCALAR"},{"bufferView":42,"componentType":5126,"count":3,"max":[0.20000000298023224,0.03125,-0.03125],"min":[0.20000000298023224,0.03125,-0.03125],"type":"VEC3"},{"bufferView":43,"componentType":5126,"count":1,"max":[0],"min":[0],"type":"SCALAR"},{"bufferView":44,"componentType":5126,"count":1,"max":[0,0,0,1],"min":[0,0,0,1],"type":"VEC4"},{"bufferView":45,"componentType":5126,"count":1,"max":[0],"min":[0],"type":"SCALAR"},{"bufferView":46,"componentType":5126,"count":1,"max":[2.7755575615628914e-17,0.01875000074505806,0.026447370648384094],"min":[2.7755575615628914e-17,0.01875000074505806,0.026447370648384094],"type":"VEC3"},{"bufferView":47,"componentType":5126,"count":4,"max":[1.7083333730697632],"min":[0],"type":"SCALAR"},{"bufferView":48,"componentType":5126,"count":4,"max":[0,0,0,1],"min":[-0.2079116851091385,0,0,0.9781476259231567],"type":"VEC4"},{"bufferView":49,"componentType":5126,"count":2,"max":[1.7083333730697632],"min":[0],"type":"SCALAR"},{"bufferView":50,"componentType":5126,"count":2,"max":[0.015625,0.015625,-0.03125],"min":[0.015625,0.015625,-0.03125],"type":"VEC3"},{"bufferView":51,"componentType":5126,"count":4,"max":[1.7083333730697632],"min":[0],"type":"SCALAR"},{"bufferView":52,"componentType":5126,"count":4,"max":[0,0.06975647062063217,0.01450318656861782,0.9975640773773193],"min":[-0.207405224442482,0.06823212653398514,0,0.9757648706436157],"type":"VEC4"},{"bufferView":53,"componentType":5126,"count":2,"max":[1.7083333730697632],"min":[0],"type":"SCALAR"},{"bufferView":54,"componentType":5126,"count":2,"max":[0.07187499850988388,0.05937499925494194,0.17980262637138367],"min":[0.07187499850988388,0.05937499925494194,0.17980262637138367],"type":"VEC3"},{"bufferView":55,"componentType":5126,"count":6,"max":[1.4583333730697632],"min":[0],"type":"SCALAR"},{"bufferView":56,"componentType":5126,"count":6,"max":[0.23344536125659943,0,0,1],"min":[0,0,0,0.972369909286499],"type":"VEC4"},{"bufferView":57,"componentType":5126,"count":7,"max":[1.4583333730697632],"min":[0],"type":"SCALAR"},{"bufferView":58,"componentType":5126,"count":7,"max":[0.02500000037252903,0.01875000074505806,0.026447370648384094],"min":[2.7755575615628914e-17,-0.14374999701976776,-0.048552628606557846],"type":"VEC3"},{"bufferView":59,"componentType":5126,"count":8,"max":[1.7083333730697632],"min":[0],"type":"SCALAR"},{"bufferView":60,"componentType":5126,"count":8,"max":[0.08447404205799103,-0.24344950914382935,0.021453673020005226,0.9691939949989319],"min":[-0.14326144754886627,-0.24614392220973969,-0.036383774131536484,0.958584725856781],"type":"VEC4"},{"bufferView":61,"componentType":5126,"count":2,"max":[1.7083333730697632],"min":[0],"type":"SCALAR"},{"bufferView":62,"componentType":5126,"count":2,"max":[0.20000000298023224,0.03125,-0.03125],"min":[0.20000000298023224,0.03125,-0.03125],"type":"VEC3"},{"bufferView":63,"componentType":5126,"count":3,"max":[0.2916666567325592],"min":[0],"type":"SCALAR"},{"bufferView":64,"componentType":5126,"count":3,"max":[0,0,0,1],"min":[-0.06975647062063217,0,0,0.9975640773773193],"type":"VEC4"},{"bufferView":65,"componentType":5126,"count":2,"max":[0.2916666567325592],"min":[0],"type":"SCALAR"},{"bufferView":66,"componentType":5126,"count":2,"max":[0.015625,0.015625,-0.03125],"min":[0.015625,0.015625,-0.03125],"type":"VEC3"},{"bufferView":67,"componentType":5126,"count":4,"max":[0.2916666567325592],"min":[0],"type":"SCALAR"},{"bufferView":68,"componentType":5126,"count":4,"max":[0,0.06975647062063217,0.012113084085285664,0.9975640773773193],"min":[-0.17322517931461334,0.06869671493768692,0,0.9824088215827942],"type":"VEC4"},{"bufferView":69,"componentType":5126,"count":1,"max":[0],"min":[0],"type":"SCALAR"},{"bufferView":70,"componentType":5126,"count":1,"max":[0.07187499850988388,0.05937499925494194,0.17980262637138367],"min":[0.07187499850988388,0.05937499925494194,0.17980262637138367],"type":"VEC3"},{"bufferView":71,"componentType":5126,"count":1,"max":[0],"min":[0],"type":"SCALAR"},{"bufferView":72,"componentType":5126,"count":1,"max":[0,0,0,1],"min":[0,0,0,1],"type":"VEC4"},{"bufferView":73,"componentType":5126,"count":1,"max":[0],"min":[0],"type":"SCALAR"},{"bufferView":74,"componentType":5126,"count":1,"max":[2.7755575615628914e-17,0.01875000074505806,0.026447370648384094],"min":[2.7755575615628914e-17,0.01875000074505806,0.026447370648384094],"type":"VEC3"},{"bufferView":75,"componentType":5126,"count":3,"max":[0.2916666567325592],"min":[0],"type":"SCALAR"},{"bufferView":76,"componentType":5126,"count":3,"max":[0.008458027616143227,-0.24569416046142578,0.00214806548319757,0.9691939949989319],"min":[-0.059170130640268326,-0.24614392220973969,-0.015027298592031002,0.9674230813980103],"type":"VEC4"},{"bufferView":77,"componentType":5126,"count":1,"max":[0],"min":[0],"type":"SCALAR"},{"bufferView":78,"componentType":5126,"count":1,"max":[0.20000000298023224,0.03125,-0.03125],"min":[0.20000000298023224,0.03125,-0.03125],"type":"VEC3"}],"materials":[{"pbrMetallicRoughness":{"baseColorFactor":[1,0.6549019607843137,0.6431372549019608,1],"metallicFactor":0,"roughnessFactor":1,"baseColorTexture":{"index":0}},"doubleSided":true},{"pbrMetallicRoughness":{"baseColorFactor":[0.9098039215686274,0.7411764705882353,0.4823529411764706,1],"metallicFactor":0,"roughnessFactor":1,"baseColorTexture":{"index":0}},"doubleSided":true}],"textures":[{"sampler":0,"source":0}],"samplers":[{"magFilter":9728,"minFilter":9728,"wrapS":10497,"wrapT":10497}],"images":[{"mimeType":"image/png","uri":"data:image/png;base64,"}],"meshes":[{"primitives":[{"mode":4,"attributes":{"POSITION":0,"NORMAL":1,"TEXCOORD_0":2},"material":0}]},{"primitives":[{"mode":4,"attributes":{"POSITION":3,"NORMAL":4,"TEXCOORD_0":5},"material":0}]},{"primitives":[{"mode":4,"attributes":{"POSITION":6,"NORMAL":7,"TEXCOORD_0":8},"material":1}]},{"primitives":[{"mode":4,"attributes":{"POSITION":9,"NORMAL":10,"TEXCOORD_0":11},"material":1}]},{"primitives":[{"mode":4,"attributes":{"POSITION":12,"NORMAL":13,"TEXCOORD_0":14},"material":1}]}],"animations":[{"name":"idle","samplers":[{"input":15,"output":16,"interpolation":"LINEAR"},{"input":17,"output":18,"interpolation":"LINEAR"},{"input":19,"output":20,"interpolation":"LINEAR"},{"input":21,"output":22,"interpolation":"LINEAR"},{"input":23,"output":24,"interpolation":"LINEAR"},{"input":25,"output":26,"interpolation":"LINEAR"},{"input":27,"output":28,"interpolation":"LINEAR"},{"input":29,"output":30,"interpolation":"LINEAR"}],"channels":[{"sampler":0,"target":{"node":7,"path":"rotation"}},{"sampler":1,"target":{"node":7,"path":"translation"}},{"sampler":2,"target":{"node":8,"path":"rotation"}},{"sampler":3,"target":{"node":8,"path":"translation"}},{"sampler":4,"target":{"node":1,"path":"rotation"}},{"sampler":5,"target":{"node":1,"path":"translation"}},{"sampler":6,"target":{"node":6,"path":"rotation"}},{"sampler":7,"target":{"node":6,"path":"translation"}}]},{"name":"show","samplers":[{"input":31,"output":32,"interpolation":"LINEAR"},{"input":33,"output":34,"interpolation":"LINEAR"},{"input":35,"output":36,"interpolation":"LINEAR"},{"input":37,"output":38,"interpolation":"LINEAR"},{"input":39,"output":40,"interpolation":"LINEAR"},{"input":41,"output":42,"interpolation":"LINEAR"},{"input":43,"output":44,"interpolation":"LINEAR"},{"input":45,"output":46,"interpolation":"LINEAR"}],"channels":[{"sampler":0,"target":{"node":8,"path":"rotation"}},{"sampler":1,"target":{"node":8,"path":"translation"}},{"sampler":2,"target":{"node":7,"path":"rotation"}},{"sampler":3,"target":{"node":7,"path":"translation"}},{"sampler":4,"target":{"node":1,"path":"rotation"}},{"sampler":5,"target":{"node":1,"path":"translation"}},{"sampler":6,"target":{"node":6,"path":"rotation"}},{"sampler":7,"target":{"node":6,"path":"translation"}}]},{"name":"reload","samplers":[{"input":47,"output":48,"interpolation":"LINEAR"},{"input":49,"output":50,"interpolation":"LINEAR"},{"input":51,"output":52,"interpolation":"LINEAR"},{"input":53,"output":54,"interpolation":"LINEAR"},{"input":55,"output":56,"interpolation":"LINEAR"},{"input":57,"output":58,"interpolation":"LINEAR"},{"input":59,"output":60,"interpolation":"LINEAR"},{"input":61,"output":62,"interpolation":"LINEAR"}],"channels":[{"sampler":0,"target":{"node":8,"path":"rotation"}},{"sampler":1,"target":{"node":8,"path":"translation"}},{"sampler":2,"target":{"node":7,"path":"rotation"}},{"sampler":3,"target":{"node":7,"path":"translation"}},{"sampler":4,"target":{"node":6,"path":"rotation"}},{"sampler":5,"target":{"node":6,"path":"translation"}},{"sampler":6,"target":{"node":1,"path":"rotation"}},{"sampler":7,"target":{"node":1,"path":"translation"}}]},{"name":"attack1","samplers":[{"input":63,"output":64,"interpolation":"LINEAR"},{"input":65,"output":66,"interpolation":"LINEAR"},{"input":67,"output":68,"interpolation":"LINEAR"},{"input":69,"output":70,"interpolation":"LINEAR"},{"input":71,"output":72,"interpolation":"LINEAR"},{"input":73,"output":74,"interpolation":"LINEAR"},{"input":75,"output":76,"interpolation":"LINEAR"},{"input":77,"output":78,"interpolation":"LINEAR"}],"channels":[{"sampler":0,"target":{"node":8,"path":"rotation"}},{"sampler":1,"target":{"node":8,"path":"translation"}},{"sampler":2,"target":{"node":7,"path":"rotation"}},{"sampler":3,"target":{"node":7,"path":"translation"}},{"sampler":4,"target":{"node":6,"path":"rotation"}},{"sampler":5,"target":{"node":6,"path":"translation"}},{"sampler":6,"target":{"node":1,"path":"rotation"}},{"sampler":7,"target":{"node":1,"path":"translation"}}]}]}