{"asset":{"version":"2.0","generator":"Blockbench 3.8.4 glTF exporter"},"scenes":[{"nodes":[1,3,9],"name":"blockbench_export"}],"scene":0,"nodes":[{"translation":[0.05625000000000008,0.03125,0.05625000000000002],"name":"c125456a-806b-27be-8a63-2a1dd683ab9a","mesh":0},{"rotation":[0,-0.24615329302899303,0,0.9692309097067544],"translation":[0.20625,0.03125,0.03125],"name":"right_hand","children":[0]},{"rotation":[0,0.06540312923014306,0,0.9978589232386035],"translation":[-0.05625000000000002,-0.03125,-0.05625000000000002],"name":"df60f904-41a6-bcab-b0cf-7f5888762cee","mesh":1},{"translation":[0.08750000000000002,0.0625,0.08750000000000002],"name":"bone","children":[2]},{"name":"bone"},{"rotation":[0.7071067811865475,0,0,0.7071067811865476],"translation":[2.7755575615628914e-17,0.08071530383586312,0.034605258009168915],"name":"dea56295-4aa7-d1a7-1b9b-74fca27ca6d1","mesh":2},{"rotation":[0.06540312923014306,0,0,0.9978589232386035],"translation":[2.7755575615628914e-17,0.01874999999999996,0.026447370995415637],"name":"5c705dba-5a65-3162-c90d-d9c387a3f742","mesh":3},{"rotation":[0.06540312923014306,0,0,0.9978589232386035],"name":"2ec324fb-869c-185a-367e-28e275935138","mesh":4},{"translation":[2.7755575615628914e-17,0.01874999999999996,0.026447370995415637],"name":"bone","children":[7]},{"rotation":[0,0.0697564737441253,0,0.9975640502598242],"translation":[0.06874999999999998,0.07499999999999996,0.17355262900458443],"name":"bone","children":[4,5,6,8]}],"bufferViews":[{"buffer":0,"byteOffset":0,"byteLength":432,"target":34962,"byteStride":12},{"buffer":0,"byteOffset":432,"byteLength":432,"target":34962,"byteStride":12},{"buffer":0,"byteOffset":864,"byteLength":288,"target":34962,"byteStride":8},{"buffer":0,"byteOffset":1152,"byteLength":432,"target":34962,"byteStride":12},{"buffer":0,"byteOffset":1584,"byteLength":432,"target":34962,"byteStride":12},{"buffer":0,"byteOffset":2016,"byteLength":288,"target":34962,"byteStride":8},{"buffer":0,"byteOffset":2304,"byteLength":432,"target":34962,"byteStride":12},{"buffer":0,"byteOffset":2736,"byteLength":432,"target":34962,"byteStride":12},{"buffer":0,"byteOffset":3168,"byteLength":288,"target":34962,"byteStride":8},{"buffer":0,"byteOffset":3456,"byteLength":432,"target":34962,"byteStride":12},{"buffer":0,"byteOffset":3888,"byteLength":432,"target":34962,"byteStride":12},{"buffer":0,"byteOffset":4320,"byteLength":288,"target":34962,"byteStride":8},{"buffer":0,"byteOffset":4608,"byteLength":432,"target":34962,"byteStride":12},{"buffer":0,"byteOffset":5040,"byteLength":432,"target":34962,"byteStride":12},{"buffer":0,"byteOffset":5472,"byteLength":288,"target":34962,"byteStride":8}],"buffers":[{"byteLength":5760,"uri":"data:application/octet-stream;base64,"}],"accessors":[{"bufferView":0,"componentType":5126,"count":36,"max":[-0.05000000074505806,0,0.11874999850988388],"min":[-0.11249999701976776,-0.0625,-0.06875000149011612],"type":"VEC3"},{"bufferView":1,"componentType":5126,"count":36,"max":[1,1,1],"min":[-1,-1,-1],"type":"VEC3"},{"bufferView":2,"componentType":5126,"count":36,"max":[0.1875,1],"min":[0,0.8125],"type":"VEC2"},{"bufferView":3,"componentType":5126,"count":36,"max":[0.03125,0.03125,0.15625],"min":[-0.03125,-0.03125,-0.03125],"type":"VEC3"},{"bufferView":4,"componentType":5126,"count":36,"max":[1,1,1],"min":[-1,-1,-1],"type":"VEC3"},{"bufferView":5,"componentType":5126,"count":36,"max":[0.1875,1],"min":[0,0.8125],"type":"VEC2"},{"bufferView":6,"componentType":5126,"count":36,"max":[0,0.08749999850988388,0.07500000298023224],"min":[-0.03750000149011612,-0.03750000149011612,0.03750000149011612],"type":"VEC3"},{"bufferView":7,"componentType":5126,"count":36,"max":[1,1,1],"min":[-1,-1,-1],"type":"VEC3"},{"bufferView":8,"componentType":5126,"count":36,"max":[0.03750000149011612,1],"min":[0,0.875],"type":"VEC2"},{"bufferView":9,"componentType":5126,"count":36,"max":[0,0,0.0062500000931322575],"min":[-0.03750000149011612,-0.0625,-0.03125],"type":"VEC3"},{"bufferView":10,"componentType":5126,"count":36,"max":[1,1,1],"min":[-1,-1,-1],"type":"VEC3"},{"bufferView":11,"componentType":5126,"count":36,"max":[0.03750000149011612,1],"min":[0,0.9375],"type":"VEC2"},{"bufferView":12,"componentType":5126,"count":36,"max":[-0.0062500000931322575,-0.0062500000931322575,-5.551115123125783e-17],"min":[-0.03125,-0.06875000149011612,-0.02500000037252903],"type":"VEC3"},{"bufferView":13,"componentType":5126,"count":36,"max":[1,1,1],"min":[-1,-1,-1],"type":"VEC3"},{"bufferView":14,"componentType":5126,"count":36,"max":[0.02500000037252903,1],"min":[0,0.9375],"type":"VEC2"}],"materials":[{"pbrMetallicRoughness":{"baseColorFactor":[1,0.6549019607843137,0.6431372549019608,1],"metallicFactor":0,"roughnessFactor":1,"baseColorTexture":{"index":0}},"doubleSided":true},{"pbrMetallicRoughness":{"baseColorFactor":[0.9098039215686274,0.7411764705882353,0.4823529411764706,1],"metallicFactor":0,"roughnessFactor":1,"baseColorTexture":{"index":0}},"doubleSided":true}],"textures":[{"sampler":0,"source":0}],"samplers":[{"magFilter":9728,"minFilter":9728,"wrapS":10497,"wrapT":10497}],"images":[{"mimeType":"image/png","uri":"data:image/png;base64,"}],"meshes":[{"primitives":[{"mode":4,"attributes":{"POSITION":0,"NORMAL":1,"TEXCOORD_0":2},"material":0}]},{"primitives":[{"mode":4,"attributes":{"POSITION":3,"NORMAL":4,"TEXCOORD_0":5},"material":0}]},{"primitives":[{"mode":4,"attributes":{"POSITION":6,"NORMAL":7,"TEXCOORD_0":8},"material":1}]},{"primitives":[{"mode":4,"attributes":{"POSITION":9,"NORMAL":10,"TEXCOORD_0":11},"material":1}]},{"primitives":[{"mode":4,"attributes":{"POSITION":12,"NORMAL":13,"TEXCOORD_0":14},"material":1}]}]}