{"asset":{"version":"2.0","generator":"Blockbench 3.8.4 glTF exporter"},"scenes":[{"nodes":[1,9],"name":"blockbench_export"}],"scene":0,"nodes":[{"name":"c125456a-806b-27be-8a63-2a1dd683ab9a","mesh":0},{"rotation":[0.008458027939677254,-0.24614392026585033,0.0021480654496591487,0.9691940043636024],"translation":[0.20000000000000004,0.03125,-0.03125],"name":"left_hand","children":[0]},{"rotation":[0.06540312923014306,0,0,0.9978589232386035],"name":"2ec324fb-869c-185a-367e-28e275935138","mesh":1},{"translation":[2.7755575615628914e-17,0.043749999999999914,0.026447370995415637],"name":"magazine","children":[2]},{"rotation":[0.06540312923014306,0,0,0.9978589232386035],"translation":[2.7755575615628914e-17,0.043749999999999914,0.026447370995415637],"name":"5c705dba-5a65-3162-c90d-d9c387a3f742","mesh":2},{"rotation":[0.6946583704589973,0,0,0.7193398003386512],"translation":[-0.018749999999999975,0.06039571180007729,0.07996452059918419],"name":"dea56295-4aa7-d1a7-1b9b-74fca27ca6d1","mesh":3},{"rotation":[0.963630453208623,0,0,0.26723837607825696],"translation":[-0.018749999999999975,0.05981073660987114,-0.026329815698790032],"name":"73253b9f-f92d-ca70-e619-8d8b2c0580e5","mesh":4},{"rotation":[0,0.0697564737441253,0,0.9975640502598242],"translation":[0.071875,0.034375,0.21105262900458444],"name":"deagle","children":[3,4,5,6]},{"rotation":[0,0.06540312923014306,0,0.9978589232386035],"translation":[0.015625,0.015625,0.0625],"name":"df60f904-41a6-bcab-b0cf-7f5888762cee","mesh":5},{"translation":[0.015625,0.015625,-0.03125],"name":"right_hand","children":[7,8]}],"bufferViews":[{"buffer":0,"byteOffset":0,"byteLength":432,"target":34962,"byteStride":12},{"buffer":0,"byteOffset":432,"byteLength":432,"target":34962,"byteStride":12},{"buffer":0,"byteOffset":864,"byteLength":288,"target":34962,"byteStride":8},{"buffer":0,"byteOffset":1152,"byteLength":432,"target":34962,"byteStride":12},{"buffer":0,"byteOffset":1584,"byteLength":432,"target":34962,"byteStride":12},{"buffer":0,"byteOffset":2016,"byteLength":288,"target":34962,"byteStride":8},{"buffer":0,"byteOffset":2304,"byteLength":432,"target":34962,"byteStride":12},{"buffer":0,"byteOffset":2736,"byteLength":432,"target":34962,"byteStride":12},{"buffer":0,"byteOffset":3168,"byteLength":288,"target":34962,"byteStride":8},{"buffer":0,"byteOffset":3456,"byteLength":432,"target":34962,"byteStride":12},{"buffer":0,"byteOffset":3888,"byteLength":432,"target":34962,"byteStride":12},{"buffer":0,"byteOffset":4320,"byteLength":288,"target":34962,"byteStride":8},{"buffer":0,"byteOffset":4608,"byteLength":432,"target":34962,"byteStride":12},{"buffer":0,"byteOffset":5040,"byteLength":432,"target":34962,"byteStride":12},{"buffer":0,"byteOffset":5472,"byteLength":288,"target":34962,"byteStride":8},{"buffer":0,"byteOffset":5760,"byteLength":432,"target":34962,"byteStride":12},{"buffer":0,"byteOffset":6192,"byteLength":432,"target":34962,"byteStride":12},{"buffer":0,"byteOffset":6624,"byteLength":288,"target":34962,"byteStride":8},{"buffer":0,"byteOffset":6912,"byteLength":4},{"buffer":0,"byteOffset":6916,"byteLength":16},{"buffer":0,"byteOffset":6932,"byteLength":4},{"buffer":0,"byteOffset":6936,"byteLength":12},{"buffer":0,"byteOffset":6948,"byteLength":12},{"buffer":0,"byteOffset":6960,"byteLength":48},{"buffer":0,"byteOffset":7008,"byteLength":12},{"buffer":0,"byteOffset":7020,"byteLength":36},{"buffer":0,"byteOffset":7056,"byteLength":12},{"buffer":0,"byteOffset":7068,"byteLength":48},{"buffer":0,"byteOffset":7116,"byteLength":12},{"buffer":0,"byteOffset":7128,"byteLength":36},{"buffer":0,"byteOffset":7164,"byteLength":8},{"buffer":0,"byteOffset":7172,"byteLength":32},{"buffer":0,"byteOffset":7204,"byteLength":8},{"buffer":0,"byteOffset":7212,"byteLength":24},{"buffer":0,"byteOffset":7236,"byteLength":16},{"buffer":0,"byteOffset":7252,"byteLength":64},{"buffer":0,"byteOffset":7316,"byteLength":4},{"buffer":0,"byteOffset":7320,"byteLength":12},{"buffer":0,"byteOffset":7332,"byteLength":12},{"buffer":0,"byteOffset":7344,"byteLength":48},{"buffer":0,"byteOffset":7392,"byteLength":12},{"buffer":0,"byteOffset":7404,"byteLength":36},{"buffer":0,"byteOffset":7440,"byteLength":16},{"buffer":0,"byteOffset":7456,"byteLength":64},{"buffer":0,"byteOffset":7520,"byteLength":8},{"buffer":0,"byteOffset":7528,"byteLength":24},{"buffer":0,"byteOffset":7552,"byteLength":16},{"buffer":0,"byteOffset":7568,"byteLength":64},{"buffer":0,"byteOffset":7632,"byteLength":8},{"buffer":0,"byteOffset":7640,"byteLength":24},{"buffer":0,"byteOffset":7664,"byteLength":24},{"buffer":0,"byteOffset":7688,"byteLength":96},{"buffer":0,"byteOffset":7784,"byteLength":24},{"buffer":0,"byteOffset":7808,"byteLength":72},{"buffer":0,"byteOffset":7880,"byteLength":32},{"buffer":0,"byteOffset":7912,"byteLength":128},{"buffer":0,"byteOffset":8040,"byteLength":8},{"buffer":0,"byteOffset":8048,"byteLength":24},{"buffer":0,"byteOffset":8072,"byteLength":12},{"buffer":0,"byteOffset":8084,"byteLength":48},{"buffer":0,"byteOffset":8132,"byteLength":4},{"buffer":0,"byteOffset":8136,"byteLength":12},{"buffer":0,"byteOffset":8148,"byteLength":12},{"buffer":0,"byteOffset":8160,"byteLength":48},{"buffer":0,"byteOffset":8208,"byteLength":4},{"buffer":0,"byteOffset":8212,"byteLength":12},{"buffer":0,"byteOffset":8224,"byteLength":4},{"buffer":0,"byteOffset":8228,"byteLength":16},{"buffer":0,"byteOffset":8244,"byteLength":4},{"buffer":0,"byteOffset":8248,"byteLength":12},{"buffer":0,"byteOffset":8260,"byteLength":12},{"buffer":0,"byteOffset":8272,"byteLength":48},{"buffer":0,"byteOffset":8320,"byteLength":4},{"buffer":0,"byteOffset":8324,"byteLength":12}],"buffers":[{"byteLength":8336,"uri":"data:application/octet-stream;base64,"}],"accessors":[{"bufferView":0,"componentType":5126,"count":36,"max":[0.03750000149011612,0.03125,0.23125000298023224],"min":[-0.02500000037252903,-0.03125,-0.01875000074505806],"type":"VEC3"},{"bufferView":1,"componentType":5126,"count":36,"max":[1,1,1],"min":[-1,-1,-1],"type":"VEC3"},{"bufferView":2,"componentType":5126,"count":36,"max":[0.875,0.5],"min":[0.625,0],"type":"VEC2"},{"bufferView":3,"componentType":5126,"count":36,"max":[-0.0062500000931322575,-0.0062500000931322575,-5.551115123125783e-17],"min":[-0.03125,-0.06875000149011612,-0.02500000037252903],"type":"VEC3"},{"bufferView":4,"componentType":5126,"count":36,"max":[1,1,1],"min":[-1,-1,-1],"type":"VEC3"},{"bufferView":5,"componentType":5126,"count":36,"max":[0.02500000037252903,1],"min":[0,0.9375],"type":"VEC2"},{"bufferView":6,"componentType":5126,"count":36,"max":[0.0062500000931322575,0.03750000149011612,0.0062500000931322575],"min":[-0.04374999925494194,-0.0625,-0.05000000074505806],"type":"VEC3"},{"bufferView":7,"componentType":5126,"count":36,"max":[1,1,1],"min":[-1,-1,-1],"type":"VEC3"},{"bufferView":8,"componentType":5126,"count":36,"max":[0.05624999850988388,1],"min":[0,0.8999999761581421],"type":"VEC2"},{"bufferView":9,"componentType":5126,"count":36,"max":[0.02500000037252903,0.08749999850988388,0.02812499925494194],"min":[-0.02500000037252903,-0.08749999850988388,-0.02812499925494194],"type":"VEC3"},{"bufferView":10,"componentType":5126,"count":36,"max":[1,1,1],"min":[-1,-1,-1],"type":"VEC3"},{"bufferView":11,"componentType":5126,"count":36,"max":[0.05624999850988388,1],"min":[0,0.824999988079071],"type":"VEC2"},{"bufferView":12,"componentType":5126,"count":36,"max":[0.0062500000931322575,0.0062500000931322575,-5.551115123125783e-17],"min":[-0.0062500000931322575,-0.01875000074505806,-0.012500000186264515],"type":"VEC3"},{"bufferView":13,"componentType":5126,"count":36,"max":[1,1,1],"min":[-1,-1,-1],"type":"VEC3"},{"bufferView":14,"componentType":5126,"count":36,"max":[0.012500000186264515,1],"min":[0,0.9750000238418579],"type":"VEC2"},{"bufferView":15,"componentType":5126,"count":36,"max":[0.03125,0.03125,0.15625],"min":[-0.03125,-0.03125,-0.09375],"type":"VEC3"},{"bufferView":16,"componentType":5126,"count":36,"max":[1,1,1],"min":[-1,-1,-1],"type":"VEC3"},{"bufferView":17,"componentType":5126,"count":36,"max":[0.875,0.5],"min":[0.625,0],"type":"VEC2"},{"bufferView":18,"componentType":5126,"count":1,"max":[0],"min":[0],"type":"SCALAR"},{"bufferView":19,"componentType":5126,"count":1,"max":[0,0.06975647062063217,0,0.9975640773773193],"min":[0,0.06975647062063217,0,0.9975640773773193],"type":"VEC4"},{"bufferView":20,"componentType":5126,"count":1,"max":[0],"min":[0],"type":"SCALAR"},{"bufferView":21,"componentType":5126,"count":1,"max":[0.07187499850988388,0.03437500074505806,0.21105262637138367],"min":[0.07187499850988388,0.03437500074505806,0.21105262637138367],"type":"VEC3"},{"bufferView":22,"componentType":5126,"count":3,"max":[2],"min":[0],"type":"SCALAR"},{"bufferView":23,"componentType":5126,"count":3,"max":[0.01745174266397953,0.00872520636767149,0,1],"min":[0,0,-0.00015229904965963215,0.9998096227645874],"type":"VEC4"},{"bufferView":24,"componentType":5126,"count":3,"max":[2],"min":[0],"type":"SCALAR"},{"bufferView":25,"componentType":5126,"count":3,"max":[0.015625,0.015625,-0.03125],"min":[0.015625,0.015625,-0.03125],"type":"VEC3"},{"bufferView":26,"componentType":5126,"count":3,"max":[2],"min":[0],"type":"SCALAR"},{"bufferView":27,"componentType":5126,"count":3,"max":[0.025426771491765976,-0.23760443925857544,0.0062218913808465,0.9710091948509216],"min":[0.008458027616143227,-0.24614392220973969,0.00214806548319757,0.9691939949989319],"type":"VEC4"},{"bufferView":28,"componentType":5126,"count":3,"max":[2],"min":[0],"type":"SCALAR"},{"bufferView":29,"componentType":5126,"count":3,"max":[0.20000000298023224,0.03125,-0.03125],"min":[0.20000000298023224,0.03125,-0.03125],"type":"VEC3"},{"bufferView":30,"componentType":5126,"count":2,"max":[0.375],"min":[0],"type":"SCALAR"},{"bufferView":31,"componentType":5126,"count":2,"max":[0.6755902171134949,0,0,1],"min":[0,0,0,0.7372773289680481],"type":"VEC4"},{"bufferView":32,"componentType":5126,"count":2,"max":[0.375],"min":[0],"type":"SCALAR"},{"bufferView":33,"componentType":5126,"count":2,"max":[0.015625,0.015625,-0.03125],"min":[0.015625,0.015625,-0.03125],"type":"VEC3"},{"bufferView":34,"componentType":5126,"count":4,"max":[0.6666666865348816],"min":[0],"type":"SCALAR"},{"bufferView":35,"componentType":5126,"count":4,"max":[0.8171566128730774,0.06405151635408401,0.06831534951925278,0.9159793853759766],"min":[-0.976954996585846,-0.06975647062063217,-0.05714115872979164,-0.9975640773773193],"type":"VEC4"},{"bufferView":36,"componentType":5126,"count":1,"max":[0],"min":[0],"type":"SCALAR"},{"bufferView":37,"componentType":5126,"count":1,"max":[0.07187499850988388,0.03437500074505806,0.21105262637138367],"min":[0.07187499850988388,0.03437500074505806,0.21105262637138367],"type":"VEC3"},{"bufferView":38,"componentType":5126,"count":3,"max":[1],"min":[0],"type":"SCALAR"},{"bufferView":39,"componentType":5126,"count":3,"max":[0.5973622798919678,0.04542531073093414,0.00214806548319757,0.9691939949989319],"min":[0.008458027616143227,-0.24614392220973969,-0.033920690417289734,0.7999651432037354],"type":"VEC4"},{"bufferView":40,"componentType":5126,"count":3,"max":[1],"min":[0],"type":"SCALAR"},{"bufferView":41,"componentType":5126,"count":3,"max":[0.20000000298023224,0.03125,-0.03125],"min":[0.20000000298023224,0.03125,-0.03125],"type":"VEC3"},{"bufferView":42,"componentType":5126,"count":4,"max":[1.7083333730697632],"min":[0],"type":"SCALAR"},{"bufferView":43,"componentType":5126,"count":4,"max":[0,0,0,1],"min":[-0.2079116851091385,0,0,0.9781476259231567],"type":"VEC4"},{"bufferView":44,"componentType":5126,"count":2,"max":[1.7083333730697632],"min":[0],"type":"SCALAR"},{"bufferView":45,"componentType":5126,"count":2,"max":[0.015625,0.015625,-0.03125],"min":[0.015625,0.015625,-0.03125],"type":"VEC3"},{"bufferView":46,"componentType":5126,"count":4,"max":[1.7083333730697632],"min":[0],"type":"SCALAR"},{"bufferView":47,"componentType":5126,"count":4,"max":[0,0.06975647062063217,0.01450318656861782,0.9975640773773193],"min":[-0.207405224442482,0.06823212653398514,0,0.9757648706436157],"type":"VEC4"},{"bufferView":48,"componentType":5126,"count":2,"max":[1.7083333730697632],"min":[0],"type":"SCALAR"},{"bufferView":49,"componentType":5126,"count":2,"max":[0.07187499850988388,0.03437500074505806,0.21105262637138367],"min":[0.07187499850988388,0.03437500074505806,0.21105262637138367],"type":"VEC3"},{"bufferView":50,"componentType":5126,"count":6,"max":[1.4583333730697632],"min":[0],"type":"SCALAR"},{"bufferView":51,"componentType":5126,"count":6,"max":[0.23344536125659943,0,0,1],"min":[0,0,0,0.972369909286499],"type":"VEC4"},{"bufferView":52,"componentType":5126,"count":6,"max":[1.4583333730697632],"min":[0.5],"type":"SCALAR"},{"bufferView":53,"componentType":5126,"count":6,"max":[0.02500000037252903,0.04374999925494194,0.026447370648384094],"min":[2.7755575615628914e-17,-0.11874999850988388,-0.048552628606557846],"type":"VEC3"},{"bufferView":54,"componentType":5126,"count":8,"max":[1.7083333730697632],"min":[0],"type":"SCALAR"},{"bufferView":55,"componentType":5126,"count":8,"max":[0.08447404205799103,-0.24344950914382935,0.021453673020005226,0.9691939949989319],"min":[-0.14326144754886627,-0.24614392220973969,-0.036383774131536484,0.958584725856781],"type":"VEC4"},{"bufferView":56,"componentType":5126,"count":2,"max":[1.7083333730697632],"min":[0],"type":"SCALAR"},{"bufferView":57,"componentType":5126,"count":2,"max":[0.20000000298023224,0.03125,-0.03125],"min":[0.20000000298023224,0.03125,-0.03125],"type":"VEC3"},{"bufferView":58,"componentType":5126,"count":3,"max":[0.3333333432674408],"min":[0],"type":"SCALAR"},{"bufferView":59,"componentType":5126,"count":3,"max":[0,0,0,1],"min":[-0.10452846437692642,0,0,0.9945219159126282],"type":"VEC4"},{"bufferView":60,"componentType":5126,"count":1,"max":[0],"min":[0],"type":"SCALAR"},{"bufferView":61,"componentType":5126,"count":1,"max":[0.015625,0.015625,-0.03125],"min":[0.015625,0.015625,-0.03125],"type":"VEC3"},{"bufferView":62,"componentType":5126,"count":3,"max":[0.2083333283662796],"min":[0],"type":"SCALAR"},{"bufferView":63,"componentType":5126,"count":3,"max":[0,0.06975647062063217,0.015098064206540585,0.9975640773773193],"min":[-0.2159123718738556,0.06810296326875687,0,0.9739177823066711],"type":"VEC4"},{"bufferView":64,"componentType":5126,"count":1,"max":[0],"min":[0],"type":"SCALAR"},{"bufferView":65,"componentType":5126,"count":1,"max":[0.07187499850988388,0.03437500074505806,0.21105262637138367],"min":[0.07187499850988388,0.03437500074505806,0.21105262637138367],"type":"VEC3"},{"bufferView":66,"componentType":5126,"count":1,"max":[0],"min":[0],"type":"SCALAR"},{"bufferView":67,"componentType":5126,"count":1,"max":[0,0,0,1],"min":[0,0,0,1],"type":"VEC4"},{"bufferView":68,"componentType":5126,"count":1,"max":[0],"min":[0],"type":"SCALAR"},{"bufferView":69,"componentType":5126,"count":1,"max":[2.7755575615628914e-17,0.04374999925494194,0.026447370648384094],"min":[2.7755575615628914e-17,0.04374999925494194,0.026447370648384094],"type":"VEC3"},{"bufferView":70,"componentType":5126,"count":3,"max":[0.3333333432674408],"min":[0],"type":"SCALAR"},{"bufferView":71,"componentType":5126,"count":3,"max":[0.008458027616143227,-0.2450200468301773,0.00214806548319757,0.9691939949989319],"min":[-0.09289666265249252,-0.24614392220973969,-0.023592747747898102,0.9647687673568726],"type":"VEC4"},{"bufferView":72,"componentType":5126,"count":1,"max":[0],"min":[0],"type":"SCALAR"},{"bufferView":73,"componentType":5126,"count":1,"max":[0.20000000298023224,0.03125,-0.03125],"min":[0.20000000298023224,0.03125,-0.03125],"type":"VEC3"}],"materials":[{"pbrMetallicRoughness":{"baseColorFactor":[1,0.6549019607843137,0.6431372549019608,1],"metallicFactor":0,"roughnessFactor":1,"baseColorTexture":{"index":0}},"doubleSided":true},{"pbrMetallicRoughness":{"baseColorFactor":[0.9098039215686274,0.7411764705882353,0.4823529411764706,1],"metallicFactor":0,"roughnessFactor":1,"baseColorTexture":{"index":0}},"doubleSided":true}],"textures":[{"sampler":0,"source":0}],"samplers":[{"magFilter":9728,"minFilter":9728,"wrapS":10497,"wrapT":10497}],"images":[{"mimeType":"image/png","uri":"data:image/png;base64,"}],"meshes":[{"primitives":[{"mode":4,"attributes":{"POSITION":0,"NORMAL":1,"TEXCOORD_0":2},"material":0}]},{"primitives":[{"mode":4,"attributes":{"POSITION":3,"NORMAL":4,"TEXCOORD_0":5},"material":1}]},{"primitives":[{"mode":4,"attributes":{"POSITION":6,"NORMAL":7,"TEXCOORD_0":8},"material":1}]},{"primitives":[{"mode":4,"attributes":{"POSITION":9,"NORMAL":10,"TEXCOORD_0":11},"material":1}]},{"primitives":[{"mode":4,"attributes":{"POSITION":12,"NORMAL":13,"TEXCOORD_0":14},"material":1}]},{"primitives":[{"mode":4,"attributes":{"POSITION":15,"NORMAL":16,"TEXCOORD_0":17},"material":0}]}],"animations":[{"name":"idle","samplers":[{"input":18,"output":19,"interpolation":"LINEAR"},{"input":20,"output":21,"interpolation":"LINEAR"},{"input":22,"output":23,"interpolation":"LINEAR"},{"input":24,"output":25,"interpolation":"LINEAR"},{"input":26,"output":27,"interpolation":"LINEAR"},{"input":28,"output":29,"interpolation":"LINEAR"}],"channels":[{"sampler":0,"target":{"node":7,"path":"rotation"}},{"sampler":1,"target":{"node":7,"path":"translation"}},{"sampler":2,"target":{"node":9,"path":"rotation"}},{"sampler":3,"target":{"node":9,"path":"translation"}},{"sampler":4,"target":{"node":1,"path":"rotation"}},{"sampler":5,"target":{"node":1,"path":"translation"}}]},{"name":"show","samplers":[{"input":30,"output":31,"interpolation":"LINEAR"},{"input":32,"output":33,"interpolation":"LINEAR"},{"input":34,"output":35,"interpolation":"LINEAR"},{"input":36,"output":37,"interpolation":"LINEAR"},{"input":38,"output":39,"interpolation":"LINEAR"},{"input":40,"output":41,"interpolation":"LINEAR"}],"channels":[{"sampler":0,"target":{"node":9,"path":"rotation"}},{"sampler":1,"target":{"node":9,"path":"translation"}},{"sampler":2,"target":{"node":7,"path":"rotation"}},{"sampler":3,"target":{"node":7,"path":"translation"}},{"sampler":4,"target":{"node":1,"path":"rotation"}},{"sampler":5,"target":{"node":1,"path":"translation"}}]},{"name":"reload","samplers":[{"input":42,"output":43,"interpolation":"LINEAR"},{"input":44,"output":45,"interpolation":"LINEAR"},{"input":46,"output":47,"interpolation":"LINEAR"},{"input":48,"output":49,"interpolation":"LINEAR"},{"input":50,"output":51,"interpolation":"LINEAR"},{"input":52,"output":53,"interpolation":"LINEAR"},{"input":54,"output":55,"interpolation":"LINEAR"},{"input":56,"output":57,"interpolation":"LINEAR"}],"channels":[{"sampler":0,"target":{"node":9,"path":"rotation"}},{"sampler":1,"target":{"node":9,"path":"translation"}},{"sampler":2,"target":{"node":7,"path":"rotation"}},{"sampler":3,"target":{"node":7,"path":"translation"}},{"sampler":4,"target":{"node":3,"path":"rotation"}},{"sampler":5,"target":{"node":3,"path":"translation"}},{"sampler":6,"target":{"node":1,"path":"rotation"}},{"sampler":7,"target":{"node":1,"path":"translation"}}]},{"name":"attack1","samplers":[{"input":58,"output":59,"interpolation":"LINEAR"},{"input":60,"output":61,"interpolation":"LINEAR"},{"input":62,"output":63,"interpolation":"LINEAR"},{"input":64,"output":65,"interpolation":"LINEAR"},{"input":66,"output":67,"interpolation":"LINEAR"},{"input":68,"output":69,"interpolation":"LINEAR"},{"input":70,"output":71,"interpolation":"LINEAR"},{"input":72,"output":73,"interpolation":"LINEAR"}],"channels":[{"sampler":0,"target":{"node":9,"path":"rotation"}},{"sampler":1,"target":{"node":9,"path":"translation"}},{"sampler":2,"target":{"node":7,"path":"rotation"}},{"sampler":3,"target":{"node":7,"path":"translation"}},{"sampler":4,"target":{"node":3,"path":"rotation"}},{"sampler":5,"target":{"node":3,"path":"translation"}},{"sampler":6,"target":{"node":1,"path":"rotation"}},{"sampler":7,"target":{"node":1,"path":"translation"}}]}]}